<svg width="18" height="22" viewBox="0 0 18 22" fill="none" xmlns="http://www.w3.org/2000/svg">
<path d="M9.00054 21.75C10.1005 21.75 10.9905 20.86 10.9905 19.76H7.01054C7.01054 20.86 7.90054 21.75 9.00054 21.75ZM17.2905 17.04L16.0005 15.75V9.75C16.0005 6.4 13.6405 3.6 10.5005 2.92V1.75C10.5005 0.92 9.83054 0.25 9.00054 0.25C8.17054 0.25 7.50054 0.92 7.50054 1.75V2.92C4.36054 3.6 2.00054 6.4 2.00054 9.75V15.75L0.71054 17.04C0.0805397 17.67 0.52054 18.75 1.41054 18.75H16.5805C17.4805 18.75 17.9205 17.67 17.2905 17.04ZM10.0005 14.75H8.00054V12.75H10.0005V14.75ZM10.0005 9.75C10.0005 10.3 9.55054 10.75 9.00054 10.75C8.45054 10.75 8.00054 10.3 8.00054 9.75V7.75C8.00054 7.2 8.45054 6.75 9.00054 6.75C9.55054 6.75 10.0005 7.2 10.0005 7.75V9.75Z" fill="#6D72F6"/>
</svg>
