<svg width="177" height="32" viewBox="0 0 177 32" fill="none" xmlns="http://www.w3.org/2000/svg">
<path d="M167.583 31.5009H164.362L167.429 24.5211L161.949 12.0487H165.175L169.041 20.8511L172.91 12.0487H176.136L167.583 31.5009ZM88.6537 27.5544L91.2305 26.4762C91.4972 27.1724 91.9671 27.7723 92.5792 28.1976C93.1915 28.6231 93.9175 28.8544 94.6629 28.8616C95.1479 28.8888 95.633 28.8102 96.0845 28.6314C96.536 28.4527 96.9435 28.1778 97.2783 27.826C97.6132 27.4742 97.8676 27.0538 98.0241 26.594C98.1805 26.1342 98.235 25.6459 98.1841 25.1628V23.8444C97.7426 24.3855 97.1798 24.8148 96.5412 25.0973C95.9026 25.3798 95.2063 25.5077 94.5091 25.4705C92.8781 25.4386 91.3224 24.7786 90.1661 23.628C89.5168 22.9953 89.0025 22.2379 88.6538 21.4012C88.305 20.5646 88.1293 19.666 88.1371 18.7596C88.1481 17.0214 88.8141 15.3514 90.0022 14.0826C90.5837 13.4493 91.2897 12.9429 92.0759 12.5951C92.8622 12.2473 93.7119 12.0655 94.5715 12.0612C95.249 12.044 95.922 12.1726 96.5453 12.4382C97.1686 12.7039 97.7274 13.1004 98.1841 13.601V12.4665H100.999V24.5111C101.11 26.4373 100.458 28.33 99.1836 29.7786C98.5901 30.3554 97.8855 30.8056 97.1127 31.1017C96.3399 31.3978 95.5149 31.5336 94.6879 31.5009C93.4044 31.5142 92.1459 31.1462 91.0717 30.4437C89.9975 29.7411 89.1561 28.7357 88.6537 27.5544ZM91.0855 18.7984C91.0363 19.3102 91.095 19.8267 91.2577 20.3145C91.4203 20.8023 91.6833 21.2506 92.0298 21.6305C92.3762 22.0105 92.7985 22.3137 93.2692 22.5205C93.7401 22.7273 94.249 22.8331 94.7631 22.8313C95.2773 22.8294 95.7854 22.7199 96.2547 22.5097C96.724 22.2996 97.144 21.9933 97.4877 21.611C97.8315 21.2286 98.0913 20.7783 98.2504 20.2895C98.4096 19.8005 98.4646 19.2836 98.4117 18.7721C98.4493 18.268 98.386 17.7613 98.2256 17.2818C98.0652 16.8024 97.8109 16.3597 97.4774 15.9796C97.144 15.5995 96.7383 15.2896 96.2838 15.0681C95.8293 14.8466 95.3353 14.7178 94.8305 14.6892C94.3109 14.7019 93.7993 14.8197 93.3265 15.0354C92.8536 15.2512 92.4294 15.5607 92.0795 15.9449C91.7295 16.3291 91.4609 16.7803 91.29 17.2712C91.1193 17.762 91.0496 18.2824 91.0855 18.8009V18.7984ZM16.6798 15.9752L21.058 20.3469L2.59384 30.4515C2.46504 30.5244 2.3308 30.5871 2.1923 30.6391L16.6798 15.9752ZM0.258462 28.9643C0.247204 27.4607 0.129618 3.61407 0.122113 1.82532C0.0869357 1.50982 0.138187 1.19067 0.270385 0.902041C0.402586 0.613409 0.610755 0.366139 0.872634 0.186684L16.047 15.3447L0.93893 30.6354C0.696926 30.4342 0.508229 30.1764 0.389538 29.885C0.270859 29.5935 0.225836 29.2773 0.258462 28.9643ZM39.9111 22.232C38.9679 21.279 38.2219 20.1495 37.7155 18.9081C37.2091 17.6665 36.9523 16.3374 36.9596 14.9966C36.9671 13.6559 37.2386 12.3297 37.7587 11.094C38.2789 9.85817 39.0375 8.737 39.9911 7.79449C41.9053 5.82446 44.5166 4.68516 47.2627 4.62198C50.0089 4.55881 52.6699 5.57683 54.6726 7.45675L52.6862 9.51818C51.3128 8.19435 49.4777 7.45761 47.5701 7.46425C45.5591 7.46325 43.6299 8.2612 42.2071 9.68254C40.7845 11.1039 39.9845 13.0322 39.9836 15.0432C39.9827 17.0544 40.7806 18.9834 42.2019 20.4062C43.6233 21.8289 45.5516 22.6288 47.5626 22.6299C50.4659 22.6299 53.9822 21.1413 54.336 16.9496H47.5451V14.1138H57.113C57.2367 14.7314 57.2941 15.3605 57.2844 15.9901C57.3217 17.2605 57.0978 18.525 56.6263 19.7052C56.1549 20.8855 55.446 21.9562 54.5438 22.8512C52.6624 24.5924 50.1766 25.532 47.614 25.4705C46.1766 25.484 44.7517 25.2037 43.4265 24.6471C42.1014 24.0904 40.9039 23.2691 39.9073 22.2333L39.9111 22.232ZM109.847 23.6868C109.186 23.0478 108.666 22.2781 108.319 21.4267C107.972 20.5753 107.807 19.661 107.833 18.7421C107.786 17.8873 107.912 17.0318 108.203 16.2269C108.495 15.4221 108.947 14.6846 109.531 14.059C110.116 13.4333 110.82 12.9325 111.604 12.5866C112.387 12.2406 113.232 12.0568 114.088 12.0461C115.339 12.0457 116.557 12.4542 117.555 13.2095C118.495 13.9232 119.224 14.8786 119.662 15.9739L120.129 17.0684L111.141 20.7973C111.42 21.4272 111.884 21.9581 112.47 22.3205C113.056 22.6829 113.738 22.86 114.427 22.8287C115.087 22.84 115.739 22.6752 116.315 22.3513C116.891 22.0276 117.37 21.5564 117.704 20.9862L120.02 22.526C119.397 23.4386 118.559 24.1842 117.58 24.6973C116.601 25.2105 115.511 25.4756 114.405 25.4693C112.713 25.4822 111.08 24.8446 109.844 23.6881L109.847 23.6868ZM111.575 15.9151C111.246 16.2683 110.996 16.6875 110.841 17.1447C110.687 17.6019 110.632 18.0868 110.679 18.567L116.683 16.059C116.449 15.6084 116.091 15.2343 115.652 14.9804C115.212 14.7267 114.709 14.6039 114.202 14.6268C113.698 14.6462 113.204 14.7709 112.752 14.9927C112.299 15.2147 111.898 15.5289 111.575 15.9151ZM75.1919 23.4466C73.9742 22.1701 73.3013 20.4698 73.3156 18.7059C73.3127 17.8244 73.4858 16.9513 73.8245 16.1376C74.1632 15.3237 74.6607 14.5858 75.288 13.9665C75.9154 13.3474 76.6599 12.8595 77.478 12.5315C78.2961 12.2035 79.1715 12.0419 80.0527 12.0562C81.7315 12.0548 83.3546 12.6573 84.6259 13.7537C85.3321 14.3826 85.8913 15.1592 86.264 16.0285C86.6366 16.8977 86.8137 17.8381 86.7824 18.7834C86.7962 19.6644 86.6329 20.5393 86.302 21.356C85.9712 22.1726 85.4796 22.9145 84.8563 23.5374C84.2332 24.1605 83.4911 24.6518 82.6744 24.9823C81.8574 25.313 80.9826 25.476 80.1015 25.4617C79.1893 25.4756 78.2839 25.3042 77.44 24.9578C76.596 24.6114 75.8313 24.0973 75.1919 23.4466ZM80.0928 14.6905C79.5829 14.6854 79.0776 14.7857 78.6084 14.985C78.1392 15.1844 77.7162 15.4784 77.3659 15.8489C76.6426 16.6369 76.2499 17.6727 76.2688 18.7421C76.2309 19.2631 76.3007 19.7862 76.4736 20.2791C76.6467 20.772 76.9192 21.224 77.2745 21.607C77.6297 21.9899 78.06 22.2956 78.5385 22.5052C79.017 22.7147 79.5335 22.8235 80.0558 22.8248C80.5782 22.8261 81.0952 22.7198 81.5747 22.5126C82.0542 22.3056 82.486 22.002 82.8431 21.6207C83.2002 21.2395 83.475 20.7889 83.6506 20.2969C83.826 19.8049 83.8982 19.282 83.8629 18.7609C83.8953 18.2444 83.8227 17.7267 83.6497 17.2389C83.4767 16.7512 83.2067 16.3036 82.8562 15.9229C82.5055 15.5423 82.0814 15.2365 81.6096 15.0241C81.1377 14.8116 80.6277 14.6969 80.1103 14.6867L80.0928 14.6905ZM60.3765 23.4466C59.1591 22.1701 58.486 20.4698 58.5002 18.7059C58.4975 17.8241 58.6705 16.9508 59.0094 16.137C59.3482 15.323 59.8461 14.5848 60.4736 13.9656C61.1013 13.3465 61.846 12.8587 62.6644 12.5307C63.4828 12.2029 64.3585 12.0415 65.24 12.0562C66.9193 12.0553 68.5432 12.6577 69.8157 13.7537C70.5206 14.3835 71.0787 15.1603 71.4507 16.0294C71.8227 16.8984 71.9994 17.8386 71.9683 18.7834C71.979 19.6729 71.8105 20.5555 71.4729 21.3786C71.1353 22.2017 70.6355 22.9484 70.0033 23.5742C68.6962 24.8087 66.9598 25.486 65.1621 25.4627C63.3643 25.4393 61.6462 24.7171 60.3716 23.4491L60.3765 23.4466ZM65.2774 14.6905H65.2713C64.7619 14.6861 64.2571 14.7868 63.7884 14.9861C63.3197 15.1853 62.8971 15.479 62.5468 15.8489C61.8244 16.6373 61.4318 17.6728 61.4498 18.7421C61.4119 19.2631 61.4816 19.7862 61.6546 20.2791C61.8276 20.772 62.1002 21.224 62.4555 21.607C62.8107 21.9899 63.2409 22.2956 63.7194 22.5052C64.1979 22.7147 64.7144 22.8235 65.2368 22.8248C65.7591 22.8261 66.2761 22.7198 66.7556 22.5126C67.2351 22.3056 67.6669 22.002 68.0241 21.6207C68.3812 21.2395 68.656 20.7889 68.8314 20.2969C69.0069 19.8049 69.0792 19.282 69.0438 18.7609C69.076 18.2437 69.0031 17.7253 68.8295 17.2371C68.6559 16.7489 68.3851 16.3009 68.0336 15.9202C67.6821 15.5394 67.2571 15.2339 66.7843 15.0219C66.3115 14.8099 65.8005 14.6959 65.2824 14.6867L65.2774 14.6905ZM149.76 24.0108C149.339 23.4795 149.032 22.867 148.858 22.2116C148.684 21.5562 148.648 20.8721 148.75 20.2019C148.917 19.1075 149.46 18.1056 150.286 17.3689C151.112 16.6322 152.17 16.207 153.276 16.1666C153.538 16.1403 153.812 16.1266 154.089 16.1266C155.344 16.1559 156.591 16.3459 157.799 16.692C157.678 15.8631 157.248 15.1107 156.595 14.5864C155.942 14.0619 155.113 13.8046 154.278 13.8661C153.588 13.8511 152.905 14.021 152.303 14.3585C151.7 14.6959 151.199 15.1885 150.85 15.785L148.474 14.1927C149.123 13.2368 149.999 12.4564 151.023 11.9211C152.047 11.3857 153.187 11.112 154.343 11.1243C155.251 11.1085 156.152 11.2778 156.993 11.6219C157.833 11.966 158.594 12.4776 159.23 13.1257C159.818 13.776 160.264 14.542 160.537 15.3747C160.811 16.2074 160.907 17.0882 160.821 17.9603V25.0715H157.869V23.4754C157.214 24.3047 156.317 24.9077 155.303 25.1991C154.694 25.3638 154.067 25.448 153.436 25.4493C152.757 25.4764 152.08 25.3629 151.448 25.1158C150.816 24.8687 150.241 24.4932 149.76 24.0133V24.0108ZM151.823 20.711C151.816 20.9785 151.865 21.2444 151.964 21.4927C152.065 21.7409 152.214 21.9662 152.404 22.1547C152.594 22.3433 152.82 22.4912 153.069 22.5894C153.318 22.6877 153.584 22.7341 153.852 22.7261C154.106 22.7243 154.358 22.689 154.602 22.6211C155.394 22.4297 156.118 22.0238 156.694 21.4478C157.271 20.8718 157.678 20.1482 157.87 19.3563C157.072 19.0785 156.25 18.881 155.413 18.7671C155.111 18.7206 154.807 18.6964 154.502 18.6946C152.556 18.6983 151.842 19.7841 151.824 20.7135L151.823 20.711ZM145.784 25.069H142.832V5.30524H145.785V25.069H145.784ZM130.121 25.069H127.174V5.30524H130.125H134.32C135.99 5.30524 137.591 5.96841 138.771 7.14884C139.952 8.32925 140.615 9.93026 140.615 11.5996C140.615 13.269 139.952 14.87 138.771 16.0505C137.591 17.2309 135.99 17.8941 134.32 17.8941H130.125V25.0627L130.121 25.069ZM130.129 14.947H134.319C135.195 14.93 136.028 14.5705 136.64 13.9457C137.253 13.3209 137.597 12.4805 137.597 11.6053C137.597 10.73 137.253 9.88969 136.64 9.26484C136.028 8.63999 135.195 8.28048 134.319 8.26356H130.129V14.947ZM106.196 25.0715H103.243V5.30776H106.196V25.0715ZM17.3078 15.3409L21.8698 10.724L28.1516 14.1501C29.7002 14.9945 28.9021 16.0502 28.1516 16.4643L21.8748 19.9004L17.3078 15.3409ZM1.94964 0.00531006C2.17494 0.0322022 2.39334 0.100478 2.59384 0.206701L21.0542 10.2787L16.6762 14.7093L1.94964 0.00531006Z" fill="#6D72F6"/>
</svg>
