<svg width="373" height="341" viewBox="0 0 373 341" fill="none" xmlns="http://www.w3.org/2000/svg">
<mask id="mask0_1_524" style="mask-type:luminance" maskUnits="userSpaceOnUse" x="242" y="113" width="131" height="266">
<path d="M242.693 113.413H372.876V378.907H242.693V113.413Z" fill="white"/>
</mask>
<g mask="url(#mask0_1_524)">
<path d="M327.874 219.61C328.135 219.335 332.661 206.788 333.453 203.337C333.799 201.848 334.752 198.084 335.89 193.67C337.101 188.956 338.264 186.317 338.623 183.641C338.646 183.451 338.715 183.27 338.823 183.113C338.932 182.955 339.077 182.827 339.246 182.738C339.416 182.65 339.604 182.604 339.795 182.604C339.986 182.604 340.174 182.651 340.343 182.741C341.902 183.541 343.942 185.617 343.597 190.932C343.04 199.348 341.035 204.036 343.349 203.787C344.401 203.674 351.155 204.224 357.637 203.937C360.259 203.824 363.03 204.175 365.517 204.337C370.329 204.637 372.172 204.575 372.358 207.063C372.555 209.676 369.884 209.939 365.208 210.426C359.975 210.977 354.483 211.227 354.483 211.227C354.483 211.227 362.857 211.715 362.943 214.415C363.03 217.117 358.131 217.292 358.131 217.292C358.131 217.292 361.311 218.042 361.013 220.03C360.717 222.031 356.4 221.594 356.4 221.594C356.4 221.594 359.925 222.944 358.292 225.07C356.659 227.196 350.561 225.421 346.379 224.958C343.399 224.62 340.751 226.208 340.751 226.208L327.874 219.61Z" fill="#FFCBB6"/>
<path d="M349.305 225.356C349.305 225.356 347.845 224.706 347.623 222.605C347.388 220.504 350.864 220.742 350.864 220.742C350.864 220.742 348.526 219.954 348.365 218.078C348.204 216.215 351.211 215.839 351.211 215.839C351.211 215.839 349.269 215.14 349.219 213.464C349.169 211.776 351.681 211.351 351.681 211.351C351.681 211.351 345.235 207.149 343.8 216.565C343.306 219.792 342.873 224.343 349.305 225.356Z" fill="#EDB3A2"/>
<path d="M337.608 188.193C337.608 188.193 338.931 189.03 339.76 187.83C340.589 186.629 340.713 183.015 340.713 183.015C340.713 183.015 340.379 182.453 339.328 182.678C338.09 182.941 337.608 188.193 337.608 188.193Z" fill="#FFECE6"/>
<path d="M208.457 314.263C209.317 311.622 214.39 299.449 220.629 283.125L258.373 286.39L270.619 286.811L238.676 394.193C227.043 391.262 225.368 378.907 233.051 357.989L236.812 317.571L225.368 339.756C223.895 338.87 207.071 324.68 203.456 320.008" fill="#FB804A"/>
<path d="M268.082 189.324L266.886 298.84L217.947 292.065L247.351 180.734L268.082 189.324Z" fill="white"/>
<path d="M281.612 136.797C281.612 136.797 299.266 147.737 288.026 161.42C276.787 175.102 276.262 138.437 276.262 138.437" fill="#543732"/>
<path d="M285.054 211.26C289.806 222.013 304.151 253.164 304.151 253.164L325.819 216.846L349.013 229.702C349.013 229.702 319.634 286.289 300.113 283.866C280.593 281.443 281.671 246.606 281.671 246.606L290.462 309.039L265.023 305.732L268.084 189.323C268.084 189.323 279.208 198.057 285.054 211.26Z" fill="#5A66FF"/>
<path d="M280.402 133.2C280.402 133.2 298.785 175.175 277.822 177.86C253.227 181.008 243.474 145.272 243.474 145.272" fill="#FFCBB6"/>
<path d="M273.594 171.301L268.084 189.322C268.084 189.322 261.67 194.022 257.048 192.891C252.426 191.76 247.354 180.718 247.354 180.718L254.409 155.704L273.594 171.301Z" fill="#FFCBB6"/>
<path d="M271.85 177.018L270.318 181.734C270.318 181.734 258.831 179.979 255.303 167.036C255.303 167.036 262.811 176.555 271.85 177.018Z" fill="#DDA692"/>
<path d="M262.851 139.295C263.07 139.629 264.805 149.596 260.475 154.138C260.475 154.138 261.233 176.729 249.425 174.509C237.616 172.289 239.57 144.286 240.648 141.964C241.727 139.643 265.125 125.583 273.785 127.905C282.445 130.227 289.486 141.631 285.258 144.62C279.529 148.668 262.851 139.295 262.851 139.295Z" fill="#724D44"/>
<path d="M239.758 125.727C239.7 123.232 241.128 120.939 243.359 119.938L255.692 114.41C256.013 114.266 256.348 114.163 256.683 114.092C257.631 117.632 260.124 127.498 261.421 132.678L240.122 142.413L239.758 125.727Z" fill="#BFB2AF"/>
<path d="M257.543 113.961L265.883 113.424C266.866 113.361 267.847 113.569 268.72 114.024C269.594 114.479 270.327 115.165 270.839 116.007C273.055 119.605 276.627 125.409 276.714 125.685L261.421 132.678C260.124 127.498 257.645 117.632 256.683 114.091C256.974 114.033 257.252 113.975 257.543 113.961Z" fill="#FB804A"/>
<path d="M279.407 130.545L297.558 124.524C301.655 123.16 301.683 117.241 297.602 115.848C296.506 115.47 295.305 115.543 294.263 116.051L240.483 142.196L279.407 130.545Z" fill="#BFB2AF"/>
<path d="M276.732 151.961C277.84 152.846 279.108 153.47 280.275 154.268C281.193 154.892 282.097 155.72 282.301 156.822C282.534 158.128 281.674 159.404 280.669 160.261C279.541 161.23 278.187 161.899 276.732 162.205C277.475 161.407 278.234 160.565 278.598 159.521C279.006 158.317 278.802 156.895 278.044 155.879C277.097 154.587 275.61 153.63 274.72 152.295C274.356 151.758 273.321 150.017 274.414 149.727C274.968 149.581 275.099 150.205 275.376 150.583C275.77 151.091 276.222 151.555 276.732 151.961Z" fill="#EDB3A2"/>
<path d="M270.971 145.2C271.205 145.388 271.92 146.317 270.695 146.36C269.471 146.404 266.001 147.173 265.84 146.1C265.695 145.011 269.777 144.184 270.971 145.2Z" fill="#4C3F3B"/>
<path d="M281.134 149.713C281.136 149.228 280.988 148.755 280.712 148.358C280.435 147.961 280.043 147.659 279.588 147.493C279.822 147.42 280.069 147.362 280.347 147.362C281.688 147.362 282.767 148.465 282.767 149.843C282.767 151.222 281.688 152.325 280.347 152.325C279.938 152.325 279.574 152.208 279.238 152.034C279.775 151.929 280.259 151.64 280.605 151.216C280.951 150.792 281.138 150.26 281.134 149.713Z" fill="white"/>
<path d="M277.924 149.843C277.924 148.74 278.623 147.826 279.6 147.508C280.054 147.674 280.446 147.976 280.723 148.374C280.999 148.771 281.147 149.243 281.146 149.727C281.15 150.275 280.962 150.807 280.616 151.23C280.27 151.654 279.787 151.944 279.25 152.049C278.463 151.613 277.924 150.801 277.924 149.843Z" fill="#4C3F3B"/>
<path d="M270.574 149.714C270.576 149.229 270.429 148.756 270.152 148.359C269.875 147.961 269.483 147.659 269.028 147.494C269.262 147.421 269.509 147.362 269.787 147.362C271.127 147.362 272.207 148.466 272.207 149.844C272.207 151.222 271.127 152.325 269.787 152.325C269.378 152.325 269.014 152.209 268.678 152.035C269.215 151.93 269.698 151.64 270.044 151.217C270.39 150.793 270.578 150.261 270.574 149.714Z" fill="white"/>
<path d="M267.371 149.843C267.371 148.74 268.071 147.826 269.048 147.507C269.502 147.673 269.894 147.976 270.17 148.373C270.447 148.77 270.595 149.242 270.594 149.727C270.598 150.274 270.41 150.806 270.064 151.229C269.718 151.653 269.235 151.943 268.698 152.048C267.911 151.613 267.371 150.8 267.371 149.843Z" fill="#4C3F3B"/>
<path d="M276.458 164.511C276.866 164.642 277.274 164.801 277.61 165.077C277.944 165.353 278.207 165.745 278.237 166.179C278.294 166.964 277.653 167.616 276.967 167.965C275.977 168.472 274.825 168.588 273.703 168.516C272.165 168.4 270.673 167.934 269.343 167.152C268.498 166.644 267.696 165.976 267.317 165.063C266.938 164.149 267.083 162.93 267.885 162.35C268.454 161.914 269.256 161.885 269.927 162.103C270.947 162.422 271.792 163.176 272.813 163.554C273.994 163.988 275.262 164.134 276.458 164.511Z" fill="white"/>
<path d="M278.203 166.659L267.4 162.901C267.4 162.901 267.284 163.133 267.254 163.22C267.225 163.307 267.153 163.611 267.153 163.611L277.824 167.326C277.824 167.326 278.028 167.094 278.072 167.007C278.115 166.92 278.203 166.659 278.203 166.659Z" fill="#EAE3E1"/>
<path d="M273.567 163.785L273.174 165.004L272.533 164.744L272.809 163.539L273.567 163.785ZM274.5 166.15L273.551 168.5L272.749 168.413L273.698 165.903L274.5 166.15ZM271.465 165.034C271.437 165.107 270.517 167.791 270.517 167.791L269.657 167.356L270.692 164.758L271.465 165.034Z" fill="#EAE3E1"/>
<path d="M304.156 253.164L296.27 263.364L300.352 244.574L304.156 253.164Z" fill="#4455D3"/>
<path d="M268.082 189.323L254.772 297.273L265.195 298.709L268.082 189.323Z" fill="#E4E7F4"/>
<path d="M180.964 229.687C190.805 213.771 202.759 195.75 209.567 190.207C222.586 179.615 247.355 180.733 247.355 180.733C249.148 204.107 232.733 251.437 220.632 283.125L204.362 281.718L192.451 304.919C178.559 289.364 172.319 271.097 166.167 254.165C166.561 253.482 167.8 251.669 168.281 250.842L180.964 229.687Z" fill="#5A66FF"/>
</g>
<mask id="mask1_1_524" style="mask-type:luminance" maskUnits="userSpaceOnUse" x="0" y="0" width="245" height="507">
<path d="M0.00439453 0.77832H244.299V506.996H0.00439453V0.77832Z" fill="white"/>
</mask>
<g mask="url(#mask1_1_524)">
<g filter="url(#filter0_d_1_524)">
<path fill-rule="evenodd" clip-rule="evenodd" d="M36.3756 0.77832H207.928C227.346 0.77832 243.087 16.5018 243.087 35.899V111.693C243.794 111.941 244.299 112.615 244.299 113.406V163.664C244.299 164.455 243.794 165.128 243.087 165.378V471.875C243.087 491.271 227.346 506.996 207.928 506.996H36.3756C16.9581 506.996 1.21693 491.271 1.21693 471.875V173.249C0.862617 173.124 0.555729 172.892 0.338564 172.585C0.121398 172.279 0.00464498 171.912 0.00439453 171.536L0.00439453 142.471C0.00439453 141.68 0.511276 141.007 1.21693 140.757V129.651C0.862615 129.526 0.555677 129.295 0.338485 128.988C0.121294 128.681 0.00455946 128.314 0.00439453 127.938L0.00439453 98.8736C0.00439453 98.0825 0.511276 97.4089 1.21693 97.1601V82.4207C0.862617 82.2957 0.555729 82.0639 0.338564 81.757C0.121398 81.4501 0.00464498 81.0833 0.00439453 80.7073L0.00439453 65.5688C0.00439453 64.7788 0.511276 64.1061 1.21693 63.8564V35.899C1.21693 16.5018 16.9581 0.77832 36.3756 0.77832Z" fill="#121212"/>
<mask id="mask2_1_524" style="mask-type:alpha" maskUnits="userSpaceOnUse" x="8" y="8" width="228" height="492">
<path fill-rule="evenodd" clip-rule="evenodd" d="M8.52895 34.4342C8.5041 34.9188 8.49118 35.4073 8.49118 35.8989V471.875C8.49118 487.258 20.9754 499.729 36.3756 499.729H207.928C223.328 499.729 235.813 487.258 235.813 471.875V35.7188C235.715 20.4182 223.268 8.04496 207.928 8.04496H170.754C169.706 8.41278 168.799 9.0971 168.157 10.0034C167.514 10.9098 167.169 11.9934 167.168 13.1047C167.168 20.5097 161.158 26.5128 153.745 26.5128H89.953C82.5396 26.5128 76.5306 20.5097 76.5306 13.1047C76.5297 11.9933 76.1841 10.9096 75.5416 10.0032C74.8991 9.09687 73.9913 8.41262 72.9437 8.04496H36.3756C29.7029 8.03399 23.2486 10.4252 18.1905 14.7823C16.3067 16.4024 14.6466 18.2662 13.2539 20.3246C10.4211 24.5074 8.78699 29.3872 8.52895 34.4342Z" fill="#F1F1F1"/>
</mask>
<g mask="url(#mask2_1_524)">
<path d="M8.49219 8.04492H235.814V499.73H8.49219V8.04492Z" fill="white"/>
</g>
</g>
</g>
<path d="M72.7479 106.738H143.431V111.588H134.026V120.863H138.588V116.154H143.431V121.004H138.728V130.279H143.431V144.404H147.992V134.987H152.836V139.696H157.399V130.42H152.696V125.713H147.992V116.154H157.399V111.588H147.992V106.738H157.539V111.447H166.804V106.738H171.648V111.588H166.944V116.154H171.648V121.004H157.539V125.571H162.243V130.279H171.648V144.404H185.757V149.253H181.054V153.82H190.459V158.67H185.757V163.377H181.054V168.086H176.349V182.069H181.054V186.778H185.614V182.069H190.459V186.919H185.757V191.486H195.162V196.335H190.459V200.902H199.865V210.459H195.022V205.752H185.757V210.459H180.912V205.752H171.506V201.043H166.944V205.752H162.243V210.318H166.944V215.168H157.539V229.292H152.836V234.001H148.135V238.568H157.399V233.86H162.101V229.151H166.944V233.86H176.209V229.151H199.865V233.86H204.427V229.151H209.27V234.001H204.567V238.709H195.162V243.417H190.459V247.984H195.162V252.834H190.459V266.958H185.614V262.25H181.054V266.958H176.349V276.374H162.243V281.083H157.399V276.233H162.101V271.667H157.399V266.958H152.836V276.374H147.992V257.401H162.101V252.834H143.431V262.25H138.728V271.526H143.431V281.083H133.884V276.374H129.183V271.526H133.884V266.958H124.621V276.374H119.778V266.817H124.479V257.542H119.918V262.25H115.215V271.667H110.37V257.542H101.105V262.25H86.8571V257.401H91.5601V252.693H96.2622V243.417H91.7003V248.125H86.9972V252.834H82.2951V257.542H77.5921V266.817H86.9972V271.526H96.4043V276.374H91.7003V281.083H82.153V276.233H86.8571V271.667H72.7479V257.401H77.4519V248.125H72.7479V243.417H63.3427V238.709H58.7798V243.417H53.9366V238.709H49.2345V234.001H44.5314V229.151H53.9366V224.444H58.6397V219.876H53.9366V215.168H49.3747V224.585H44.5314V215.168H39.9705V219.876H35.1263V215.027H39.8274V210.459H35.1263V200.902H44.5314V191.486H49.2345V182.21H44.5314V177.362H53.9366V172.794H44.5314V163.236H49.3747V167.945H54.0787V172.653H58.7798V182.069H68.1869V186.919H63.4838V191.486H68.1869V196.194H82.2951V200.902H86.9972V205.611H91.7003V215.168H86.8571V210.459H82.153V201.043H77.5921V205.752H72.7479V201.043H68.1869V205.752H58.7798V219.735H68.0448V215.168H63.3427V210.318H68.1869V215.027H72.7479V210.318H77.5921V215.027H82.2951V219.876H68.1869V224.585H58.7798V233.86H63.3427V229.151H72.7479V224.444H82.2951V234.001H72.889V243.276H77.4519V238.568H82.2951V243.276H91.5601V238.568H96.2622V233.86H105.668V229.151H110.37V224.444H119.918V229.151H129.183V224.444H134.026V229.292H129.323V233.86H134.026V247.984H138.728V252.693H143.291V247.984H147.992V243.417H138.588V238.568H143.291V234.001H138.588V229.151H152.696V215.027H157.399V210.459H152.696V200.902H162.101V191.486H166.804V186.919H157.539V191.627H152.696V182.069H157.399V177.362H171.506V172.794H152.696V163.236H157.399V158.67H148.135V163.377H143.291V158.529H147.992V153.82H152.696V149.112H157.539V153.82H162.101V149.112H171.506V144.546H166.804V135.129H162.243V139.837H157.539V144.546H148.135V149.253H143.291V144.546H138.588V135.129H134.026V149.112H138.728V163.377H129.183V153.962H124.621V163.377H119.778V158.67H115.215V163.377H96.2622V153.82H105.668V149.253H100.965V144.404H105.668V139.837H100.965V130.279H105.809V139.696H110.37V134.987H115.215V139.837H110.513V144.404H115.215V149.253H110.513V153.962H105.809V158.529H115.073V153.82H124.479V149.112H129.183V144.546H119.778V130.279H124.479V121.004H110.37V111.588H105.809V116.296H100.965V111.588H96.4043V116.296H86.9972V125.571H96.2622V120.863H105.809V125.713H96.4043V130.42H91.7003V134.987H96.4043V139.837H91.7003V144.546H86.8571V139.837H82.2951V144.546H77.5921V149.112H86.9972V158.67H82.2951V168.086H77.5921V172.653H86.8571V167.945H91.7003V177.503H82.2951V186.919H72.7479V182.069H77.4519V177.503H63.3427V172.653H72.7479V167.945H77.4519V163.377H68.1869V168.086H58.6397V163.377H53.9366V158.67H44.5314V153.82H49.2345V149.253H44.5314V144.404H58.7798V149.112H63.3427V144.404H68.1869V149.112H72.7479V130.279H82.153V125.713H77.4519V121.004H72.7479V106.738ZM138.588 271.667H134.026V276.233H138.588V271.667ZM171.506 266.958H166.944V271.526H171.506V266.958ZM176.209 262.25H171.648V266.817H176.209V262.25ZM162.101 262.25H157.539V266.817H162.101V262.25ZM133.884 257.401H138.588V252.834H133.884V248.125H129.323V262.109H133.884V257.401ZM185.614 243.417H171.648V257.401H185.614V243.417ZM115.073 252.834H110.513V257.401H115.073V252.834ZM100.965 252.834H96.4043V257.401H100.965V252.834ZM162.101 243.417H157.539V247.984H162.101V243.417ZM190.318 234.001H185.757V238.568H190.318V234.001ZM180.912 234.001H176.349V238.568H180.912V234.001ZM166.804 234.001H162.243V238.568H166.804V234.001ZM185.614 191.627H180.912V186.919H171.648V191.486H176.349V196.194H185.614V191.627ZM171.506 182.21H166.944V186.778H171.506V182.21ZM171.506 163.377H166.944V167.945H171.506V163.377ZM176.209 149.253H171.648V153.962H166.944V158.529H171.648V163.236H176.209V149.253ZM166.804 158.67H162.243V163.236H166.804V158.67ZM68.0448 158.67H63.4838V163.236H68.0448V158.67ZM63.3427 153.962H54.0787V158.529H63.3427V153.962ZM133.884 149.253H129.323V153.82H133.884V149.253ZM68.0448 149.253H63.4838V153.82H68.0448V149.253ZM129.183 135.129H124.621V139.696H129.183V135.129ZM91.5601 135.129H86.9972V139.696H91.5601V135.129ZM82.153 135.129H77.5921V139.696H82.153V135.129ZM133.884 130.42H129.323V134.987H133.884V130.42ZM86.8571 130.42H82.2951V134.987H86.8571V130.42ZM129.183 111.588H124.621V120.863H129.183V111.588ZM195.022 149.253V144.404H209.27V149.253H195.022ZM199.723 153.82H209.27V158.67H199.865V163.236H204.567V168.086H199.865V172.653H209.27V186.919H195.022V182.069H199.723V172.794H195.162V177.503H190.318V163.236H195.022V158.529H199.723V153.82ZM124.479 248.125H115.215V252.693H124.479V248.125ZM105.668 243.417H101.105V247.984H105.668V243.417ZM82.153 243.417H77.5921V247.984H82.153V243.417ZM124.479 238.709H119.918V243.276H124.479V238.709ZM115.073 233.86H119.778V229.292H110.513V234.001H105.809V238.568H110.513V243.276H115.073V233.86ZM100.965 238.709H96.4043V243.276H100.965V238.709ZM68.0448 234.001H63.4838V238.568H68.0448V234.001ZM49.2345 205.752H44.6716V210.318H49.2345V205.752ZM68.0448 196.335H63.4838V200.902H68.0448V196.335ZM58.6397 196.194H63.3427V191.627H49.3747V196.194H54.0787V200.902H58.6397V196.194ZM58.6397 182.21H54.0787V186.778H58.6397V182.21ZM35.1263 172.653H39.9705V186.919H35.1263V172.653ZM91.7003 186.919H86.8571V182.069H91.7003V186.919ZM39.9705 196.335H35.1263V191.486H39.9705V196.335ZM91.7003 196.335H86.8571V191.486H91.7003V196.335ZM199.723 196.335V191.486H209.27V201.043H204.427V196.335H199.723ZM171.506 215.168V210.318H176.349V215.027H185.757V219.876H181.054V224.585H171.506V219.735H176.209V215.168H171.506ZM199.723 215.027H204.427V210.318H209.27V224.585H204.427V219.876H199.865V224.585H190.318V219.735H199.723V215.027ZM35.1263 224.444H39.9705V243.417H35.1263V224.444ZM86.8571 229.292V224.444H101.105V229.292H86.8571ZM199.723 243.276H204.567V247.984H209.27V252.834H204.567V262.109H209.27V281.083H190.318V271.526H195.022V257.401H199.723V243.276ZM204.427 266.958H199.865V271.667H195.162V276.233H204.427V266.958ZM181.054 252.834H176.209V247.984H181.054V252.834ZM100.965 266.817H105.809V276.233H115.215V281.083H105.668V276.374H100.965V266.817ZM180.912 271.526H185.757V281.083H180.912V271.526ZM68.0458 106.738V139.696H35.1263V106.738H68.0458ZM63.3427 111.447H39.8294V134.987H63.3427V111.447ZM209.129 106.738V139.696H176.209V106.738H209.129ZM204.426 111.447H180.912V134.987H204.426V111.447ZM68.0458 247.984V280.942H35.1263V247.984H68.0458ZM63.3427 252.693H39.8294V276.233H63.3427V252.693ZM58.6397 130.279H44.5314V116.154H58.6397V130.279ZM199.723 130.279H185.614V116.154H199.723V130.279ZM58.6397 271.526H44.5314V257.401H58.6397V271.526Z" fill="black"/>
<defs>
<filter id="filter0_d_1_524" x="-12.8609" y="-12.087" width="308.621" height="570.543" filterUnits="userSpaceOnUse" color-interpolation-filters="sRGB">
<feFlood flood-opacity="0" result="BackgroundImageFix"/>
<feColorMatrix in="SourceAlpha" type="matrix" values="0 0 0 0 0 0 0 0 0 0 0 0 0 0 0 0 0 0 127 0" result="hardAlpha"/>
<feOffset dx="19.2975" dy="19.2975"/>
<feGaussianBlur stdDeviation="16.0814"/>
<feColorMatrix type="matrix" values="0 0 0 0 0.604167 0 0 0 0 0.593644 0 0 0 0 0.556337 0 0 0 0.15 0"/>
<feBlend mode="multiply" in2="BackgroundImageFix" result="effect1_dropShadow_1_524"/>
<feBlend mode="normal" in="SourceGraphic" in2="effect1_dropShadow_1_524" result="shape"/>
</filter>
</defs>
</svg>
