<svg width="1440" height="376" viewBox="0 0 1440 376" fill="none" xmlns="http://www.w3.org/2000/svg">
<path d="M1543.43 102.43V466.933H-317.933V143.662C-305.712 162.865 -302.197 186.002 -298.99 208.217C-298.928 208.641 -298.867 209.065 -298.806 209.489C-295.659 231.31 -292.652 252.153 -281.763 267.344C-270.657 282.839 -251.36 292.442 -215.404 291.246C-179.451 290.05 -126.827 278.057 -49.047 250.348C160.233 206.707 303.37 179.995 437.809 170.014C572.249 160.034 697.994 166.783 872.491 190.067C959.738 201.708 1034.14 217.511 1098.87 231.751C1104.66 233.025 1110.37 234.286 1116.01 235.531C1173.38 248.199 1222.96 259.147 1267.13 264.051C1315.64 269.436 1357.62 267.531 1396.23 252.604C1434.83 237.676 1470.06 209.728 1505.05 163.04C1522.32 140.004 1534.73 119.898 1543.43 102.43ZM1543.57 101.859V5.00009V4.97066L1543.55 4.95074C1542.54 4.02988 1541.86 3.23267 1541.43 2.57091C1541.01 1.90675 1540.85 1.38892 1540.91 1.02315C1540.93 0.842362 1541.01 0.698126 1541.12 0.588407C1541.24 0.477989 1541.41 0.399092 1541.62 0.35679C1542.05 0.271888 1542.65 0.337035 1543.39 0.572715C1546.32 1.51501 1551.27 5.14602 1555.23 12.2294C1563.15 26.3643 1567.17 54.2436 1543.57 101.859Z" fill="#6D72F6" fill-opacity="0.25" stroke="white" stroke-width="0.134127"/>
</svg>
