<svg width="222" height="222" viewBox="0 0 222 222" fill="none" xmlns="http://www.w3.org/2000/svg">
<path d="M110.898 221.126C171.749 221.126 221.078 171.796 221.078 110.946C221.078 50.0949 171.749 0.765533 110.898 0.765533C50.0471 0.765533 0.717773 50.0949 0.717773 110.946C0.717773 171.796 50.0471 221.126 110.898 221.126Z" fill="url(#paint0_linear_168_922)"/>
<path d="M77.5263 15.85H29.6785C25.9022 15.85 22.8408 18.9113 22.8408 22.6877V35.5381C22.8408 39.3144 25.9022 42.3757 29.6785 42.3757H77.5263C81.3027 42.3757 84.364 39.3144 84.364 35.5381V22.6877C84.364 18.9113 81.3027 15.85 77.5263 15.85Z" fill="#FFFEFF"/>
<path d="M41.261 28.7797C41.261 29.2943 41.1085 29.7974 40.8226 30.2252C40.5367 30.6531 40.1304 30.9866 39.655 31.1835C39.1796 31.3804 38.6563 31.4319 38.1516 31.3316C37.6469 31.2312 37.1835 30.9834 36.8196 30.6195C36.4557 30.2556 36.2079 29.792 36.1075 29.2873C36.0071 28.7826 36.0585 28.2595 36.2555 27.7841C36.4524 27.3087 36.7858 26.9023 37.2137 26.6164C37.6416 26.3305 38.1446 26.1779 38.6592 26.1779C39.0014 26.1758 39.3409 26.2417 39.6575 26.3717C39.9741 26.5017 40.2618 26.6933 40.5038 26.9353C40.7458 27.1773 40.9373 27.465 41.0674 27.7816C41.1974 28.0982 41.2631 28.4375 41.261 28.7797Z" fill="#0C0A0B"/>
<path d="M56.1908 28.7797C56.1908 29.295 56.0378 29.7987 55.7512 30.2269C55.4646 30.6551 55.0573 30.9885 54.5809 31.185C54.1046 31.3814 53.5807 31.432 53.0756 31.3303C52.5705 31.2286 52.1068 30.9793 51.7436 30.6138C51.3804 30.2483 51.134 29.7833 51.0354 29.2775C50.9368 28.7718 50.9906 28.2482 51.1899 27.773C51.3893 27.2979 51.7252 26.8927 52.1551 26.6087C52.5851 26.3247 53.0896 26.1748 53.6049 26.1779C53.9458 26.1779 54.2834 26.2453 54.5982 26.3763C54.9129 26.5072 55.1987 26.6991 55.439 26.9409C55.6794 27.1827 55.8695 27.4697 55.9985 27.7853C56.1275 28.1008 56.1929 28.4388 56.1908 28.7797Z" fill="#0C0A0B"/>
<path d="M71.1343 28.7797C71.1343 29.2943 70.9818 29.7974 70.6959 30.2252C70.41 30.6531 70.0035 30.9866 69.5281 31.1835C69.0527 31.3804 68.5296 31.4319 68.0249 31.3316C67.5202 31.2312 67.0566 30.9834 66.6927 30.6195C66.3289 30.2556 66.081 29.792 65.9806 29.2873C65.8802 28.7826 65.9319 28.2595 66.1288 27.7841C66.3257 27.3087 66.6592 26.9023 67.087 26.6164C67.5149 26.3305 68.0179 26.1779 68.5325 26.1779C68.8748 26.1758 69.214 26.2417 69.5306 26.3717C69.8472 26.5017 70.1349 26.6933 70.3769 26.9353C70.6189 27.1773 70.8105 27.465 70.9405 27.7816C71.0705 28.0982 71.1364 28.4375 71.1343 28.7797Z" fill="#0C0A0B"/>
<path d="M59.0613 38.6314C59.0613 38.6314 60.1241 55.5749 76.8138 55.2893C74.1044 53.4773 71.9199 50.9838 70.4801 48.0597C69.0403 45.1355 68.3959 41.8837 68.6116 38.6314H59.0613Z" fill="#FFFEFF"/>
<path d="M106.021 103.661C106.021 103.661 89.9337 103.28 80.9543 104.74C71.9749 106.199 49.0187 146.638 49.0187 146.638L76.766 169.372L77.0516 214.603L150.806 211.35L144.461 147.543L155.28 157.981L177.491 136.025C177.491 136.025 149.823 107.183 144.54 105.406C139.257 103.629 127.39 104.042 127.39 104.042L106.021 103.661Z" fill="#677AE3"/>
<path d="M170.936 129.425L148.504 151.477" stroke="#0C0A0B" stroke-width="0.793234" stroke-miterlimit="10"/>
<path d="M98.0397 78.5632C98.0356 79.6576 98.1205 80.7506 98.2936 81.8313C98.2936 82.3389 98.4839 82.8625 98.6108 83.4177C99.0341 85.761 100.108 87.9379 101.71 89.6996C103.312 91.4614 105.377 92.7371 107.669 93.3807C113.048 94.8244 119.076 92.3813 123.09 88.082C130.356 80.2924 135.115 64.1898 126.422 57.0189C125.478 56.2316 124.404 55.6143 123.249 55.1945C118.029 53.2114 111.62 55.3055 106.956 59.2082C102.315 63.2256 99.2468 68.7558 98.2936 74.8191C98.1101 76.0584 98.0251 77.3104 98.0397 78.5632Z" fill="#F46C80"/>
<path d="M104.196 75.152C104.131 75.456 103.955 75.7249 103.703 75.9067C103.451 76.0884 103.14 76.1701 102.831 76.1356C102.686 76.1151 102.546 76.0647 102.421 75.9876C102.297 75.9105 102.189 75.8083 102.106 75.6876C102.022 75.5669 101.965 75.4302 101.937 75.2862C101.909 75.1421 101.911 74.9938 101.943 74.8506C102.004 74.5479 102.177 74.2792 102.426 74.0972C102.676 73.9152 102.984 73.8331 103.291 73.867C103.437 73.8878 103.577 73.9382 103.703 74.0151C103.828 74.092 103.936 74.1937 104.021 74.3141C104.106 74.4345 104.165 74.5709 104.195 74.715C104.225 74.8591 104.225 75.0079 104.196 75.152Z" fill="#0C0A0B"/>
<path d="M111.014 76.0882C110.952 76.3939 110.778 76.6651 110.525 76.8474C110.272 77.0298 109.959 77.1099 109.649 77.0718C109.504 77.0513 109.365 77.0009 109.24 76.9237C109.115 76.8466 109.007 76.7445 108.924 76.6238C108.841 76.5031 108.783 76.3664 108.755 76.2223C108.727 76.0783 108.729 75.93 108.761 75.7868C108.823 75.4841 108.995 75.2154 109.244 75.0334C109.494 74.8514 109.803 74.7693 110.11 74.8032C110.255 74.824 110.395 74.8744 110.521 74.9513C110.646 75.0282 110.755 75.1299 110.839 75.2503C110.924 75.3707 110.983 75.5071 111.013 75.6512C111.043 75.7953 111.044 75.944 111.014 76.0882Z" fill="#0C0A0B"/>
<path d="M127.674 77.7382L127.118 105.406C127.07 107.922 126.119 110.336 124.439 112.209C122.758 114.082 120.461 115.288 117.965 115.607C116.61 115.805 115.229 115.69 113.926 115.27C112.623 114.85 111.434 114.136 110.45 113.185C109.467 112.233 108.714 111.069 108.251 109.78C107.788 108.492 107.627 107.115 107.779 105.755L109.969 79.8799L127.674 77.7382Z" fill="#F46C80"/>
<path d="M108.003 104.026L108.733 93.5394C111.395 93.8614 114.095 93.5266 116.598 92.5642C119.101 91.6018 121.33 90.0411 123.09 88.0185C123.09 88.0185 123.503 103.106 108.003 104.026Z" fill="#EA5471"/>
<path d="M125.708 83.0366C126.557 83.6909 127.565 84.1052 128.628 84.2364C129.692 84.3676 130.771 84.2107 131.752 83.7823C132.753 83.2932 133.627 82.5812 134.31 81.7011C134.992 80.821 135.463 79.7962 135.687 78.7055C135.924 77.7883 135.901 76.8233 135.62 75.9184C135.34 75.0135 134.814 74.2043 134.1 73.5812C133.274 73.0704 132.287 72.8849 131.331 73.0608C130.375 73.2367 129.519 73.7614 128.929 74.5331L125.708 83.0366Z" fill="#F46C80"/>
<path d="M115.298 71.7411C115.367 71.7469 115.436 71.7387 115.501 71.7169C115.567 71.695 115.627 71.6601 115.679 71.6142C115.767 71.5225 115.816 71.4003 115.816 71.2731C115.816 71.1459 115.767 71.0236 115.679 70.932C115.225 70.481 114.661 70.1571 114.043 69.9928C113.425 69.8286 112.774 69.8296 112.157 69.996C112.033 70.0297 111.927 70.1089 111.859 70.2178C111.791 70.3267 111.767 70.4571 111.792 70.583C111.805 70.6423 111.83 70.6983 111.865 70.7476C111.9 70.7969 111.945 70.8384 111.997 70.8696C112.049 70.9009 112.107 70.9211 112.167 70.9291C112.228 70.9371 112.289 70.9327 112.347 70.9161C112.806 70.7929 113.29 70.7925 113.749 70.915C114.209 71.0375 114.628 71.2786 114.965 71.6142C115.008 71.658 115.06 71.692 115.117 71.7139C115.175 71.7358 115.237 71.7451 115.298 71.7411Z" fill="#000302"/>
<path d="M105.449 70.0278C105.54 70.0315 105.63 70.0115 105.711 69.9697C105.791 69.928 105.86 69.866 105.909 69.7899C105.977 69.6862 106.001 69.5603 105.978 69.4389C105.954 69.3175 105.884 69.2101 105.782 69.1394C104.96 68.6566 103.991 68.4876 103.054 68.6635C102.929 68.6901 102.819 68.7611 102.743 68.8633C102.667 68.9655 102.631 69.0918 102.641 69.2187C102.649 69.2789 102.669 69.3369 102.699 69.3891C102.73 69.4413 102.771 69.4867 102.821 69.5223C102.87 69.558 102.926 69.5832 102.985 69.5965C103.044 69.6098 103.105 69.6108 103.165 69.5995C103.879 69.4593 104.619 69.5893 105.243 69.9644C105.306 70.0022 105.376 70.024 105.449 70.0278Z" fill="#000302"/>
<path d="M110.636 82.7193C110.303 83.925 111.509 85.21 113.333 85.5749C115.158 85.9398 116.871 85.2576 117.188 83.9884C117.506 82.7193 116.3 81.5136 114.491 81.1487C112.683 80.7838 110.954 81.4818 110.636 82.7193Z" fill="#EA5471"/>
<path d="M102.608 85.0039C105.194 86.6697 107.019 85.0039 108.954 83.5285C108.32 86.5269 104.02 88.3831 102.608 85.0039Z" fill="#0C0A0B"/>
<path d="M98.0382 78.5631C98.0341 79.6576 98.1191 80.7506 98.2921 81.8313C98.2921 82.3389 98.4824 82.8625 98.6093 83.4177C100.053 82.9418 101.068 81.9423 101.068 80.8635C101.068 79.7847 99.7675 78.6901 98.0382 78.5631Z" fill="#EA5471"/>
<path d="M128.546 81.133C131.053 80.4032 133.131 77.9601 130.244 75.9453C130.662 75.9367 131.075 76.0336 131.446 76.2269C131.817 76.4203 132.133 76.7039 132.365 77.0517C132.598 77.3994 132.739 77.8 132.775 78.2166C132.812 78.6333 132.743 79.0524 132.576 79.4355C132.216 80.1522 131.613 80.7172 130.874 81.0284C130.135 81.3396 129.31 81.3767 128.546 81.133Z" fill="#0C0A0B"/>
<path d="M104.432 81.1327C103.449 80.7203 102.243 79.7049 102.957 78.4357C102.957 78.293 103.417 78.1502 103.544 78.1661C104.373 78.0947 105.206 78.0947 106.035 78.1661L105.4 78.6579C105.723 76.8672 106.256 75.1207 106.987 73.4543C107.091 75.4422 106.947 77.4354 106.558 79.3876C105.733 79.3876 104.527 79.229 103.702 79.1973C103.798 79.1973 103.988 78.9751 103.925 79.0386C103.48 79.578 104.242 80.5457 104.575 81.1169L104.432 81.1327Z" fill="#0C0A0B"/>
<path d="M100.878 59.6365C100.488 60.6686 100.336 61.7759 100.435 62.8751C100.534 63.9742 100.881 65.0367 101.449 65.9824L104.194 62.0162C113.554 65.1891 121.772 63.2378 122.28 63.7455C122.28 63.7455 121.598 75.1839 123.866 76.0247C126.135 76.8656 130.482 73.3436 130.482 73.3436C131.054 73.1523 131.659 73.0818 132.26 73.1364C132.861 73.191 133.444 73.3696 133.972 73.6609C133.972 73.6609 138.731 52.1643 137.256 49.7052C135.543 46.8496 129.911 46.7068 129.911 46.7068L119.773 44.3589C119.773 44.3589 110.334 45.9453 96.6901 39.1235C94.6911 38.1082 91.3913 48.8961 93.9455 52.7354C95.8949 55.3725 98.2324 57.6992 100.878 59.6365Z" fill="#000302"/>
<path d="M144.426 147.543L140.317 125.697" stroke="#0C0A0B" stroke-width="0.793234" stroke-miterlimit="10"/>
<path d="M53.6006 138.881L78.2543 156.205" stroke="#0C0A0B" stroke-width="0.793234" stroke-miterlimit="10"/>
<path d="M49.0802 86.908C49.0802 86.908 66.103 134.502 70.7355 149.383L77.827 164.185L73.4007 175.639C73.4007 175.639 66.4044 182.35 54.3631 176.702C38.5936 169.341 38.4033 90.1919 38.4033 90.1919L49.0802 86.908Z" fill="#F46C80"/>
<path d="M31.2162 81.8627C30.6609 80.657 28.2653 69.3931 29.9628 68.9171C31.1526 68.584 33.4849 73.8035 33.4849 73.8035C33.4849 73.8035 30.8829 66.9975 32.1204 66.4105C33.3578 65.8235 36.3722 71.4397 36.3722 71.4397C36.3722 71.4397 33.0564 63.7611 34.9126 63.6977C35.8327 63.6977 38.8472 70.0436 38.8472 70.0436C38.4823 68.6951 37.4511 64.6495 38.8472 64.7447C40.735 64.8875 43.6066 75.5168 43.6066 75.5168C43.6066 75.5168 45.3833 73.8511 44.479 72.6453C43.2257 70.932 42.1945 66.9817 43.7334 67.5211C45.2723 68.0605 49.9523 74.4698 50.46 76.088C50.809 77.1668 49.7144 84.528 49.286 87.0346L38.5615 90.3186C35.4351 88.169 32.9073 85.259 31.2162 81.8627Z" fill="#F46C80"/>
<path d="M39.8801 70.2814C36.9769 70.2814 34.5656 72.439 32.4873 74.4855" stroke="#0C0A0B" stroke-width="0.793234" stroke-miterlimit="10"/>
<path d="M80.8753 132.963L76.7822 169.372" stroke="#0C0A0B" stroke-width="0.793234" stroke-miterlimit="10"/>
<path d="M165.05 163.867C165.05 163.867 170.031 163.296 170.491 163.867" stroke="#0C0A0B" stroke-width="0.793234" stroke-miterlimit="10"/>
<path d="M64.0732 158.965L66.5323 167.247" stroke="#0C0A0B" stroke-width="0.793234" stroke-miterlimit="10"/>
<path d="M100.784 103.613C100.784 103.613 103.735 124.238 117.68 121.065C131.625 117.892 129.817 104.058 129.817 104.058" stroke="#0C0A0B" stroke-width="0.793234" stroke-miterlimit="10"/>
<path fill-rule="evenodd" clip-rule="evenodd" d="M110.539 221.028C124.308 221.037 137.955 218.459 150.772 213.429C150.948 205.431 150.561 197.432 149.614 189.489C149.328 187.601 148.662 186.189 146.568 186.316C144.474 186.443 140.476 186.443 139.397 183.286C138.318 180.129 136.97 176.242 135.891 173.037C135.687 172.244 135.235 171.537 134.602 171.018C133.969 170.499 133.187 170.195 132.369 170.15H132.131L112.776 170.673L93.4371 171.197H93.1991C92.3764 171.276 91.6019 171.62 90.9923 172.178C90.3827 172.737 89.9711 173.478 89.8199 174.29C88.8998 177.463 87.7736 181.509 86.8375 184.698C85.9015 187.886 82.0781 188.267 79.8094 188.093C77.5408 187.918 77.0648 189.346 76.8586 191.266C76.2724 199.399 76.2724 207.564 76.8586 215.697C87.7402 219.214 99.1036 221.012 110.539 221.028Z" fill="#6558A6"/>
<path fill-rule="evenodd" clip-rule="evenodd" d="M137.955 105.073C135.58 111.807 133.983 118.79 133.196 125.887C131.442 141.112 131.123 156.468 132.244 171.752C132.305 172.115 132.292 172.487 132.206 172.845C132.12 173.203 131.962 173.541 131.743 173.837C131.524 174.133 131.248 174.382 130.93 174.569C130.613 174.756 130.261 174.877 129.896 174.925C129.144 174.865 128.443 174.522 127.934 173.966C127.425 173.409 127.145 172.681 127.151 171.927C126.043 156.431 126.352 140.867 128.072 125.427C128.911 117.758 130.587 110.204 133.069 102.899C133.154 102.611 133.346 102.365 133.605 102.212C133.864 102.059 134.171 102.01 134.465 102.074C135.309 102.293 136.141 102.558 136.956 102.868C137.177 102.945 137.374 103.078 137.529 103.253C137.685 103.427 137.793 103.639 137.844 103.867V104.01C138.011 104.338 138.051 104.717 137.955 105.073Z" fill="#12006C"/>
<path fill-rule="evenodd" clip-rule="evenodd" d="M89.1371 104.93C91.2949 111.961 92.751 119.188 93.484 126.506C95.0809 142.135 95.3303 157.873 94.2296 173.545C94.1068 174.269 94.2604 175.014 94.6599 175.63C95.0594 176.247 95.6757 176.692 96.3872 176.876C97.6722 177.019 98.8464 175.75 98.9098 174.052C99.9973 158.163 99.7424 142.21 98.1482 126.363C97.383 118.43 95.8583 110.589 93.595 102.947C93.3729 102.233 92.8336 101.884 92.2942 102.027C91.5161 102.195 90.7482 102.407 89.9939 102.661C89.7859 102.75 89.6006 102.884 89.4522 103.054C89.3038 103.225 89.1961 103.427 89.1371 103.645V103.788C89.0598 104.164 89.0598 104.553 89.1371 104.93Z" fill="#12006C"/>
<path d="M120.201 216.903C119.812 216.956 119.42 216.988 119.027 216.998L108.858 217.236C105.107 217.351 101.464 215.972 98.7296 213.402C95.9955 210.831 94.3943 207.28 94.2783 203.529L94.0244 193.661V191.884C94.015 191.562 94.0707 191.242 94.1879 190.942C94.3051 190.642 94.4816 190.369 94.7067 190.139C95.1503 189.67 95.7589 189.391 96.4041 189.362L130.132 188.489C130.454 188.474 130.774 188.524 131.076 188.636C131.377 188.748 131.653 188.919 131.887 189.139C132.121 189.36 132.308 189.625 132.437 189.92C132.567 190.214 132.635 190.532 132.639 190.853L132.909 202.498C132.962 206.047 131.692 209.489 129.345 212.152C126.999 214.815 123.745 216.509 120.217 216.903H120.201ZM118.964 216.538C120.772 216.504 122.556 216.109 124.209 215.376C125.863 214.643 127.354 213.587 128.594 212.27C129.852 210.99 130.838 209.469 131.492 207.797C132.147 206.126 132.456 204.339 132.401 202.545L132.179 192.9L94.421 193.883L94.6591 203.529C94.7669 207.163 96.3128 210.606 98.9572 213.102C101.602 215.598 105.128 216.942 108.763 216.839L118.964 216.538ZM94.4687 193.471L132.211 192.471V190.885C132.194 190.356 131.97 189.855 131.587 189.49C131.204 189.125 130.693 188.925 130.164 188.933L96.4359 189.806C95.9128 189.831 95.4166 190.045 95.0398 190.409C94.6721 190.794 94.4626 191.304 94.4528 191.837L94.4687 193.471ZM148.599 191.281L143.3 191.408C141.495 191.334 139.752 190.728 138.29 189.667C136.828 188.606 135.712 187.136 135.082 185.443C134.939 185.047 134.765 184.666 134.622 184.269C134.601 184.216 134.6 184.157 134.621 184.104C134.641 184.051 134.682 184.008 134.733 183.984C134.86 183.984 134.955 183.984 135.019 184.095C135.146 184.475 135.336 184.872 135.463 185.269C136.079 186.873 137.147 188.264 138.538 189.272C139.93 190.28 141.584 190.863 143.3 190.948L148.599 190.821C148.627 190.815 148.657 190.817 148.684 190.825C148.712 190.833 148.737 190.848 148.758 190.869C148.778 190.889 148.793 190.914 148.802 190.942C148.81 190.97 148.811 190.999 148.805 191.028C148.812 191.057 148.813 191.088 148.807 191.117C148.8 191.147 148.788 191.175 148.77 191.199C148.751 191.223 148.728 191.243 148.701 191.258C148.675 191.272 148.645 191.28 148.615 191.281H148.599ZM83.8077 192.947C83.6128 192.972 83.4155 192.972 83.2207 192.947L77.9061 193.058C77.7791 193.058 77.6681 192.963 77.6998 192.868C77.7315 192.773 77.6998 192.63 77.9061 192.662L83.2207 192.535C84.9339 192.359 86.5591 191.69 87.8995 190.608C89.2399 189.527 90.2379 188.08 90.7723 186.443C90.8992 186.014 91.042 185.634 91.1371 185.221C91.1371 185.126 91.2957 185.015 91.4067 185.094C91.4332 185.103 91.4577 185.117 91.4782 185.136C91.4986 185.154 91.5147 185.177 91.5252 185.203C91.5358 185.229 91.5406 185.257 91.5394 185.284C91.5381 185.312 91.5308 185.339 91.5179 185.364C91.3751 185.729 91.2799 186.157 91.153 186.585C90.633 188.219 89.672 189.678 88.3759 190.8C87.0799 191.923 85.499 192.666 83.8077 192.947ZM125.199 173.91L100.577 174.56C100.522 174.56 100.469 174.538 100.431 174.5C100.392 174.461 100.37 174.409 100.37 174.354C100.37 174.299 100.392 174.247 100.431 174.208C100.469 174.169 100.522 174.148 100.577 174.148L125.199 173.497C125.325 173.497 125.437 173.608 125.405 173.703C125.407 173.733 125.403 173.762 125.394 173.79C125.385 173.817 125.37 173.843 125.351 173.865C125.332 173.887 125.309 173.905 125.282 173.918C125.256 173.932 125.228 173.939 125.199 173.941V173.91Z" fill="#12006C"/>
<path d="M139.096 176.559C139.096 176.559 129.578 175.591 127.356 176.083C124.326 176.749 116.696 187.363 116.346 188.87C115.997 190.377 118.504 191.139 120.646 190.377C122.787 189.616 127.943 182.889 127.943 182.889C127.943 182.889 131.719 191.868 147.743 185.491L139.096 176.559Z" fill="#F46C80"/>
<path d="M175.696 137.691C175.696 137.691 192.846 157.49 190.688 165.042C188.8 171.721 162.132 183.333 147.663 185.491L139.017 176.559L165.051 163.868L158.372 154.888L175.696 137.691Z" fill="#F46C80"/>
<defs>
<linearGradient id="paint0_linear_168_922" x1="111.337" y1="220.999" x2="111.337" y2="111.385" gradientUnits="userSpaceOnUse">
<stop stop-color="#CFDFFE"/>
<stop offset="1" stop-color="#D6E4FF" stop-opacity="0"/>
</linearGradient>
</defs>
</svg>
