<svg width="74" height="23" viewBox="0 0 74 23" fill="none" xmlns="http://www.w3.org/2000/svg">
<path d="M35.9841 16.9104L35.984 16.9105C35.8942 16.9725 35.8019 17.0313 35.706 17.086L35.7058 17.0861C35.6343 17.1265 35.5612 17.1643 35.4867 17.2003C35.3094 17.286 35.1239 17.3582 34.9293 17.4177C34.6584 17.5007 34.3719 17.5585 34.0682 17.592L34.0681 17.592C33.8656 17.6137 33.655 17.6246 33.4379 17.6246C32.4321 17.6246 31.5789 17.3881 30.882 16.9106L30.8816 16.9103C30.1926 16.4263 29.67 15.724 29.3123 14.8049L29.3122 14.8045C28.9622 13.879 28.7885 12.7472 28.7885 11.4131C28.7885 10.654 28.845 9.96235 28.9575 9.33741L28.9575 9.33736C29.0434 8.86326 29.161 8.42762 29.3122 8.03149L29.3123 8.0313C29.5395 7.44324 29.8333 6.94479 30.1942 6.53772M35.9841 16.9104L33.6979 5.2066L33.6971 5.20657L33.5339 5.20159L33.5328 5.20158L33.4383 5.20075H33.4379C32.432 5.20075 31.5787 5.44147 30.8818 5.92565M35.9841 16.9104C36.6806 16.4265 37.2033 15.7241 37.5535 14.8048C37.9102 13.8792 38.0881 12.7473 38.0881 11.4131C38.0881 10.5567 38.0149 9.78658 37.8682 9.10127C37.7865 8.71771 37.6813 8.36129 37.5535 8.03126C37.2034 7.10553 36.6807 6.40223 35.984 5.92565C35.5697 5.63493 35.0978 5.43192 34.569 5.31627L34.5604 5.35555L34.569 5.31626C34.3428 5.26683 34.1068 5.23337 33.8593 5.2158L35.9841 16.9104ZM30.1942 6.53772L30.2316 6.57089L30.1941 6.53775C30.1942 6.53774 30.1942 6.53773 30.1942 6.53772ZM30.1942 6.53772C30.4014 6.30359 30.6307 6.09953 30.8818 5.92565M30.8818 5.92565C30.8818 5.92567 30.8818 5.92568 30.8818 5.9257L30.91 5.96638L30.8818 5.92565ZM42.7572 5.18836L42.7573 5.18845C43.7141 6.87137 44.1935 8.94572 44.1935 11.4131C44.1935 13.8796 43.7141 15.9573 42.7572 17.6477C41.7995 19.3322 40.5084 20.6089 38.8822 21.4793C37.2558 22.3436 35.4417 22.7753 33.4379 22.7753C31.4209 22.7753 29.5994 22.3395 27.9723 21.4687C26.3542 20.5916 25.0664 19.3107 24.1086 17.6262C23.1591 15.9357 22.6831 13.8654 22.6831 11.4131C22.6831 8.94567 23.1592 6.87126 24.1086 5.1883C25.0664 3.49638 26.3541 2.21972 27.972 1.3568L27.9721 1.35677C29.5992 0.485879 31.4208 0.05 33.4379 0.05C35.4417 0.05 37.2558 0.485852 38.8822 1.35677L38.8823 1.35685C40.5085 2.2198 41.7995 3.49647 42.7572 5.18836ZM8.20789 15.5351V15.5226L8.20196 15.5115L0.0835009 0.354139H6.69443L11.0208 9.35136L11.0344 9.37969H11.0659H11.2391H11.2705L11.2841 9.35136L15.6105 0.354139H22.2214L14.1029 15.5115L14.097 15.5226V15.5351V22.472H8.20789V15.5351ZM61.0516 14.2613L65.5228 22.472H59.0844L55.1977 15.1644L55.1836 15.1379H55.1536H53.066H53.016V15.1879V22.472H47.0846V0.354139H56.6245C58.2676 0.354139 59.7027 0.653014 60.9311 1.24911L60.9529 1.20413L60.9311 1.24911C62.1601 1.84509 63.114 2.703 63.7958 3.82318L63.7958 3.82321C64.478 4.94184 64.8194 6.2849 64.8194 7.85458C64.8194 9.4382 64.4665 10.7699 63.7643 11.8524L63.7641 11.8526C63.1147 12.8629 62.2187 13.6433 61.0739 14.1923L61.0264 14.215L61.0516 14.2613ZM53.016 10.5015V10.5515H53.066H55.1925C55.9049 10.5515 56.5149 10.464 57.0205 10.2885L57.0209 10.2884C57.5357 10.1047 57.9318 9.81293 58.2062 9.41291C58.4888 9.01104 58.627 8.49047 58.627 7.85458C58.627 7.21143 58.4889 6.68363 58.2066 6.27523C57.9325 5.86046 57.5366 5.55776 57.0219 5.36644C56.5157 5.16894 55.9052 5.07064 55.1925 5.07064H53.066H53.016V5.12064V10.5015ZM73.4224 22.472H67.491V0.354139H73.4224V22.472Z" fill="url(#paint0_linear_72_18988)" stroke="white" stroke-width="0.1"/>
<defs>
<linearGradient id="paint0_linear_72_18988" x1="0" y1="0" x2="80" y2="23" gradientUnits="userSpaceOnUse">
<stop stop-color="#6D72F6"/>
<stop offset="1" stop-color="#6D72F6" stop-opacity="0.35"/>
</linearGradient>
</defs>
</svg>
