<svg width="13" height="13" viewBox="0 0 13 13" fill="none" xmlns="http://www.w3.org/2000/svg">
<path d="M12 3.79378L9.20625 1.00003C9.11384 0.906676 9.00385 0.832572 8.88262 0.781997C8.7614 0.731423 8.63135 0.705383 8.5 0.705383C8.36865 0.705383 8.2386 0.731423 8.11738 0.781997C7.99615 0.832572 7.88616 0.906676 7.79375 1.00003L0.29375 8.50003C0.200562 8.59251 0.126622 8.70254 0.0762023 8.82376C0.0257829 8.94498 -0.000116543 9.07499 3.94218e-07 9.20628V12C3.94218e-07 12.2652 0.105357 12.5196 0.292894 12.7071C0.48043 12.8947 0.734784 13 1 13H3.79375C3.92504 13.0001 4.05505 12.9742 4.17627 12.9238C4.29749 12.8734 4.40752 12.7995 4.5 12.7063L12 5.20628C12.1855 5.01801 12.2895 4.76433 12.2895 4.50003C12.2895 4.23573 12.1855 3.98204 12 3.79378ZM1.20625 9.00003L6.5 3.70628L7.54375 4.75003L2.25 10.0438L1.20625 9.00003ZM1 10.2063L2.79375 12H1V10.2063ZM4 11.7938L2.95625 10.75L8.25 5.45628L9.29375 6.50003L4 11.7938ZM10 5.79378L7.20625 3.00003L8.5 1.70628L11.2937 4.50003L10 5.79378Z" fill="#888888"/>
</svg>
