<svg width="280" height="632" viewBox="0 0 280 632" fill="none" xmlns="http://www.w3.org/2000/svg">
<mask id="mask0_34_1366" style="mask-type:luminance" maskUnits="userSpaceOnUse" x="0" y="0" width="280" height="632">
<path d="M280 0H0V632H280V0Z" fill="white"/>
</mask>
<g mask="url(#mask0_34_1366)">
<path d="M-361.654 50.0602C-407.353 97.7567 -424.476 158.152 -420.5 220.968C-419.685 233.69 -417.961 246.389 -415.669 259.187C-404.313 318.175 -375.892 377.184 -336.904 427.846C-334.703 430.748 -332.384 433.533 -330.072 436.546C-300.837 472.552 -266.25 503.87 -228.389 527.255C-199.041 545.395 -167.867 558.824 -136.076 565.866C-122.273 568.928 -108.786 570.974 -95.4974 571.887C-66.1998 574.1 -38.1467 571.566 -11.8167 565.208C-6.8952 564.058 -2.19553 562.687 2.62088 561.199C6.63165 560.073 10.6482 558.72 14.5538 557.255C20.5261 555.055 26.2706 552.861 32.1377 550.323C64.5848 536.072 93.6559 515.877 118.511 491.465C129.362 480.836 139.32 469.546 148.385 457.597C176.285 420.82 195.795 378.455 204.62 335.679C206.428 327.213 207.67 318.649 208.684 310.09C213.171 267.879 206.839 226.057 187.746 189.452C102.356 26.3095 -228.303 -88.8381 -361.654 50.0602Z" fill="#F2E9E9"/>
<mask id="mask1_34_1366" style="mask-type:alpha" maskUnits="userSpaceOnUse" x="-422" y="-13" width="633" height="586">
<path d="M-361.654 50.0602C-407.353 97.7567 -424.476 158.152 -420.5 220.968C-419.685 233.69 -417.961 246.389 -415.669 259.187C-404.313 318.175 -375.892 377.184 -336.904 427.846C-334.703 430.748 -332.384 433.533 -330.072 436.546C-300.837 472.552 -266.25 503.87 -228.389 527.255C-199.041 545.395 -167.867 558.824 -136.076 565.866C-122.273 568.928 -108.786 570.974 -95.4974 571.887C-66.1998 574.1 -38.1467 571.566 -11.8167 565.208C-6.8952 564.058 -2.19553 562.687 2.62088 561.199C6.63165 560.073 10.6482 558.72 14.5538 557.255C20.5261 555.055 26.2706 552.861 32.1377 550.323C64.5848 536.072 93.6559 515.877 118.511 491.465C129.362 480.836 139.32 469.546 148.385 457.597C176.285 420.82 195.795 378.455 204.62 335.679C206.428 327.213 207.67 318.649 208.684 310.09C213.171 267.879 206.839 226.057 187.746 189.452C102.356 26.3095 -228.303 -88.8381 -361.654 50.0602Z" fill="#F2E9E9"/>
</mask>
<g mask="url(#mask1_34_1366)">
<path d="M34.3698 134.873L26.9307 143.801C26.1476 144.75 27.169 145.919 28.8032 145.919H293.395C289.735 142.514 287.403 139.498 279.3 133.467H37.9617C36.4637 133.467 35.1018 133.992 34.3698 134.873Z" fill="#FFF4F4"/>
<path d="M34.3698 115.204L26.9307 124.132C26.1476 125.081 27.169 126.25 28.8032 126.25H270.09C262.311 120.252 258.532 117.847 252.539 113.797H37.9617C36.4637 113.797 35.1018 114.34 34.3698 115.204Z" fill="#FFF4F4"/>
<path d="M34.3698 173.856L26.9307 182.785C26.1476 183.734 27.169 184.903 28.8032 184.903H327.986C325.075 181.514 321.654 176.499 318.215 172.45H37.9617C36.4637 172.45 35.1018 172.992 34.3698 173.856Z" fill="#FFF4F4"/>
<path d="M34.3698 154.205L26.9307 163.133C26.1476 164.082 27.169 165.251 28.8032 165.251H312.138C308.188 161.354 306.401 158.576 300.375 152.798H37.9617C36.4637 152.798 35.1018 153.34 34.3698 154.205Z" fill="#FFF4F4"/>
<path d="M34.3698 76.4062L26.9307 85.3346C26.1476 86.2834 27.169 87.4524 28.8032 87.4524H201.214C195.733 83.776 173.041 77.643 163.338 75H37.9617C36.4637 75 35.1018 75.5252 34.3698 76.4062Z" fill="#FFF4F4"/>
<path d="M34.3698 95.7368L26.9307 104.665C26.1476 105.614 27.169 106.783 28.8032 106.783H241.032C236.214 103.073 223.157 97.0582 217.131 94.3306H37.9617C36.4637 94.3306 35.1018 94.8727 34.3698 95.7368Z" fill="#FFF4F4"/>
<path d="M34.3698 212.213L26.9307 221.142C26.1476 222.091 27.169 223.26 28.8032 223.26H352.381C349.708 218.905 348.21 214.805 345.146 210.807H37.9617C36.4637 210.807 35.1018 211.349 34.3698 212.213Z" fill="#FFF4F4"/>
<path d="M30.2502 264.191L26.9307 268.173C26.1476 269.122 27.169 270.291 28.8032 270.291H374C372.911 268.241 372.57 266.224 371.583 264.191H30.2502Z" fill="#E6DDDD"/>
<path d="M34.3698 192.56L26.9307 201.489C26.1476 202.438 27.169 203.607 28.8032 203.607H340.754C337.962 199.71 335.272 195.017 332.378 191.154H37.9617C36.4637 191.154 35.1018 191.68 34.3698 192.56Z" fill="#FFF4F4"/>
<path d="M34.3698 253.145L26.9307 262.073C26.1476 263.022 27.169 264.191 28.8032 264.191H30.2502L34.3698 259.244C35.0848 258.38 36.4637 257.838 37.9617 257.838H369.029C368.195 255.89 367.582 253.755 366.306 251.739H37.9617C36.4637 251.739 35.1018 252.281 34.3698 253.145Z" fill="#FFF4F4"/>
<path d="M368.961 257.838H37.9615C36.4635 257.838 35.0846 258.381 34.3696 259.245L30.25 264.192H371.617C370.714 262.04 370.119 260.176 368.961 257.838Z" fill="#FFF4F4"/>
<path d="M34.3698 233.476L26.9307 242.404C26.1476 243.353 27.169 244.522 28.8032 244.522H363.156C360.875 240.1 359.292 236.204 356.977 232.07H37.9617C36.4637 232.07 35.1018 232.612 34.3698 233.476Z" fill="#FFF4F4"/>
<path d="M173.228 269.749V285.047C173.228 291.35 178.369 296.466 184.702 296.466C191.034 296.466 196.175 291.35 196.175 285.047V269.749H173.228ZM184.651 291.807C180.82 291.807 177.722 288.724 177.722 284.912C177.722 281.1 180.82 278.016 184.651 278.016C188.481 278.016 191.579 281.1 191.579 284.912C191.579 288.724 188.481 291.807 184.651 291.807Z" fill="#E6DDDD"/>
</g>
</g>
</svg>
