<svg width="17" height="9" viewBox="0 0 17 9" fill="none" xmlns="http://www.w3.org/2000/svg">
<path d="M-6.3125 4.17287H-7.3125V0.310875L-5.4385 3.68788L-6.3125 4.17287ZM-6.3125 8.29688V9.29688H-7.3125V8.29688H-6.3125ZM23.6875 8.29688H24.6875V9.29688H23.6875V8.29688ZM23.6875 4.17287L22.8135 3.68788L24.6875 0.310875V4.17287H23.6875ZM-5.3125 4.17287V8.29688H-7.3125V4.17287H-5.3125ZM-6.3125 7.29688H0.6875V9.29688H-6.3125V7.29688ZM0.6875 7.29688H16.6875V9.29688H0.6875V7.29688ZM23.6875 9.29688H16.6875V7.29688H23.6875V9.29688ZM24.6875 4.17287V8.29688H22.6875V4.17287H24.6875ZM16.6875 7.29688C17.938 7.29727 19.1657 6.96264 20.2431 6.32777C21.3204 5.6929 22.208 4.78199 22.8135 3.68788L24.5615 4.65788C23.7828 6.06378 22.6419 7.23551 21.2572 8.05131C19.8725 8.8671 18.2946 9.29719 16.6875 9.29688V7.29688ZM16.6875 9.29688C14.3006 9.29688 12.0114 8.34866 10.3235 6.66084C8.63571 4.97301 7.6875 2.68382 7.6875 0.296875H9.6875C9.6875 2.15339 10.425 3.93387 11.7378 5.24662C13.0505 6.55938 14.831 7.29688 16.6875 7.29688V9.29688ZM0.6875 7.29688C2.54402 7.29688 4.32449 6.55938 5.63725 5.24662C6.95 3.93387 7.6875 2.15339 7.6875 0.296875H9.6875C9.6875 2.68382 8.73929 4.97301 7.05146 6.66084C5.36363 8.34866 3.07445 9.29688 0.6875 9.29688V7.29688ZM-5.4385 3.68788C-4.833 4.78199 -3.94542 5.6929 -2.86808 6.32777C-1.79074 6.96264 -0.562986 7.29727 0.6875 7.29688V9.29688C-2.7025 9.29688 -5.6525 7.42188 -7.1865 4.65788L-5.4385 3.68788Z" fill="#D8D8D8"/>
</svg>
