<svg width="13" height="15" viewBox="0 0 13 15" fill="none" xmlns="http://www.w3.org/2000/svg">
<g clip-path="url(#clip0_6_3663)">
<path d="M12.1875 5.98351C12.1872 5.91942 12.1433 5.8611 12.0756 5.83257C11.1757 5.45521 10.6813 4.78444 10.6059 3.83851C10.5479 3.11178 10.7702 2.48832 10.7722 2.48218C10.7962 2.41772 10.7718 2.34767 10.7111 2.30343C9.78434 1.62887 8.69 1.31056 7.93546 1.1625C7.11934 1.00181 6.52532 1 6.5004 1C6.47566 1 5.88146 1.00181 5.06516 1.16232C4.31044 1.31038 3.21627 1.62869 2.28894 2.30343C2.22828 2.34731 2.20444 2.41754 2.22791 2.482C2.23008 2.48814 2.45234 3.11178 2.39457 3.83833C2.31909 4.78444 1.82455 5.45503 0.924844 5.83239C0.856414 5.86092 0.813081 5.91942 0.812539 5.98351C0.811997 6.03985 0.808386 7.38156 1.49179 9.04592C1.89353 10.0245 2.4509 10.9092 3.14857 11.6757C4.02191 12.6355 5.11789 13.4112 6.40579 13.9805C6.43551 13.9935 6.4676 14.0002 6.50004 14.0002C6.53248 14.0002 6.56457 13.9935 6.59429 13.9805C7.88255 13.411 8.97834 12.6355 9.85187 11.6757C10.5492 10.9092 11.1067 10.0245 11.5085 9.04592C12.1915 7.38192 12.1883 6.04003 12.1874 5.98369L12.1875 5.98351Z" fill="url(#paint0_linear_6_3663)"/>
<path fill-rule="evenodd" clip-rule="evenodd" d="M6.50011 9.08023L4.77598 9.9097C4.64652 9.97217 4.48655 9.92595 4.41902 9.80642C4.39226 9.75963 4.38299 9.70486 4.39284 9.65187L4.72145 7.89777L3.33064 6.65699C3.30587 6.63578 3.28588 6.60956 3.27199 6.58006C3.2581 6.55056 3.25062 6.51845 3.25004 6.48585C3.24946 6.45325 3.25579 6.42089 3.26863 6.39092C3.28146 6.36094 3.3005 6.33403 3.3245 6.31195C3.3653 6.27313 3.41893 6.24785 3.47707 6.24009L5.40089 5.98424L6.26304 4.38542C6.32804 4.26481 6.48693 4.2157 6.61801 4.27564C6.66947 4.29912 6.71136 4.33776 6.73718 4.38542L7.59933 5.98424L9.52315 6.24009C9.66777 6.25941 9.76816 6.38309 9.7474 6.51634C9.73891 6.56996 9.71165 6.61926 9.6694 6.65699L8.27858 7.89777L8.60737 9.65187C8.63229 9.78476 8.53569 9.91096 8.39161 9.93389C8.33437 9.94292 8.27551 9.93462 8.22405 9.9097L6.50011 9.08023Z" fill="white"/>
</g>
<defs>
<linearGradient id="paint0_linear_6_3663" x1="6.50004" y1="1" x2="6.50004" y2="14" gradientUnits="userSpaceOnUse">
<stop stop-color="#589AE4"/>
<stop offset="1" stop-color="#2776CF"/>
</linearGradient>
<clipPath id="clip0_6_3663">
<rect width="13" height="13" fill="white" transform="translate(0 1)"/>
</clipPath>
</defs>
</svg>
