<svg width="109" height="106" viewBox="0 0 109 106" fill="none" xmlns="http://www.w3.org/2000/svg">
<path d="M103.826 95.5722L45.2213 94.3513C43.512 94.3513 41.9248 92.764 41.9248 91.0547L42.7795 54.5489C42.7795 52.8396 44.3667 51.3745 46.076 51.3745L104.681 52.4733C106.512 52.4733 107.977 54.0606 107.977 55.8919L107.245 92.2757C107.245 93.985 105.657 95.5722 103.826 95.5722Z" fill="#A38FDD"/>
<path d="M86.4888 103.997L62.8027 103.753L64.6341 94.7177L63.0469 89.834L86.733 90.2003L84.7795 95.084L86.4888 103.997Z" fill="#A38FDD"/>
<path d="M101.384 89.7118L47.1748 88.8571L48.3957 56.3804L102.727 57.235L101.506 89.7118H101.384Z" fill="#826BC4"/>
<path d="M21.2909 21.2177C37.0409 5.34566 58.7734 10.9619 69.5176 27.3224C80.2618 43.5608 69.2734 56.6247 69.2734 56.6247L76.2327 68.834L63.2909 65.6596C63.2909 65.6596 44.7327 86.4154 20.9246 64.3166C6.27342 50.7643 9.20365 33.427 21.2909 21.3398V21.2177Z" fill="#FF8A00" fill-opacity="0.7"/>
<path d="M26.4189 46.857C36.3085 50.5198 48.1515 49.6652 56.9422 43.8047" stroke="white" stroke-width="3.66279" stroke-miterlimit="10" stroke-linecap="round"/>
<path d="M32.7679 41.363C33.136 41.6873 33.5719 41.9253 34.0437 42.0597C34.5155 42.1941 35.0114 42.2216 35.4952 42.14C35.9789 42.0584 36.4384 41.8698 36.84 41.5881C37.2416 41.3064 37.5753 40.9385 37.8167 40.5114C38.0581 40.0843 38.2012 39.6088 38.2354 39.1194C38.2696 38.63 38.1942 38.1391 38.0146 37.6826C37.835 37.226 37.5557 36.8153 37.1972 36.4804C36.8387 36.1455 36.41 35.8949 35.9423 35.7467C35.2214 35.5184 34.4438 35.5448 33.7401 35.8217C33.0364 36.0985 32.4492 36.6089 32.0771 37.2673C31.705 37.9256 31.5705 38.6919 31.6963 39.4376C31.8221 40.1833 32.2004 40.8631 32.7679 41.363ZM45.0993 40.1421C45.4845 40.4362 45.9278 40.645 46.3999 40.7548C46.8719 40.8645 47.3619 40.8726 47.8374 40.7786C48.3128 40.6845 48.7628 40.4904 49.1575 40.2092C49.5522 39.928 49.8826 39.5661 50.1268 39.1475C50.371 38.7289 50.5234 38.2631 50.5739 37.7811C50.6244 37.2991 50.5718 36.8119 50.4197 36.3517C50.2675 35.8916 50.0193 35.469 49.6914 35.1121C49.3635 34.7552 48.9635 34.4721 48.5179 34.2816C47.7516 33.954 46.892 33.9175 46.1007 34.1792C45.3094 34.4408 44.641 34.9825 44.221 35.7024C43.8011 36.4223 43.6586 37.2708 43.8203 38.0884C43.9821 38.906 44.4369 39.6363 45.0993 40.1421Z" fill="white"/>
</svg>
