<svg width="24" height="18" viewBox="0 0 24 18" fill="none" xmlns="http://www.w3.org/2000/svg">
<g clip-path="url(#clip0_30_5624)">
<path d="M0 0H24V18H0V0Z" fill="#006600"/>
<path d="M0 0H24V12.8587H0V0Z" fill="white"/>
<path d="M0 0H24V5.14125H0V0Z" fill="#CC0000"/>
<path d="M11.2799 8.76C11.3153 8.70009 11.369 8.6532 11.4332 8.62634C11.4973 8.59948 11.5685 8.59408 11.6359 8.61095C11.7034 8.62782 11.7636 8.66605 11.8076 8.71995C11.8516 8.77384 11.877 8.84051 11.8799 8.91V10.2H12.1199V8.91375C12.1229 8.84426 12.1483 8.77759 12.1922 8.7237C12.2362 8.6698 12.2964 8.63157 12.3639 8.6147C12.4314 8.59783 12.5025 8.60323 12.5667 8.63009C12.6308 8.65695 12.6846 8.70384 12.7199 8.76375C12.7571 8.65002 12.7668 8.52909 12.7483 8.41088C12.7297 8.29267 12.6834 8.18054 12.6132 8.08367C12.5429 7.98681 12.4507 7.90796 12.3441 7.85358C12.2375 7.79921 12.1196 7.77087 11.9999 7.77087C11.8803 7.77087 11.7623 7.79921 11.6557 7.85358C11.5491 7.90796 11.4569 7.98681 11.3867 8.08367C11.3165 8.18054 11.2702 8.29267 11.2516 8.41088C11.233 8.52909 11.2427 8.65002 11.2799 8.76375" fill="#F8C300"/>
<path d="M11.4524 8.42625C11.5577 8.40448 11.6671 8.4163 11.7654 8.46002C11.8636 8.50375 11.9456 8.57719 11.9999 8.67C12.0542 8.57719 12.1362 8.50375 12.2344 8.46002C12.3326 8.4163 12.4421 8.40448 12.5474 8.42625C12.5317 8.29209 12.4672 8.16837 12.3663 8.07858C12.2654 7.98879 12.135 7.93919 11.9999 7.93919C11.8648 7.93919 11.7344 7.98879 11.6335 8.07858C11.5326 8.16837 11.4681 8.29209 11.4524 8.42625Z" fill="white"/>
<path d="M11.88 9.68624C11.864 9.869 11.7968 10.0436 11.6861 10.1899C11.5754 10.3361 11.4257 10.4482 11.2542 10.5133C11.0826 10.5783 10.8962 10.5936 10.7164 10.5574C10.5365 10.5212 10.3705 10.435 10.2375 10.3087C10.181 10.4528 10.0923 10.5819 9.97823 10.6863C9.86412 10.7908 9.72759 10.8676 9.57915 10.9111C9.4307 10.9545 9.27427 10.9634 9.12186 10.937C8.96945 10.9106 8.82513 10.8496 8.69995 10.7587C8.7937 11.6962 10.2 11.505 10.305 10.5937C10.7437 11.37 11.715 11.145 12 10.1962L11.88 9.68624Z" fill="#F8C300"/>
<path d="M12.12 9.68624C12.136 9.869 12.2032 10.0436 12.3139 10.1899C12.4246 10.3361 12.5743 10.4482 12.7458 10.5133C12.9174 10.5783 13.1038 10.5936 13.2836 10.5574C13.4635 10.5212 13.6295 10.435 13.7625 10.3087C13.819 10.4528 13.9077 10.5819 14.0218 10.6863C14.1359 10.7908 14.2724 10.8676 14.4209 10.9111C14.5693 10.9545 14.7257 10.9634 14.8781 10.937C15.0305 10.9106 15.1749 10.8496 15.3 10.7587C15.2063 11.6962 13.8 11.505 13.695 10.5937C13.2563 11.37 12.285 11.145 12 10.1962L12.12 9.68624Z" fill="#F8C300"/>
<path d="M10.9425 11.3475C10.7437 11.7713 10.3537 11.8425 10.0125 11.5013C10.0125 11.5013 10.1475 11.4038 10.2975 11.3775C10.2675 11.2613 10.3237 11.0963 10.4062 11.01C10.5154 11.0816 10.5963 11.189 10.635 11.3138C10.8412 11.2875 10.9425 11.3513 10.9425 11.3513V11.3475Z" fill="#F8C300"/>
<path d="M12.4798 11.3C12.2145 11.6856 11.8181 11.6922 11.5372 11.2998C11.5372 11.2998 11.6863 11.2257 11.8386 11.2243C11.828 11.1047 11.9104 10.9511 12.0059 10.8795C12.1019 10.968 12.1642 11.0871 12.182 11.2165C12.3897 11.2243 12.4792 11.3037 12.4792 11.3037L12.4798 11.3Z" fill="#F8C300"/>
<path d="M13.9885 11.5008C13.6644 11.8384 13.2721 11.7809 13.0583 11.3482C13.0583 11.3482 13.2175 11.2992 13.368 11.3224C13.3768 11.2027 13.483 11.0644 13.5888 11.0092C13.6693 11.112 13.7114 11.2397 13.7081 11.3702C13.9119 11.4115 13.9873 11.5043 13.9873 11.5043L13.9885 11.5008Z" fill="#F8C300"/>
<path d="M9.50635 12.2925C11.1336 11.8082 12.8666 11.8082 14.4938 12.2925" stroke="#F8C300" stroke-width="0.4125"/>
<path d="M12.3881 6.7068L11.3718 5.96841H12.628L11.6117 6.7068L11.9999 5.51206L12.3881 6.7068Z" fill="#F8C300"/>
<path d="M10.5883 7.19025L9.57202 6.45186H10.8282L9.81194 7.19025L10.2001 5.99551L10.5883 7.19025Z" fill="#F8C300"/>
<path d="M9.27167 8.50682L8.25537 7.76843H9.51159L8.49529 8.50682L8.88348 7.31208L9.27167 8.50682Z" fill="#F8C300"/>
<path d="M8.78828 10.3068L7.77197 9.56841H9.02819L8.01189 10.3068L8.40008 9.11206L8.78828 10.3068Z" fill="#F8C300"/>
<path d="M13.4117 7.19025L14.428 6.45186H13.1718L14.1881 7.19025L13.7999 5.99551L13.4117 7.19025Z" fill="#F8C300"/>
<path d="M14.7283 8.50682L15.7446 7.76843H14.4884L15.5047 8.50682L15.1165 7.31208L14.7283 8.50682Z" fill="#F8C300"/>
<path d="M15.2117 10.3068L16.228 9.56841H14.9718L15.9881 10.3068L15.5999 9.11206L15.2117 10.3068Z" fill="#F8C300"/>
</g>
<defs>
<clipPath id="clip0_30_5624">
<rect width="24" height="18" fill="white"/>
</clipPath>
</defs>
</svg>
