<svg width="59" height="60" viewBox="0 0 59 60" fill="none" xmlns="http://www.w3.org/2000/svg">
<g id="Group 831885147">
<path id="Vector" d="M47.2 0.5H11.8C5.28304 0.5 0 5.78304 0 12.3V47.7C0 54.217 5.28304 59.5 11.8 59.5H47.2C53.717 59.5 59 54.217 59 47.7V12.3C59 5.78304 53.717 0.5 47.2 0.5Z" fill="#6D72F6"/>
<path id="Union" fill-rule="evenodd" clip-rule="evenodd" d="M29.4999 32.3424C34.2816 32.3424 38.1579 28.466 38.1579 23.6844C38.1579 18.9027 34.2816 15.0264 29.4999 15.0264C24.7182 15.0264 20.8419 18.9027 20.8419 23.6844C20.8419 28.466 24.7182 32.3424 29.4999 32.3424ZM13.8426 43.5449C15.0688 38.5413 18.3134 34.4189 22.5832 32.2459C24.4732 33.7747 26.8796 34.6904 29.4999 34.6904C32.1202 34.6904 34.5266 33.7747 36.4167 32.2458C40.6866 34.4188 43.9312 38.5413 45.1574 43.5449C40.851 46.9446 35.4125 48.9735 29.5 48.9735C23.5876 48.9735 18.149 46.9446 13.8426 43.5449Z" fill="white"/>
</g>
</svg>
