<svg width="358" height="187" viewBox="0 0 358 187" fill="none" xmlns="http://www.w3.org/2000/svg">
<mask id="mask0_1_274" style="mask-type:alpha" maskUnits="userSpaceOnUse" x="6" y="0" width="349" height="187">
<path d="M6.42271 0H354.607V186.766H6.42271V0Z" fill="#ECF0FF"/>
</mask>
<g mask="url(#mask0_1_274)">
<path d="M189.379 40.6357C98.9859 38.9873 29.6394 95.8188 30.7997 215.667C31.9559 334.879 146.592 338.045 191.986 340.853C237.374 343.667 331.259 317.011 331.259 216.36C331.259 120.106 264.286 42.0029 189.379 40.6357Z" fill="#9A48B1"/>
</g>
<mask id="mask1_1_274" style="mask-type:luminance" maskUnits="userSpaceOnUse" x="25" y="6" width="322" height="181">
<path d="M25.7099 6.09021H346.486V186.766H25.7099V6.09021Z" fill="white"/>
</mask>
<g mask="url(#mask1_1_274)">
<path d="M55.4731 70.695L63.5442 65.2443L63.6376 65.159L67.1154 62.7737C67.5316 62.4844 67.9752 62.2316 68.4351 62.0246C69.1984 61.6758 70.0187 61.4681 70.8561 61.4115L79.7008 60.8157C82.2508 60.5599 84.7185 62.2631 85.4819 64.7337L86.9721 69.5094C88.2694 69.5551 89.5626 69.7226 90.8397 70.0139L97.4704 71.5466C99.5981 72.0582 99.9371 74.954 98.0673 75.9762L92.7968 80.0637L92.4994 80.1165C95.0605 87.043 92.5461 93.6062 92.5461 93.6062C92.5461 93.6062 92.5034 93.3992 92.3999 93.0327C93.0496 100.4 93.0029 110.572 84.1714 115.219L83.271 126.057L83.2781 126.095L83.275 126.142C93.2231 127.845 100.621 131.678 106.149 136.363C121.281 149.139 120.185 189.527 120.185 189.527C120.185 189.527 104.928 194.365 73.4101 194.365C72.5432 195.033 71.7058 195.667 70.8987 196.265C70.1527 196.823 69.398 197.369 68.635 197.904C66.9317 199.095 65.342 200.106 63.8011 200.923C57.1703 204.415 41.4411 208.759 32.9365 192.15C26.9849 180.567 25.4551 163.703 27.2387 154.164C31.3194 132.956 59.4675 125.461 59.4675 125.461C59.7508 124.71 59.967 121.456 60.1345 117.926C59.5445 117.75 58.977 117.507 58.4433 117.2C55.1442 115.353 53.5799 111.821 52.9393 108.006C46.2315 96.5366 53.9433 86.9629 53.9433 86.9629L53.99 86.9974L53.9961 86.9497L53.9433 86.9629L52.8399 76.4015C52.583 74.1867 53.6032 71.9719 55.4731 70.695Z" fill="#D599E6"/>
<path d="M169.736 42.7795L169.87 42.7308C175.446 40.6378 178.174 26.6791 163.873 25.2286C153.681 24.1953 148.811 26.0031 145.987 27.0516C144.848 27.4749 144.042 27.7743 143.355 27.7134C143.158 27.6951 142.938 27.6728 142.7 27.6454L142.684 27.6444C140.03 27.3551 134.967 26.805 130.838 31.4294C126.34 36.467 126.71 54.9954 127.796 58.3704C128.223 59.697 127.723 61.6002 127.15 63.7764C126.266 67.1362 125.21 71.1476 127.135 74.6931C130.307 80.5498 131.592 81.5557 131.592 81.5557L132.833 77.1292L129.809 88.3199L128.449 88.8995L110.341 94.9338C110.341 94.9338 89.8905 102.889 83.0243 119.079C79.7384 126.835 73.2893 196.401 73.2893 196.401C73.2893 196.401 84.5399 207.526 114.361 211.671C125.138 213.168 134.279 211.952 142.016 209.329C149.748 211.005 158.648 211.216 168.81 208.794C198.096 201.809 208.229 189.659 208.229 189.659C208.229 189.659 195.14 121.03 191.126 113.626C182.829 98.3332 162.072 92.3384 161.628 92.2105L161.632 92.2074L161.03 83.2143C170.203 82.3819 174.874 76.0482 172.234 64.0434L172.146 64.0657C172.42 56.3281 170.931 48.0384 169.736 42.7795Z" fill="#EDB8FC"/>
<path d="M235.212 33.7032C235.283 33.5946 235.411 33.554 235.529 33.5276C239.257 32.4069 243.025 31.4247 246.825 30.583C249.241 39.6472 246.928 49.4352 242.63 57.6539C239.435 50.0751 236.946 42.2176 235.196 34.1813C235.152 34.0118 235.118 33.827 235.212 33.7042V33.7032Z" fill="#543732"/>
<path d="M209.862 66.6571L205.803 62.5635C205.803 62.5635 206.145 80.4849 201.34 90.5316C201.34 90.5316 200.786 114.325 214.411 114.525C234.173 114.525 232.718 98.4641 232.718 98.4641L236.352 79.4688L209.862 66.6571Z" fill="#FBBB9D"/>
<path d="M236.388 83.2376C236.388 83.2376 226.202 92.9951 214.749 90.5438C207.456 88.9908 203.861 83.1117 203.861 83.1117L206.29 63.6211C206.292 63.6333 228.198 82.455 236.388 83.2376Z" fill="#EFA689"/>
<path d="M203.83 46.3767C203.83 46.3767 203.31 89.4698 226.502 85.7772C249.691 82.0723 245.175 71.7779 243.647 61.456C242.12 51.1331 238.117 32.5561 237.367 28.0818C236.619 23.6086 229.862 17.8178 218.993 22.4291C208.123 27.0414 202.676 37.7784 203.83 46.3777V46.3767Z" fill="#FBBB9D"/>
<path d="M220.063 41.7941C218.915 41.3668 217.647 41.7678 216.501 42.1799C215.737 42.458 214.962 42.7382 214.215 43.0529C213.19 43.4752 212.187 43.9695 211.358 44.7075C211.194 44.8527 211.043 45.008 210.997 45.2273C210.911 45.6252 211.293 45.9937 211.686 46.0475C212.079 46.1013 212.457 45.9439 212.828 45.812C215.305 44.9156 218.14 44.9055 220.285 43.3595C220.53 43.1798 220.791 42.9362 220.801 42.6215C220.802 42.2205 220.417 41.9271 220.063 41.7941ZM231.296 40.0339C230.169 40.0337 229.052 40.2472 228.004 40.6633C227.67 40.8034 227.327 40.9577 227.082 41.2369C226.838 41.516 226.705 41.921 226.83 42.2692C226.952 42.5809 227.254 42.7829 227.564 42.859C227.875 42.9351 228.21 42.9077 228.521 42.8834L229.953 42.7514C231.637 42.6012 233.332 42.4499 234.997 42.1393C235.435 42.0632 235.935 41.9028 236.052 41.4632C236.135 41.1526 235.976 40.8207 235.735 40.6237C235.494 40.4258 235.194 40.3364 234.883 40.2603C233.423 39.905 231.905 39.8549 230.424 40.1131" fill="#543732"/>
<path d="M205.689 36.7188C205.689 36.7188 236.501 39.3782 246.823 30.5698C259.983 19.3313 244.734 -0.0415273 228.285 8.80446C217.691 14.512 211.557 19.3638 200.894 25.0044C198.885 26.0701 185.918 29.9902 193.482 49.0728L205.689 36.7188Z" fill="#543732"/>
<path d="M229.925 56.4541C230.755 57.2458 231.67 58.139 231.747 59.2961C231.845 60.638 230.807 61.7525 229.781 62.5625C228.812 63.3212 227.765 63.9752 226.658 64.5134C226.372 64.6474 226.062 64.7844 225.735 64.7732C225.419 64.76 225.081 64.5499 225.005 64.2201C224.895 63.6943 225.468 63.338 225.903 63.0355C226.527 62.599 226.995 61.9657 227.442 61.3607C227.702 61.0176 227.96 60.6482 228.08 60.233C228.233 59.6879 228.126 59.086 227.94 58.545C227.432 57.0123 226.41 55.7182 225.594 54.3357C225.096 53.4932 224.333 52.1534 224.441 51.1262C224.475 50.8084 224.558 50.3852 224.986 50.4349C225.389 50.4755 225.525 51.1099 225.696 51.4286C226.768 53.344 228.334 54.9508 229.925 56.4541Z" fill="#EFA689"/>
<path d="M219.117 50.1914C219.384 49.897 219.708 49.6828 220.04 49.5306C218.842 48.6819 217.202 48.8017 216.176 49.9143C215.02 51.1548 215.061 53.1302 216.266 54.3402C216.693 54.7727 217.244 55.0629 217.842 55.1714C218.44 55.2798 219.057 55.2012 219.609 54.9462C219.467 54.8471 219.333 54.7375 219.208 54.6183C218.015 53.4185 217.973 51.4309 219.117 50.1914Z" fill="white"/>
<path d="M220.44 49.8584C220.318 49.7359 220.184 49.6261 220.039 49.5305C219.693 49.6906 219.38 49.9148 219.117 50.1914C217.96 51.4318 218.002 53.4072 219.208 54.6173C219.331 54.7411 219.465 54.8507 219.609 54.9462C219.941 54.7939 220.264 54.5675 220.532 54.2853C221.688 53.0448 221.645 51.0562 220.44 49.8584Z" fill="#543732"/>
<path d="M164.249 132.675C164.719 134.098 166.028 135.058 167.475 135.05L186.064 134.887C188.138 134.865 189.69 132.901 189.295 130.78L185.601 110.851L179.312 112.161L182.638 127.371L169.874 128.836L165.014 115.136L161.246 115.922L159.158 117.348L164.249 132.675Z" fill="#43464C"/>
<path d="M233.506 48.0943C233.773 47.7999 234.098 47.5857 234.43 47.4335C233.231 46.5858 231.591 46.7046 230.565 47.8172C229.409 49.0577 229.449 51.0331 230.655 52.2431C231.083 52.6757 231.633 52.9662 232.231 53.0748C232.829 53.1834 233.446 53.105 233.998 52.8501C233.856 52.7507 233.722 52.6408 233.597 52.5212C232.391 51.3102 232.35 49.3338 233.506 48.0943Z" fill="white"/>
<path d="M234.816 47.7511C234.694 47.6283 234.56 47.5181 234.415 47.4222C234.083 47.5745 233.761 47.8008 233.493 48.083C232.336 49.3234 232.377 51.2996 233.583 52.5096C233.707 52.6334 233.84 52.743 233.984 52.8384C234.316 52.6862 234.64 52.4598 234.908 52.1776C236.064 50.9373 236.022 48.961 234.816 47.7511ZM193.498 49.0828C193.498 49.0828 187.496 75.165 203.864 83.1249C203.864 83.1249 206.076 70.4533 206.926 64.3976C207.775 58.3308 206.79 34.1812 206.79 34.1812L193.498 49.0828Z" fill="#543732"/>
<path d="M205.171 30.0247C205.247 30.6672 212.888 61.585 208.314 65.8502C205.076 68.8669 199.083 70.6432 199.083 70.6432L198.836 35.4135L205.171 30.0247Z" fill="#543732"/>
<path d="M310.982 77.4539C310.982 77.4539 309.256 134.477 301.619 140.598C297.797 141.34 288.03 140.694 275.243 125.905C268.894 118.574 261.725 112.067 253.086 108.017L232.715 98.464C232.715 98.464 229.821 113.685 218.942 113.685C208.064 113.685 201.337 90.5316 201.337 90.5316C201.337 90.5316 170.302 96.8725 152.381 115.069C143.754 123.827 131.035 143.461 125.098 161.551C116.807 186.812 113.234 202.259 135.474 213.808C173.277 245.67 244.177 222.346 244.177 222.346L250.781 158.127C250.781 158.127 279.278 183.272 316.476 168.867C342.287 158.872 340.463 75.6096 340.463 75.6096L310.982 77.4539Z" fill="white"/>
<path d="M143.669 191.429C143.301 190.676 169.537 142.161 169.537 142.161L154.145 204.914C154.146 204.927 146.521 197.321 143.669 191.429Z" fill="#D4D0D9"/>
<path d="M218.59 68.9421C222.127 69.8638 225.836 70.5013 229.413 69.8385C229.709 69.7907 230.003 69.7187 230.246 69.54C230.363 69.4526 230.458 69.338 230.52 69.206C230.393 69.0107 230.238 68.8349 230.061 68.6843C228.853 67.6621 227.107 67.794 225.56 67.9778C225.012 68.0427 224.221 68.1869 223.231 67.9778C222.205 67.7747 221.297 67.2428 220.273 67.051C219.63 66.9261 218.925 66.8845 218.388 67.2367C217.951 67.527 217.735 68.0417 217.677 68.5746C217.942 68.7685 218.268 68.869 218.59 68.9421Z" fill="white"/>
<path d="M230.633 71.0483C230.781 70.6667 230.864 70.2434 230.793 69.8505C230.745 69.6289 230.654 69.4188 230.526 69.2313C230.463 69.3627 230.369 69.4769 230.252 69.5642C230.008 69.7429 229.713 69.8028 229.419 69.8637C225.84 70.5134 222.145 69.8871 218.596 68.9674C218.283 68.879 217.947 68.7928 217.683 68.5989C217.647 68.9034 217.66 69.2161 217.744 69.5196C217.985 70.3307 218.581 70.9742 219.223 71.5123C221.46 73.3648 224.492 74.1089 227.267 73.4917C228.651 73.1506 230.083 72.4045 230.633 71.0483Z" fill="#302735"/>
<path d="M317.001 80.4748C317.001 80.4748 307.606 62.8387 305.452 53.0294C304.14 47.056 303.444 44.356 303.315 40.3223C305.307 39.5102 309.202 41.2155 310.521 48.1532C311.634 54.0759 315.382 58.9075 315.382 58.9075C315.382 58.9075 315.358 46.3008 315.824 35.7922C316.129 28.9123 316.242 22.4435 318.549 22.3572C320.749 22.2841 321.029 29.1204 321.451 35.6247C321.839 41.6337 322.681 49.5306 322.681 49.5306C322.681 49.5306 324.733 36.3261 324.983 27.2466C325.104 22.882 327.271 19.9932 328.269 20.0633C329.364 20.1343 329.983 23.018 330.312 26.9025C331.017 35.2796 330.386 48.3654 330.386 48.3654C330.386 48.3654 332.146 40.9242 333.576 33.7591C334.445 29.3823 335.566 25.1009 337.7 25.5992C339.351 25.9799 339.624 30.0085 339.202 34.6838C338.503 42.5259 337.53 54.0475 337.659 53.405C337.777 52.7777 339.906 47.6366 341.334 42.6913C342.029 40.302 343.452 36.4357 345.19 36.9442C345.853 37.1411 345.556 42.064 345.113 45.1376C343.732 54.8534 335.692 79.134 335.692 79.134C335.692 79.134 331.205 81.4838 326.252 81.8461C321.656 82.1791 317.001 80.4748 317.001 80.4748Z" fill="#FBBB9D"/>
<path d="M314.531 75.6291C314.531 75.6291 310.947 76.0291 310.994 77.4401C311.04 78.8511 317 80.4631 317 80.4631L314.531 75.6291ZM337.213 74.2283C337.213 74.2283 340.328 74.4475 340.467 75.622C340.659 77.2411 335.67 79.1242 335.67 79.1242L337.213 74.2283Z" fill="#EFEFEF"/>
</g>
</svg>
