<svg width="303" height="183" viewBox="0 0 303 183" fill="none" xmlns="http://www.w3.org/2000/svg">
<mask id="mask0_1_380" style="mask-type:alpha" maskUnits="userSpaceOnUse" x="0" y="0" width="303" height="183">
<path d="M0.158936 0.0600586H302.663V182.766H0.158936V0.0600586Z" fill="#C4C4C4"/>
</mask>
<g mask="url(#mask0_1_380)">
<path d="M301.613 195.181C303.263 104.796 246.426 35.455 126.568 36.6152C7.34593 37.7713 4.1798 152.398 1.37098 197.788C-1.44292 243.173 25.214 337.05 125.875 337.05C222.136 337.05 300.246 270.082 301.613 195.181Z" fill="#9A48B1"/>
<path d="M127.736 90.3134C124.686 92.6064 121.033 94.2061 117.206 94.9247C110.444 96.1864 102.604 94.9927 97.3815 99.2244C96.0872 100.269 95.0508 101.599 93.7708 102.656C89.9154 105.817 84.2906 106.237 80.0322 108.896C78.6943 109.736 77.4142 110.957 77.3127 112.476C77.1696 114.85 79.9317 116.504 82.4492 116.735C87.0233 117.169 91.3254 114.85 95.8132 113.955C104.129 112.286 112.947 115.541 121.205 113.629C127.147 112.259 132.067 108.367 137.778 106.332C140.842 105.233 144.093 104.69 147.216 103.741C150.337 102.805 153.43 101.381 155.472 98.9676C157.516 96.5528 158.264 92.9718 156.552 90.3276C154.595 87.3028 150.309 86.5162 146.539 86.6248C142.885 86.7334 139.433 86.435 135.85 86.3406C132.57 86.2584 130.168 88.4823 127.736 90.3134Z" fill="#AABC61"/>
<path d="M150.396 54.2829L150.422 147.239H160.547L154.37 52.8416L150.396 54.2829Z" fill="#C9D86F"/>
<path d="M141.26 78.9889L148.049 146.224H157.502L147.757 75.1724L141.26 78.9889Z" fill="#C9D86F"/>
<path d="M137.199 106.371L141.841 147.239L152.426 146.979L143.56 104.608L137.199 106.371Z" fill="#AABC61"/>
<path d="M161.03 37.7004L150.988 148.266L165.263 147.833L165.249 38.3034L161.03 37.7004Z" fill="#AABC61"/>
<path d="M116.289 68.7299C114.811 70.1235 113.67 71.8582 111.967 73.0194C109.364 74.7846 105.957 74.8617 102.807 75.2647C99.6422 75.6666 96.1553 76.7354 94.7727 79.5075C94.3555 80.3429 94.1626 81.2716 93.8083 82.1232C92.3141 85.7002 88.2648 87.4491 84.7941 89.3543C81.3234 91.2585 77.7553 94.4477 78.3989 98.2561C78.4943 98.8601 78.7359 99.4792 79.2018 99.8822C79.8282 100.439 80.7611 100.548 81.6117 100.548C85.5169 100.533 89.1804 98.8601 92.9567 97.8846C98.7093 96.3986 104.768 96.5529 110.698 96.0119C116.627 95.4699 122.797 94.0762 127.152 90.1592C129.032 88.4712 130.495 86.3661 132.455 84.7552C137.983 80.1876 164.641 73.7624 145.76 67.0734C136.842 63.9146 123.938 61.5151 116.289 68.7299Z" fill="#C9D86F"/>
<path d="M131.312 41.8367C126.749 42.1513 122.104 43.5988 118.93 46.6134C117.737 47.7624 116.756 49.1063 115.365 50.0615C113.288 51.4785 110.573 51.7769 108.022 52.2255C103.023 53.0872 98.1642 54.6237 93.5789 56.7932C92.4511 57.3301 91.2574 57.9868 90.7498 59.0465C89.7195 61.1659 92.107 63.5685 94.6103 63.9268C97.1125 64.2851 99.6148 63.3594 102.068 62.792C113.55 60.1062 126.503 64.8373 137.2 60.1955C141.632 58.27 145.263 54.8666 149.975 53.6131C152.362 52.9716 154.947 52.9127 157.187 51.9413C159.427 50.972 161.276 48.5531 160.262 46.4784C159.558 45.0462 157.792 44.3296 156.14 43.882C149.189 41.9717 138.574 41.3444 131.312 41.8367Z" fill="#AABC61"/>
<path d="M155.775 38.7123C153.834 38.5398 151.566 37.8353 150.998 35.9849C150.686 34.9577 151.037 33.827 151.574 32.8972C154.212 28.3001 160.458 27.4292 165.828 27.0841L196.41 25.115C202.478 24.7293 209.335 24.6044 213.722 28.7356C214.815 29.7679 215.745 31.2701 215.306 32.7064C214.783 34.4665 212.643 35.1323 210.818 35.4977C205.991 36.4965 201.148 37.5105 196.321 38.5083C188.216 40.1943 179.638 42.2964 171.302 41.9777C167.835 41.8427 167.155 40.5556 164.445 39.2909C161.67 38.0292 158.874 38.9884 155.775 38.7123Z" fill="#C9D86F"/>
<path d="M130.593 145.234L138.048 194.867H170.664L178.119 145.773L130.593 145.234Z" fill="#A05BBA"/>
<path d="M46.7588 83.9563C46.7588 83.9563 18.831 92.582 6.80591 104.354C-5.21914 116.128 0.479711 173.367 7.12668 180.044C13.7726 186.721 97.6729 182.592 97.6729 182.592L97.9937 156.513L29.9231 154.61" fill="white"/>
<path d="M77.396 88.7594C77.396 88.7594 109.054 105.613 112.859 120.564C116.664 135.515 86.8995 209.622 86.8995 209.622L0.943619 209.139L44.1621 88.1301L77.396 88.7594Z" fill="white"/>
<path d="M85.7645 34.9019C85.8366 34.8146 85.9686 34.7852 86.0843 34.77C89.7874 34.1406 93.519 33.6433 97.2648 33.2769C98.5621 41.9594 95.2092 50.8044 90.1519 57.9502C87.9541 50.5669 86.4606 42.9921 85.6915 35.3272C85.662 35.18 85.662 35.0197 85.7645 34.9019Z" fill="#543732"/>
<path d="M57.6601 62.7088L54.2209 58.4629C54.2209 58.4629 52.5003 75.1409 46.7578 83.9564C46.7578 83.9564 43.5216 105.994 56.582 107.678C69.6415 109.362 75.9829 94.7766 75.9829 94.7766L81.6381 77.5282L57.6611 62.7088H57.6601Z" fill="#FBBB9D"/>
<path d="M81.2483 81.0421C81.2483 81.0421 70.3602 88.9786 59.6325 85.4493C52.8109 83.195 50.0264 77.3524 50.0264 77.3524L54.5741 59.5173C54.5741 59.5173 73.4644 79.4018 81.2483 81.0421Z" fill="#EFA689"/>
<path d="M54.1904 43.219C54.1904 43.219 48.7829 83.196 71.4636 82.3028C94.1433 81.4248 90.9955 71.3648 90.7041 61.6124C90.4118 51.86 88.6922 34.171 88.4881 29.9252C88.2841 25.6783 82.4391 19.5719 71.4778 22.6474C60.5166 25.7229 54.0595 35.1089 54.1904 43.2211V43.219Z" fill="#FBBB9D"/>
<path d="M68.0072 40.6124C66.9575 40.0856 65.6897 40.3201 64.5385 40.583C63.7675 40.7549 62.9996 40.9407 62.2352 41.1402C61.215 41.4183 60.1796 41.7695 59.3056 42.3552C59.131 42.473 58.9706 42.6039 58.8975 42.7947C58.7808 43.1601 59.1006 43.5418 59.466 43.6291C59.8304 43.7316 60.2091 43.6291 60.5877 43.5418C63.0666 42.9845 65.7922 43.2921 68.0366 42.0771C68.2985 41.9309 68.5756 41.7401 68.6193 41.4478C68.6782 41.0966 68.3422 40.7738 68.0072 40.6124ZM82.2208 40.3495C81.1377 40.2246 80.0408 40.2993 78.9846 40.5698C78.6496 40.6571 78.2994 40.7748 78.0375 40.9941C77.7746 41.2285 77.6 41.595 77.6873 41.9309C77.7604 42.2385 78.0375 42.4587 78.3289 42.5603C78.6202 42.6638 78.941 42.678 79.2465 42.6922L80.6464 42.7369C82.2787 42.7805 83.9262 42.8252 85.5585 42.7369C85.9808 42.7074 86.4914 42.6191 86.6518 42.2243C86.7685 41.9462 86.6518 41.6244 86.4325 41.4041C86.2285 41.1991 85.9371 41.0671 85.66 40.9799C84.293 40.4864 82.8407 40.2724 81.3894 40.3505M38.0664 41.0235C40.5585 40.0278 43.0658 39.032 45.3102 37.5673C47.4673 36.1625 49.3331 34.3608 51.4618 32.9114C53.5895 31.4619 56.1111 30.3779 58.662 30.6712C58.4874 33.5843 58.2966 36.5279 57.6418 39.369C56.9861 42.2101 55.7903 44.9923 53.8372 47.1594C55.8481 53.485 54.4787 60.3375 53.0789 66.8388C52.5541 69.2698 52.0293 71.7444 50.9218 73.9704C47.8764 73.3411 45.2077 71.1435 43.9682 68.274C43.0222 66.0633 42.9196 63.5886 43.0222 61.1719C43.0364 60.8795 43.0506 60.5567 42.8902 60.2939C42.7745 60.103 42.5694 59.9711 42.3806 59.8401C41.9854 59.5645 41.6145 59.2555 41.2721 58.9165C40.1798 57.8334 39.4063 56.4723 38.7952 55.0512C36.9142 50.6734 36.6533 45.6064 38.0664 41.0235Z" fill="#543732"/>
<path d="M57.0744 34.4492C57.0744 34.4492 86.3574 40.3201 97.2749 33.2768C111.195 24.3009 98.7621 4.60629 81.9558 11.0193C71.1256 15.1494 64.6837 18.9852 53.8098 23.0413C51.7541 23.8178 38.0237 23.3935 38.0674 41.0236L57.0744 34.4492Z" fill="#543732"/>
<path d="M38.0765 41.0236C38.0765 41.0236 32.5086 18.6635 54.7508 16.6425C72.1549 15.0469 83.0583 25.7068 83.0583 25.7068L63.293 27.8891" fill="#543732"/>
<path d="M78.0812 55.4461C78.7958 56.2662 79.5541 57.2031 79.5094 58.2871C79.4516 59.5458 78.3288 60.4694 77.2508 61.0988C76.2328 61.7016 75.1525 62.1924 74.0288 62.5624C73.7375 62.665 73.4167 62.7533 73.1112 62.6944C72.8046 62.6507 72.499 62.4163 72.4838 62.1087C72.4402 61.6114 73.0239 61.3322 73.4756 61.0988C74.1171 60.7618 74.6419 60.234 75.1515 59.7082C75.4429 59.4138 75.7342 59.1073 75.8946 58.7256C76.0986 58.2283 76.0702 57.672 75.9535 57.1452C75.6469 55.6653 74.8013 54.362 74.175 52.9714C73.7964 52.1371 73.2127 50.8043 73.4319 49.8675C73.505 49.5741 73.636 49.1935 74.0441 49.2818C74.4227 49.3691 74.4816 49.97 74.6125 50.2765C75.3992 52.2254 76.7402 53.8799 78.0812 55.4461Z" fill="#EFA689"/>
<path d="M66.1566 48.3146C66.4479 48.0811 66.7829 47.9055 67.1189 47.803C66.6013 47.3492 65.94 47.093 65.2518 47.0797C64.5636 47.0663 63.8928 47.2966 63.3579 47.7299C62.832 48.1614 62.4729 48.7626 62.3422 49.4302C62.2115 50.0977 62.3174 50.79 62.6418 51.3879C62.9662 51.9859 63.4887 52.4521 64.1196 52.7066C64.7505 52.961 65.4503 52.9877 66.0987 52.7821C65.9748 52.6721 65.8578 52.5545 65.7485 52.4299C65.5035 52.1337 65.3196 51.7918 65.2074 51.4242C65.0953 51.0565 65.0571 50.6702 65.095 50.2877C65.1329 49.9052 65.2463 49.5339 65.4285 49.1954C65.6107 48.857 65.8582 48.5569 66.1566 48.3146Z" fill="white"/>
<path d="M67.4529 48.1391C67.3514 48.0071 67.2347 47.9056 67.1037 47.7878C66.7687 47.8904 66.4337 48.066 66.1414 48.3005C65.8443 48.5438 65.5981 48.8434 65.4168 49.1819C65.2355 49.5205 65.1227 49.8914 65.0848 50.2736C65.0469 50.6557 65.0846 51.0416 65.1959 51.4092C65.3072 51.7767 65.4898 52.1188 65.7333 52.4157C65.8348 52.5477 65.9526 52.6492 66.0835 52.767C66.4185 52.6644 66.7535 52.4888 67.0448 52.2543C68.2843 51.2443 68.4741 49.3988 67.4529 48.1391Z" fill="#543732"/>
<path d="M83.4136 48.0812C83.7049 47.8478 84.0399 47.6711 84.3759 47.5686C83.8583 47.1149 83.197 46.8587 82.5087 46.8453C81.8205 46.8319 81.1497 47.0622 80.6149 47.4955C80.3178 47.7389 80.0716 48.0384 79.8903 48.3769C79.709 48.7155 79.5962 49.0865 79.5583 49.4686C79.5204 49.8508 79.5582 50.2367 79.6694 50.6042C79.7807 50.9718 79.9633 51.3138 80.2068 51.6108C80.5775 52.064 81.0757 52.3956 81.6369 52.5627C82.1981 52.7297 82.7965 52.7245 83.3547 52.5477C83.2313 52.4378 83.1147 52.3205 83.0055 52.1965C82.762 51.8995 82.5794 51.5575 82.4681 51.1899C82.3568 50.8224 82.3191 50.4365 82.3569 50.0543C82.3948 49.6722 82.5077 49.3012 82.689 48.9627C82.8703 48.6241 83.1165 48.3246 83.4136 48.0812Z" fill="white"/>
<path d="M84.7109 47.9054C84.6083 47.7735 84.4926 47.6709 84.3607 47.5542C84.0257 47.6557 83.6907 47.8323 83.3993 48.0658C83.1023 48.3092 82.856 48.6087 82.6747 48.9472C82.4934 49.2858 82.3806 49.6567 82.3427 50.0389C82.3048 50.4211 82.3426 50.807 82.4539 51.1745C82.5652 51.5421 82.7478 51.8841 82.9913 52.1811C83.0928 52.3131 83.2095 52.4156 83.3405 52.5323C83.6755 52.4308 84.0115 52.2542 84.3028 52.0197C85.5412 51.0096 85.7311 49.1642 84.7109 47.9054Z" fill="#543732"/>
<path d="M112.86 120.563C113.298 122.732 119.289 152.12 123.078 170.702C124.638 178.316 118.72 185.842 110.994 185.418L58.7544 185.652L77.397 126.934L112.86 120.563Z" fill="white"/>
<path d="M66.1414 65.022C66.1414 65.022 70.4079 73.0982 78.4679 70.6508C86.5269 68.2044 66.1414 65.022 66.1414 65.022Z" fill="#EFA689"/>
<path d="M10.912 181.317L96.4588 185.315L92.1151 196.502L9.32237 186.72L10.912 181.317ZM27.3731 128.514L29.9089 150.787L96.74 153.291L96.3908 143.304L36.5559 141.561L27.3731 128.514Z" fill="#EFEFEF"/>
<path d="M135.57 158.884C131.096 157.45 123.617 157.215 121.081 155.545C117.32 153.071 121.563 144.915 123.093 141.327C125.003 136.861 124.492 131.253 121.883 130.916C120.557 130.74 119.798 132.41 119.318 133.654C117.16 139.248 115.455 141.693 111.403 146.116C109.873 147.784 106.432 150.742 100.631 152.28C100.194 152.398 96.7979 153.027 96.7248 153.291C94.5819 160.041 93.1678 166.967 91.8126 173.937C92.775 174.069 93.7515 174.215 94.6986 174.435C97.0161 174.962 99.3925 175.401 101.579 176.368C111.564 180.804 122.044 183.235 130.483 179.809C130.92 179.633 131.3 179.296 131.518 178.872C132.159 177.612 130.818 176.265 129.652 175.49C131.678 175.679 133.748 175.46 134.71 173.659C135.483 172.209 134.914 170.32 133.311 170.028C134.491 170.511 136.62 169.076 137.013 167.845C137.406 166.615 136.503 165.722 135.249 164.931C136.605 165.414 138.587 164.185 138.981 162.208C139.214 161.066 137.363 159.469 135.57 158.884Z" fill="#FBBB9D"/>
<path d="M96.742 153.291C96.742 153.291 94.5412 160.641 93.7535 164.185C93.2145 166.615 91.8441 173.937 91.8441 173.937L95.8964 174.654L98.0688 152.895L96.742 153.291Z" fill="#EFA689"/>
<path d="M26.8026 102.319C26.8026 102.319 24.0091 113.044 16.6921 119.316C16.1988 119.745 15.1065 120.682 15.6222 121.956C16.0069 122.905 17.424 122.141 17.9894 121.731C21.6103 119.066 26.8544 113.246 29.8561 105.248C32.2751 98.8062 26.8026 102.319 26.8026 102.319Z" fill="#D4D0D9"/>
<path d="M31.6833 143.529C31.6569 133.085 36.8178 119.107 37.3334 118.607L33.6872 117.312L29.6176 115.141C29.6216 115.861 23.8781 129.916 16.419 137.306C11.0318 142.639 7.48603 145.111 4.94723 150.861C0.067574 161.92 4.96957 167.52 10.8217 169.901C16.8819 172.372 24.1847 173.127 29.5445 161.185C31.9401 155.845 31.6985 151.064 31.6833 143.529Z" fill="#43464C"/>
<path d="M47.514 102.977L29.8845 95.7236L26.4707 102.93L30.1079 105.725C30.9748 106.363 31.525 108.269 31.1768 109.703L29.0339 115.106C28.7608 115.764 28.9181 116.46 29.3881 116.648L36.3701 119.444C36.833 119.63 37.436 119.28 37.8522 118.752L40.8671 111.902C41.3157 110.904 42.3928 110.601 43.1358 110.783L43.9327 110.988C45.4797 111.377 47.5262 110.051 48.4814 108.034C49.5108 105.881 49.0661 103.617 47.514 102.977Z" fill="#EAE9F0"/>
<path d="M29.6074 95.6058C28.237 95.0445 26.4788 96.0677 25.5875 97.9548C24.7247 99.7739 24.9511 101.801 26.1235 102.66L26.4808 102.924L29.8937 95.7165L29.6074 95.6058Z" fill="#D4D0D9"/>
<path d="M42.2842 132.98C41.2345 130.989 37.6634 119.406 37.4299 119.055C37.4299 119.055 35.7834 122.042 34.3399 124.546C33.1593 126.611 28.3497 124.341 27.0087 121.881C26.6291 121.193 26.1916 118.353 26.1916 118.353L23.2183 120.622C22.7069 121.013 22.2785 121.501 21.9582 122.059C21.6378 122.617 21.4319 123.234 21.3525 123.872L20.8856 127.577L19.8075 128.236C18.9422 128.765 18.2301 129.51 17.7419 130.399C17.2536 131.288 17.0062 132.289 17.0241 133.303L17.0525 135.206L16.5571 135.689C15.9027 136.327 15.4439 137.139 15.2348 138.028C15.0257 138.918 15.0748 139.849 15.3765 140.712C16.1839 143.023 17.648 145.048 19.5893 146.54L19.9679 146.832C23.0514 149.197 26.7727 150.585 30.652 150.815L49.4549 151.416L49.864 137.592L42.2842 132.98Z" fill="#FBBB9D"/>
<path d="M27.0107 121.882C27.6959 120.022 29.1526 116.845 29.9109 115.248C26.9813 114.208 21.6032 112.041 20.8155 112.144C19.8684 112.261 17.5651 116.273 26.9519 121.838C26.9684 121.856 26.9884 121.871 27.0107 121.882Z" fill="#FBBB9D"/>
<path d="M201.824 55.6431L218.499 77.8428C228.929 84.0954 240.515 92.4897 238.641 97.9323C235.331 107.565 230.553 153.218 216.813 150.68C175.921 143.143 201.824 55.6431 201.824 55.6431Z" fill="#543732"/>
<path d="M222.54 90.153C222.54 90.153 227.757 99.2882 228.018 106.881C228.018 106.881 231.147 110.354 235.842 109.196C244.841 107.009 247.449 98.0022 247.971 95.557C248.362 93.2407 242.493 77.929 242.493 77.929L222.54 90.153Z" fill="#FBBB9D"/>
<path d="M244.302 67.3454C244.302 67.3454 243.612 94.3411 221.01 90.4363C196.454 86.1904 198.32 63.6923 205.479 52.5685C210.72 44.4442 222.992 40.5638 229.486 43.146C235.992 45.7414 246.284 53.1238 244.302 67.3454Z" fill="#FBBB9D"/>
<path d="M222.798 90.5388C222.537 90.4099 232.839 89.2517 242.751 78.1859L245.099 84.4913C244.968 84.4913 234.274 93.4986 222.798 90.5388ZM208.93 73.0407C208.454 73.8202 208.501 74.8972 208.896 75.7386C209.29 76.5801 209.975 77.1983 210.707 77.6814C211.253 78.0407 211.868 78.3371 212.496 78.3128C212.298 77.855 211.88 77.5698 211.578 77.1861C211.067 76.5304 210.893 75.6026 210.974 74.7368C211.055 73.87 211.334 73.0417 211.659 72.25C212.216 70.8635 211.81 69.2546 211.403 68.9329C211.23 69.9103 211.23 70.2697 210.696 71.2593C210.289 72.0389 209.383 72.2987 208.93 73.0407Z" fill="#EFA689"/>
<path d="M217.491 65.2362C217.04 65.3463 216.634 65.5948 216.331 65.9468C217.312 66.0839 218.017 66.6939 218.283 67.6887C218.516 68.5587 218.305 69.2815 217.649 69.857C217.935 69.9139 218.186 69.8469 218.564 69.7454C219.824 69.4073 220.565 68.1425 220.232 66.9C220.058 65.7478 218.751 64.8992 217.491 65.2362Z" fill="#F5F7FF"/>
<path d="M218.283 67.6885C218.016 66.6937 217.186 66.1171 216.331 65.9465C215.801 66.4886 215.496 67.3687 215.696 68.1148C215.963 69.1096 216.793 69.6862 217.648 69.8568C218.338 69.405 218.515 68.5584 218.283 67.6885Z" fill="#543732"/>
<path d="M205.643 65.2533C205.191 65.3632 204.785 65.6117 204.482 65.9639C205.464 66.1009 206.167 66.711 206.434 67.7058C206.668 68.5758 206.456 69.2985 205.8 69.8741C206.085 69.931 206.337 69.864 206.715 69.7625C207.975 69.4244 208.716 68.1596 208.383 66.9171C208.21 65.7649 206.901 64.9163 205.643 65.2533Z" fill="#F5F7FF"/>
<path d="M206.56 67.6713C206.293 66.6775 205.464 66.101 204.608 65.9304C204.078 66.4725 203.774 67.3526 203.974 68.0987C204.241 69.0935 205.07 69.6701 205.926 69.8406C206.489 69.4234 206.793 68.5413 206.56 67.6713Z" fill="#543732"/>
<path d="M222.798 78.8306C222.667 78.7016 222.407 78.5727 222.146 78.4448C222.276 78.7016 222.276 78.9595 222.276 79.0874C222.276 79.3452 222.015 79.731 221.885 79.8589C221.103 80.8892 219.668 81.4039 218.364 81.7896C217.451 82.0475 216.669 82.3043 215.756 82.691C215.234 82.9479 214.713 83.2057 214.191 83.3346C213.669 83.4625 213.017 83.4625 212.625 83.2057C212.625 83.2057 212.496 83.2057 212.496 83.0768C212.625 83.4625 212.886 83.8483 213.147 84.1061C213.93 84.8776 214.973 85.1354 216.016 85.1354C217.973 85.2644 220.059 84.6208 221.624 83.4625C222.407 82.82 223.189 82.1764 223.45 81.1471C223.841 80.5035 223.581 79.4741 222.798 78.8306Z" fill="#513C34"/>
<path d="M214.327 83.4623C214.848 83.3334 215.369 83.0765 215.891 82.8187C216.674 82.433 217.586 82.1751 218.5 81.9183C219.803 81.5326 221.108 81.0169 222.02 79.9876C222.151 79.7297 222.412 79.4729 222.412 79.2161C222.412 78.9582 222.412 78.7004 222.281 78.5725C221.759 78.3146 221.108 78.3146 220.586 78.4436C218.63 78.7004 216.935 79.7297 215.108 80.3733C214.327 80.6311 213.283 80.888 212.891 81.6605C212.501 82.1751 212.501 82.8187 212.761 83.3334C212.761 83.3334 212.891 83.3334 212.891 83.4623C213.283 83.5912 213.805 83.5912 214.327 83.4623Z" fill="white"/>
<path d="M236.626 67.7638C236.626 67.7638 236.626 63.6465 238.582 63.6465C240.538 63.6465 240.538 65.5762 240.538 65.5762C240.538 65.5762 239.755 64.6758 238.712 64.9326C237.278 65.3184 236.626 67.7648 236.626 67.7648V67.7638ZM238.314 73.0393C238.314 73.0393 242.748 72.2679 243.009 68.4074C243.009 68.4074 243.401 70.9807 243.009 72.1389C242.487 72.9104 240.14 73.9408 238.314 73.0393Z" fill="#EFAB95"/>
<path d="M199.453 123.223C199.453 123.223 182.631 174.177 200.106 173.921C217.581 173.663 228.405 139.693 228.405 139.693L216.929 122.708L199.453 123.223Z" fill="#8EADAA"/>
<path d="M237.758 71.1567C235.774 66.447 227.827 65.3304 220.332 61.2947C215.758 58.8332 212.416 53.1156 212.167 49.9355C210.434 52.5796 208.856 54.5681 205.999 59.1702C202.096 65.438 198.349 69.3672 198.349 69.3672C198.349 69.3672 188.059 38.8808 221.504 34.7679C234.229 33.2088 252.449 38.8808 260.397 70.8512C260.397 70.8512 267.658 101.322 271.062 105.481C274.465 109.64 301.586 122.115 287.705 138.398C281.82 145.294 265.097 148.244 253.699 120.54C243.894 96.7812 237.758 71.1567 237.758 71.1567Z" fill="#543732"/>
<path d="M248.129 46.7107C248.723 45.8094 252.938 20.8275 243.524 19.0227C234.108 17.2342 227.348 35.7646 227.348 35.7646L248.129 46.7107Z" fill="#543732"/>
<path d="M249.315 39.694C248.877 39.5864 230.188 29.4807 230.188 29.4807L228.267 33.1805L248.799 44.8462L249.315 39.694Z" fill="#ACDDDD"/>
<path d="M247.839 94.1411C247.839 94.1411 243.927 103.921 227.625 104.049C227.625 104.049 208.454 128.111 210.54 144.196C212.627 160.281 222.147 164.012 222.278 173.277C222.538 182.541 213.54 208.405 213.54 208.405C213.54 208.405 245.575 201.329 265.658 193.094C271.345 194.12 280.901 194.762 283.64 192.703C279.206 179.964 267.27 162.725 264.4 154.49C262.575 149.215 261.402 144.839 261.402 141.108C261.271 130.427 258.271 108.295 247.839 94.1411Z" fill="#99C6C4"/>
<path d="M247.834 94.1411C247.834 94.1411 243.921 103.921 227.62 104.049C227.62 104.049 214.771 126.958 216.857 143.043C218.945 159.127 228.464 162.859 228.595 172.124C228.856 181.388 219.857 207.252 219.857 207.252C228.364 213.547 245.059 203.689 251.191 199.081C246.757 186.342 231.464 159.734 228.594 151.499C226.769 146.224 225.596 141.849 225.596 138.117C225.465 127.437 234.772 110.756 247.834 94.1411Z" fill="white"/>
<path d="M207.149 123.352C207.149 123.352 196.456 173.792 213.018 176.108C229.58 178.424 248.49 142.781 253.967 129.528C259.445 116.274 240.535 110.87 240.535 110.87L220.451 147.027L223.831 122.483L207.149 123.352Z" fill="#99C6C4"/>
<path d="M254.883 131.458C254.883 131.458 246.636 150.017 244.941 153.362L256.839 141.237L254.883 131.458Z" fill="#8EADAA"/>
<path d="M203.502 101.734C202.067 101.734 199.328 101.477 198.155 102.377C196.851 103.406 195.677 104.436 194.373 107.138C191.634 112.285 198.676 116.532 199.458 123.223C201.024 123.351 205.327 123.094 206.892 123.223C209.761 123.351 208.457 123.351 210.935 122.193C211.717 117.947 210.543 113.443 209.631 109.325C209.37 108.425 209.109 107.652 208.718 106.881C208.326 106.108 207.675 105.594 207.153 104.822C206.631 104.05 206.37 103.15 206.762 102.377" fill="#EFA689"/>
<path d="M217.978 95.1714C217.978 95.1714 218.108 91.1823 216.413 91.568C214.718 91.9537 212.761 98.0023 212.761 98.0023L213.805 104.693L216.022 106.366L217.717 103.021L217.978 95.1714Z" fill="#EFAB95"/>
<path d="M207.152 123.352L220.063 122.708C220.063 122.708 222.28 109.326 222.28 106.753C222.28 104.179 220.846 98.2602 220.846 93.8854C218.629 92.2127 216.542 95.9439 216.803 98.2602C217.064 100.577 217.324 102.635 217.324 102.635C217.324 102.635 214.716 91.6981 210.934 92.2127C208.978 92.4695 207.805 95.816 207.805 95.816C207.805 95.816 206.369 94.4001 204.805 95.5582C203.501 96.5875 203.891 98.3891 203.891 98.3891C203.891 98.3891 202.457 96.9732 201.023 97.8745C200.371 98.2602 199.588 100.191 200.11 101.091C197.632 100.705 197.24 103.279 197.24 103.279C197.24 103.279 198.937 104.179 199.327 107.139C199.327 114.602 207.152 123.352 207.152 123.352Z" fill="#FBBB9D"/>
<path d="M222.406 173.277C222.406 173.277 233.099 166.586 237.924 159.508C237.924 159.508 231.013 175.335 222.406 179.067V173.277Z" fill="#8EADAA"/>
<path d="M239.754 174.951C239.754 174.951 236.364 194.766 233.886 202.744L244.579 199.399L239.754 174.951Z" fill="#EFEFEF"/>
<path d="M248.882 171.475C248.882 171.475 253.446 185.501 254.62 196.052L258.793 194.508C260.619 193.865 265.314 191.935 265.314 191.935L248.882 171.475Z" fill="#8EADAA"/>
<path d="M228.013 102.634C228.013 102.634 222.405 118.589 227.621 119.49C232.837 120.391 247.966 94.1411 247.966 94.1411L228.013 102.634Z" fill="#FBBB9D"/>
</g>
</svg>
