<svg width="15" height="14" viewBox="0 0 15 14" fill="none" xmlns="http://www.w3.org/2000/svg">
<path d="M6.96635 4.58334L9.29968 0.583344C10.3108 0.85001 11.2081 1.3389 11.9917 2.05001C12.7752 2.76112 13.3446 3.60557 13.6997 4.58334H6.96635ZM5.11635 6.25001L2.83302 2.25001C3.43302 1.66112 4.13035 1.19445 4.92502 0.85001C5.71968 0.505566 6.5779 0.333344 7.49968 0.333344C7.64413 0.333344 7.81079 0.341788 7.99968 0.358677C8.18857 0.375566 8.36079 0.394899 8.51635 0.416677L5.11635 6.25001ZM1.04968 8.66668C0.983015 8.40001 0.930126 8.12779 0.891015 7.85001C0.851904 7.57223 0.832571 7.2889 0.833015 7.00001C0.833015 6.21112 0.960793 5.46668 1.21635 4.76668C1.4719 4.06668 1.83302 3.42779 2.29968 2.85001L5.66635 8.66668H1.04968ZM5.71635 13.4167C4.70524 13.15 3.80524 12.6611 3.01635 11.95C2.22746 11.2389 1.65524 10.3945 1.29968 9.41668H8.01635L5.71635 13.4167ZM7.49968 13.6667C7.33302 13.6667 7.16346 13.6556 6.99102 13.6333C6.81857 13.6111 6.65479 13.5889 6.49968 13.5667L9.88302 7.75001L12.1663 11.75C11.5663 12.3389 10.869 12.8056 10.0743 13.15C9.27968 13.4945 8.42146 13.6667 7.49968 13.6667ZM12.6997 11.15L9.33302 5.33334H13.9497C14.0163 5.60001 14.0692 5.87223 14.1083 6.15001C14.1475 6.42779 14.1668 6.71112 14.1663 7.00001C14.1663 7.77779 14.0301 8.52223 13.7577 9.23334C13.4852 9.94446 13.1326 10.5833 12.6997 11.15Z" fill="#888888"/>
</svg>
