<svg width="25" height="24" viewBox="0 0 25 24" fill="none" xmlns="http://www.w3.org/2000/svg">
<g clip-path="url(#clip0_3_3251)">
<path d="M19.3212 9.22951V19.2713M12.2187 4.72951V14.7713M5.11621 9.37501V19.2713" stroke="#6D72F6" stroke-width="1.2" stroke-linecap="round"/>
<path d="M10.1878 17.2402C10.1878 18.3619 11.0971 19.2712 12.2188 19.2712C13.3404 19.2712 14.2498 18.3619 14.2498 17.2402C14.2498 16.1186 13.3404 15.2092 12.2188 15.2092C11.0971 15.2092 10.1878 16.1186 10.1878 17.2402Z" stroke="#6D72F6" stroke-width="1.2" stroke-linecap="round"/>
<path d="M3.08522 6.76051C3.08522 7.8822 3.99453 8.79151 5.11622 8.79151C6.23791 8.79151 7.14722 7.8822 7.14722 6.76051C7.14722 5.63882 6.23791 4.72951 5.11622 4.72951C3.99453 4.72951 3.08522 5.63882 3.08522 6.76051Z" stroke="#6D72F6" stroke-width="1.2" stroke-linecap="round"/>
<path d="M17.2903 6.76049C17.2903 7.88218 18.1996 8.79149 19.3213 8.79149C20.443 8.79149 21.3523 7.88218 21.3523 6.76049C21.3523 5.6388 20.443 4.72949 19.3213 4.72949C18.1996 4.72949 17.2903 5.6388 17.2903 6.76049Z" stroke="#6D72F6" stroke-width="1.2" stroke-linecap="round"/>
</g>
<defs>
<clipPath id="clip0_3_3251">
<rect width="24" height="24" fill="white" transform="translate(0.21875)"/>
</clipPath>
</defs>
</svg>
