<svg width="17" height="14" viewBox="0 0 17 14" fill="none" xmlns="http://www.w3.org/2000/svg">
<g clip-path="url(#clip0_3_1677)">
<path fill-rule="evenodd" clip-rule="evenodd" d="M12.8874 1.46069H6.19066C5.59728 1.46069 5.11764 1.84809 5.11764 2.32736L5.11743 8.39403C6.48016 8.39403 7.26367 9.2858 7.26367 10.3873V12.4673L8.23368 12.5982C9.41082 12.7559 10.4827 12.0236 10.4827 11.059V8.82736H13.9293C14.9293 8.82736 15.6879 8.09763 15.5141 7.30116L14.4733 2.53449C14.337 1.91309 13.6696 1.46069 12.8874 1.46069Z" stroke="#B5ADBE" stroke-width="0.866667"/>
<path fill-rule="evenodd" clip-rule="evenodd" d="M4.04449 1.46069H1.89846C1.30508 1.46069 0.825439 1.84809 0.825439 2.32736V7.96068C0.825439 8.43995 1.30508 8.82735 1.89846 8.82735H4.04449C4.63787 8.82735 5.11751 8.43995 5.11751 7.96068V2.32736C5.11751 1.84809 4.63787 1.46069 4.04449 1.46069Z" stroke="#B5ADBE" stroke-width="0.866667"/>
</g>
<defs>
<clipPath id="clip0_3_1677">
<rect width="16.4667" height="13" fill="white" transform="translate(0 0.59375)"/>
</clipPath>
</defs>
</svg>
