<svg width="14" height="9" viewBox="0 0 14 9" fill="none" xmlns="http://www.w3.org/2000/svg">
<path d="M13.4184 4.15781C12.1474 1.67789 9.63116 0 6.74999 0C3.86882 0 1.35186 1.67906 0.0815497 4.15805C0.0279345 4.2641 0 4.38128 0 4.50012C0 4.61896 0.0279345 4.73613 0.0815497 4.84219C1.35257 7.32211 3.86882 9 6.74999 9C9.63116 9 12.1481 7.32094 13.4184 4.84195C13.472 4.7359 13.5 4.61872 13.5 4.49988C13.5 4.38104 13.472 4.26387 13.4184 4.15781ZM6.74999 7.875C6.08248 7.875 5.42995 7.67706 4.87494 7.30621C4.31992 6.93536 3.88734 6.40826 3.63189 5.79156C3.37645 5.17486 3.30961 4.49626 3.43984 3.84157C3.57006 3.18688 3.8915 2.58552 4.3635 2.11351C4.8355 1.64151 5.43687 1.32007 6.09156 1.18985C6.74624 1.05962 7.42484 1.12646 8.04154 1.38191C8.65824 1.63735 9.18535 2.06993 9.5562 2.62495C9.92705 3.17997 10.125 3.83249 10.125 4.5C10.1252 4.94327 10.0381 5.38224 9.86852 5.79181C9.69899 6.20138 9.45039 6.57353 9.13695 6.88697C8.82351 7.20041 8.45137 7.449 8.0418 7.61853C7.63223 7.78807 7.19326 7.87522 6.74999 7.875ZM6.74999 2.25C6.54916 2.25281 6.34963 2.28269 6.15678 2.33883C6.31574 2.55485 6.39202 2.82068 6.37179 3.08811C6.35156 3.35555 6.23616 3.60688 6.04651 3.79652C5.85686 3.98617 5.60553 4.10157 5.3381 4.1218C5.07066 4.14203 4.80483 4.06575 4.58882 3.9068C4.46581 4.35998 4.48801 4.84033 4.6523 5.28023C4.81659 5.72014 5.1147 6.09745 5.50466 6.35905C5.89462 6.62066 6.3568 6.75339 6.82615 6.73856C7.2955 6.72374 7.74838 6.5621 8.12105 6.2764C8.49372 5.9907 8.76742 5.59533 8.90362 5.14593C9.03982 4.69654 9.03166 4.21574 8.88029 3.77123C8.72893 3.32671 8.44197 2.94085 8.05982 2.66796C7.67767 2.39507 7.21957 2.24889 6.74999 2.25Z" fill="#888888"/>
</svg>
