<svg width="140" height="104" viewBox="0 0 140 104" fill="none" xmlns="http://www.w3.org/2000/svg">
<g clip-path="url(#clip0_3_1541)">
<mask id="mask0_3_1541" style="mask-type:luminance" maskUnits="userSpaceOnUse" x="0" y="-8" width="140" height="136">
<path d="M140 -8H0V128H140V-8Z" fill="white"/>
</mask>
<g mask="url(#mask0_3_1541)">
<path d="M138.319 128.907C138.319 128.907 138.786 90.5796 122.163 76.454C116.092 71.2747 107.967 67.037 97.0402 65.1536C78.3618 63.1761 70.8904 64.4003 70.8904 64.4003C70.8904 64.4003 39.9777 72.6872 35.4949 96.1356C33.5337 106.683 35.2147 125.328 41.7522 138.135C51.0914 156.499 68.3689 151.696 75.6534 147.835C78.8287 146.14 82.1909 143.691 86.2067 140.584C120.482 137.194 138.319 128.907 138.319 128.907Z" fill="#537CC7"/>
<path d="M64.6332 28.333C64.6332 28.333 59.4033 49.4271 69.7698 55.2656C80.1363 61.1042 79.2957 40.0101 79.2957 40.0101L64.6332 28.333Z" fill="#353338"/>
<path d="M61.9248 67.8847C61.9248 67.8847 71.6376 107.813 73.0384 120.149C86.6736 105.835 93.3045 92.7456 93.3045 92.7456L99.0947 94.1581L104.605 88.1313L100.963 65.813C100.963 65.813 89.9423 62.0462 81.7239 62.2345C73.5054 62.4228 61.9248 67.8847 61.9248 67.8847Z" fill="#F98E70"/>
<path d="M66.8743 25.3196C66.9677 25.8846 68.929 58.5617 90.3157 55.454C111.702 52.3464 107.126 31.064 106.473 22.5887C105.819 14.1134 97.6937 0.458732 85.9263 3.75469C74.1589 7.05064 65.847 13.8309 66.8743 25.3196Z" fill="#FBBB9D"/>
<path d="M72.0109 44.7185C72.0109 44.7185 71.6374 62.4225 70.8902 64.4001C70.1431 66.4718 75.0929 79.844 85.4593 80.0323C95.8258 80.2206 97.0399 65.0592 97.0399 65.0592L98.5342 46.9786L72.0109 44.7185Z" fill="#FBBB9D"/>
<path d="M98.0675 52.723C98.0675 52.723 81.4437 59.7857 72.0111 46.4136L71.731 58.4673C71.731 58.4673 89.382 68.0727 98.0675 52.723Z" fill="#EFA689"/>
<path d="M93.5844 13.36C93.5844 13.36 85.6461 21.9295 73.1316 25.6963C73.1316 25.6963 77.1474 38.5976 71.6373 45.0953C71.6373 45.0953 64.166 42.176 64.7263 23.907C65.2867 5.44971 86.113 2.24792 86.113 2.24792C86.113 2.24792 100.682 2.53045 105.725 11.1941C110.768 19.8577 107.22 29.1806 107.22 29.1806C107.22 29.1806 104.231 15.6201 93.5844 13.36Z" fill="#353338"/>
<path d="M104.045 12.0416L99.4684 -2.74307C98.6279 -5.474 95.9195 -7.3574 93.1178 -7.07489L83.405 -6.4157C81.9107 -6.32153 80.5098 -5.75651 79.2957 -4.90898L75.3733 -2.17805C75.8403 0.364545 77.8949 13.6425 78.642 18.4452L104.045 12.0416Z" fill="#E8E8E8"/>
<path d="M63.6055 10.1582L64.8196 21.8353L78.735 18.351C77.9878 13.5484 75.9332 0.270378 75.4662 -2.27222L66.5006 3.84884C64.446 5.26139 63.3253 7.70981 63.6055 10.1582Z" fill="#D8D8D8"/>
<path d="M64.8198 21.8352L107.5 14.2074L113.29 9.68722C115.345 8.55718 114.971 5.35539 112.636 4.79037L105.352 3.09531C99.188 1.68276 92.6506 2.90697 87.4207 6.48543L64.8198 21.8352Z" fill="#B2ACAB"/>
<path d="M80.9769 26.073C80.6033 26.073 80.2298 25.9789 79.9496 25.7905C79.6694 25.6022 79.4826 25.0372 79.6694 24.7547C79.7628 24.5663 80.043 24.4722 80.3232 24.378C82.7513 23.7188 85.2729 23.7188 87.7945 23.6246C88.3548 23.6246 88.9152 23.6246 89.4756 23.9071C89.8491 24.0955 90.1293 24.5663 90.0359 25.0372C89.9425 25.6022 89.2888 25.7905 88.8218 25.7905C86.2068 26.1672 83.5919 26.2614 80.9769 26.073Z" fill="#353338"/>
<path d="M97.7874 23.4364C99.6553 23.3422 101.616 23.5305 103.484 23.813C103.951 23.9072 104.605 24.0956 104.605 24.5664C104.605 25.0373 104.045 25.3198 103.671 25.4139C101.43 25.8848 99.1883 25.8848 96.9469 25.6023C96.48 25.5081 96.013 25.4139 95.8262 25.0373C95.6394 24.6606 95.8262 24.0956 96.1998 23.813C96.5733 23.5305 97.0403 23.5305 97.5073 23.4364C97.9742 23.3422 97.3205 23.5305 97.7874 23.4364Z" fill="#353338"/>
<path d="M94.892 33.0413C94.3317 32.1938 94.0515 31.0637 94.0515 30.0279C94.0515 29.6512 94.2383 29.6512 94.3317 30.0279C94.5185 30.4987 94.7053 30.9696 94.9854 31.3463C95.5458 32.0996 96.1995 32.6646 96.9466 33.1355C97.507 33.5122 98.1607 33.8888 98.4409 34.4539C99.0013 35.3956 98.7211 36.7139 97.8806 37.4673C97.2268 38.1265 96.2929 38.409 95.359 38.5032C95.1722 38.5032 95.0788 38.3148 95.2656 38.2207C95.8259 37.6556 96.3863 36.9965 96.4797 36.1489C96.4797 35.5839 96.1995 34.9247 95.9193 34.4539C95.6392 34.0772 95.1722 33.6063 94.892 33.0413Z" fill="#EFA689"/>
<path d="M91.81 46.4136C89.5686 46.4136 87.1404 45.6603 85.0857 43.0235C84.899 42.741 84.899 42.2702 85.1791 42.0818C85.4593 41.8935 85.9263 41.8935 86.1131 42.176C88.8214 45.5661 92.0901 45.2836 94.6117 44.7186C94.9853 44.6244 95.3589 44.8128 95.4523 45.1894C95.5456 45.5661 95.3589 45.9428 94.9853 46.037C93.958 46.2253 92.9307 46.4136 91.81 46.4136Z" fill="#EFA689"/>
<path d="M64.8199 21.8354C64.8199 21.8354 56.2279 32.5708 63.886 45.378C71.5441 58.1852 69.4895 25.0373 69.4895 25.0373L64.8199 21.8354Z" fill="#353338"/>
<path d="M67.0614 32.4765C67.0614 32.4765 65.3804 29.7455 63.5125 31.3464C61.3645 33.2298 64.7266 38.6917 66.5945 38.6917C67.3416 36.1491 67.0614 32.4765 67.0614 32.4765Z" fill="#FBBB9D"/>
<path d="M133.463 77.4895C133.463 77.4895 139.346 75.9828 139.066 73.2519C138.786 70.5209 133.463 70.5209 133.463 70.5209C133.463 70.5209 138.132 68.8259 137.852 66.3774C137.479 62.1398 119.734 64.8707 119.734 64.8707C119.734 64.8707 121.228 56.9604 121.695 53.7586C122.629 47.7317 121.322 45.2833 120.108 44.4358V44.53C120.108 44.53 119.734 51.3102 116.372 51.1219C116.279 51.1219 116.279 51.1219 116.185 51.1219C116.092 51.4044 115.998 51.7811 115.905 52.0636C115.065 54.7003 110.675 63.6465 109.741 65.3416C108.714 67.0366 104.324 78.5254 101.99 83.5164C100.028 87.6599 95.7324 96.1352 95.7324 96.1352C95.7324 96.1352 99.0011 98.9603 102.737 100.844C106.192 102.539 111.235 102.633 111.235 102.633L117.119 91.7092C117.119 91.7092 134.77 89.7316 135.424 86.4357C135.891 84.1756 131.688 83.7989 131.688 83.7989C131.688 83.7989 138.506 83.4222 138.506 79.9379C138.413 77.1128 133.463 77.4895 133.463 77.4895Z" fill="#FBBB9D"/>
<path d="M120.201 44.53C119.547 43.965 118.987 43.965 118.8 44.0591C117.306 45.3775 117.025 48.2968 116.278 51.0277C116.372 51.0277 116.372 51.0277 116.465 51.0277C119.827 51.3102 120.201 44.53 120.201 44.53Z" fill="#FFE1D7"/>
<path d="M97.3201 93.0278C97.3201 93.0278 94.0514 91.8036 93.3043 92.7453C92.5571 93.687 95.7325 96.1354 95.7325 96.1354L97.3201 93.0278Z" fill="#325B96"/>
<path d="M112.637 99.9021C112.637 99.9021 115.252 101.503 115.065 102.351C114.878 103.198 111.236 102.633 111.236 102.633L112.637 99.9021Z" fill="#325B96"/>
<path d="M47.0366 37.0641C48.2402 36.5669 35.3775 39.4805 26.2249 27.5454H26.1615C16.9593 39.4417 4.1104 36.4752 5.31128 36.978C0.717072 72.5806 20.1626 68.0449 25.9081 78.1885C25.9081 78.1885 26.0266 78.644 26.0899 78.5246C26.1533 78.6468 26.2717 78.1913 26.2717 78.1913C32.0585 68.0699 51.4848 72.6862 47.0366 37.0641Z" fill="#99CE65"/>
<path d="M14.0038 50.6584C12.6775 51.7163 20.0447 63.9512 24.0214 63.0428C27.998 62.1321 38.3577 44.3518 36.7563 43.0787C35.155 41.8056 23.4779 56.4032 23.4779 56.4032C23.4779 56.4032 15.3614 49.5778 14.0038 50.6584Z" fill="#F7F9A7"/>
<path d="M100.631 33.3164C102.048 33.3164 103.196 32.1603 103.196 30.7341C103.196 29.308 102.048 28.1519 100.631 28.1519C99.214 28.1519 98.0654 29.308 98.0654 30.7341C98.0654 32.1603 99.214 33.3164 100.631 33.3164Z" fill="white"/>
<mask id="mask1_3_1541" style="mask-type:alpha" maskUnits="userSpaceOnUse" x="98" y="28" width="6" height="6">
<path d="M100.631 33.3164C102.048 33.3164 103.196 32.1603 103.196 30.7341C103.196 29.308 102.048 28.1519 100.631 28.1519C99.214 28.1519 98.0654 29.308 98.0654 30.7341C98.0654 32.1603 99.214 33.3164 100.631 33.3164Z" fill="white"/>
</mask>
<g mask="url(#mask1_3_1541)">
<path d="M102.342 33.3164C103.759 33.3164 104.907 32.1603 104.907 30.7341C104.907 29.308 103.759 28.1519 102.342 28.1519C100.925 28.1519 99.7764 29.308 99.7764 30.7341C99.7764 32.1603 100.925 33.3164 102.342 33.3164Z" fill="#302735"/>
</g>
<path d="M85.2384 33.3164C86.6553 33.3164 87.8039 32.1603 87.8039 30.7341C87.8039 29.308 86.6553 28.1519 85.2384 28.1519C83.8215 28.1519 82.6729 29.308 82.6729 30.7341C82.6729 32.1603 83.8215 33.3164 85.2384 33.3164Z" fill="white"/>
<mask id="mask2_3_1541" style="mask-type:alpha" maskUnits="userSpaceOnUse" x="82" y="28" width="6" height="6">
<path d="M85.2384 33.3164C86.6553 33.3164 87.8039 32.1603 87.8039 30.7341C87.8039 29.308 86.6553 28.1519 85.2384 28.1519C83.8215 28.1519 82.6729 29.308 82.6729 30.7341C82.6729 32.1603 83.8215 33.3164 85.2384 33.3164Z" fill="white"/>
</mask>
<g mask="url(#mask2_3_1541)">
<path d="M86.9488 33.3164C88.3657 33.3164 89.5143 32.1603 89.5143 30.7341C89.5143 29.308 88.3657 28.1519 86.9488 28.1519C85.5319 28.1519 84.3833 29.308 84.3833 30.7341C84.3833 32.1603 85.5319 33.3164 86.9488 33.3164Z" fill="#302735"/>
</g>
</g>
</g>
<defs>
<clipPath id="clip0_3_1541">
<rect width="140" height="104" fill="white"/>
</clipPath>
</defs>
</svg>
