<svg width="722" height="243" viewBox="0 0 722 243" fill="none" xmlns="http://www.w3.org/2000/svg">
<g clip-path="url(#clip0_3_1199)">
<mask id="mask0_3_1199" style="mask-type:luminance" maskUnits="userSpaceOnUse" x="8" y="141" width="117" height="116">
<path d="M124.5 141H8.5V257H124.5V141Z" fill="white"/>
</mask>
<g mask="url(#mask0_3_1199)">
<mask id="mask1_3_1199" style="mask-type:luminance" maskUnits="userSpaceOnUse" x="-3" y="141" width="128" height="126">
<path d="M124.5 141H-2.76221V266.915H124.5V141Z" fill="white"/>
</mask>
<g mask="url(#mask1_3_1199)">
<path d="M94.238 240.9L102.421 248.295C102.421 248.295 94.7781 256.854 84.5119 261.087C75.8343 264.669 76.1449 246.815 76.1449 246.815L80.3072 240.603L94.238 240.9Z" fill="#CCCFE2"/>
<path d="M29.7384 239.067L15.8677 252.779C15.8677 252.779 25.735 260.929 35.9271 263.885L39.7081 243.013L29.7384 239.067Z" fill="#CCCFE2"/>
<path d="M84.515 261.087C84.515 261.087 69.8217 267.785 56.4946 266.533L60.4733 238.367L76.8683 232.616C76.8683 232.616 95.5615 230.385 97.7185 214.392C99.8756 198.399 86.3437 192.498 86.3437 192.498L99.6285 179.583C99.6285 179.583 117.111 195.352 114.046 215.035C111.173 233.491 95.8545 243.072 81.5248 246.892L84.515 261.087Z" fill="#DCDBE8"/>
<path d="M27.7578 181.168L39.5527 195.657C39.5527 195.657 29.6254 202.345 32.4461 215.753C34.4125 225.099 43.2384 228.685 43.2384 228.685L61.335 234.292L56.4949 266.537C56.4949 266.537 43.3373 266.694 35.927 263.889L39.242 244.856C39.242 244.856 17.6257 240.833 13.3928 218.712C8.7963 194.712 27.7578 181.168 27.7578 181.168Z" fill="#DCDBE8"/>
<path d="M55.4498 234.554L51.0298 266.526C51.0298 266.526 61.0454 267.733 69.437 265.876L67.2729 235.296L55.4498 234.554Z" fill="#E5E4EF"/>
<path d="M27.7578 181.168C27.7578 181.168 27.892 187.072 31.0305 190.836C34.1689 194.6 37.8334 196.867 39.5527 195.653C41.272 194.439 36.6402 188.821 34.7867 186.327C32.9368 183.837 29.3747 179.821 27.7578 181.168Z" fill="#CCCFE2"/>
<path d="M99.6287 179.58C101.189 181.311 99.318 184.729 95.5582 188.055C91.7983 191.382 88.3986 193.907 86.3439 192.494C84.2857 191.081 89.9237 184.61 90.5098 184.064C91.0958 183.518 97.0162 176.68 99.6287 179.58Z" fill="#CCCFE2"/>
<path d="M94.3542 178.282C94.0894 176.106 94.8732 172.786 95.0497 170.334C95.1379 169.085 94.8379 167.623 94.4071 166.514C93.9094 167.917 93.3339 169.295 92.7338 170.607C92.469 171.81 91.9041 173.419 91.9041 173.419L91.8265 172.52C90.5591 175.102 89.327 177.327 88.6668 178.852C87.4029 181.766 89.4788 184.722 91.4805 187.933C92.6667 188.234 93.7046 188.643 94.4354 189.203C94.4354 189.203 97.8704 186.663 99.3673 183.578C99.3638 183.581 94.619 180.461 94.3542 178.282Z" fill="#EFEEF4"/>
<path fill-rule="evenodd" clip-rule="evenodd" d="M37.8367 161.729C37.7026 161.47 37.3495 161.463 37.1977 161.712C37.0636 161.932 36.8976 162.23 36.7141 162.583L36.717 162.587C36.3111 163.374 35.8277 164.462 35.4572 165.78C34.7702 168.213 34.9701 171.26 35.0277 172.137C35.0355 172.256 35.0406 172.335 35.0406 172.367C34.931 171.811 34.8128 171.42 34.7088 171.076C34.5216 170.456 34.3807 169.99 34.4193 168.991C34.4864 167.263 33.9003 164.801 33.4661 165.066C33.0319 165.332 32.4282 168.365 32.4282 170.149C32.4282 170.9 32.7359 171.832 33.086 172.893C33.5676 174.353 34.1295 176.055 34.0804 177.862C33.9921 180.982 28.3647 185.18 28.3647 185.18C29.2791 189.706 31.8704 191.739 31.8704 191.739C33.2896 190.056 36.2304 187.538 39.383 185.481L39.3818 185.479C42.5796 183.392 45.9994 181.78 48.2653 182.004C50.2353 182.2 51.9652 182.508 52.8442 182.679C53.2114 182.752 53.5256 182.417 53.4585 182.035C53.1207 180.144 50.1963 179.536 47.9797 179.075C47.8103 179.04 47.6449 179.005 47.4851 178.971C44.9751 178.436 44.3643 176.82 43.5841 174.053C42.9957 171.969 43.6783 169.95 44.3462 167.975C44.564 167.331 44.7802 166.692 44.9503 166.056C45.4093 164.349 44.7068 163.723 44.1772 163.496C43.9124 163.384 43.6088 163.51 43.4817 163.772L42.2955 166.221C40.4774 169.698 40.9081 172.881 40.9081 172.881C40.3503 170.59 40.7033 168.558 41.653 165.528C42.3308 163.37 41.9072 162.216 41.6071 161.733C41.5047 161.568 41.2788 161.533 41.1376 161.663C39.8384 162.828 39.0052 164.454 38.4722 166.088C38.473 166.09 38.4738 166.092 38.4746 166.095C37.4555 169.224 37.5366 172.377 37.5366 172.377C37.1906 170.95 37.3601 168.071 38.1403 165.486C38.1515 165.451 38.1599 165.416 38.1682 165.383C38.1729 165.363 38.1775 165.344 38.1827 165.325L38.18 165.319C38.6305 163.659 38.186 162.39 37.8367 161.729Z" fill="#EFEEF4"/>
<path d="M88.6635 178.856C89.3272 177.33 90.5593 175.109 91.8232 172.524L91.5125 168.897C91.5231 168.641 91.4949 168.386 91.4384 168.134C91.2195 167.186 90.6193 164.724 89.9556 163.349C89.8391 163.104 89.5461 162.989 89.3096 163.107C87.9963 163.769 89.0201 166.833 89.0589 168.159C89.1013 169.593 89.1013 173.385 89.1013 173.385C89.1013 173.385 88.1057 168.767 87.9116 167.973C87.5444 166.483 86.4041 164.8 85.5639 163.587C85.3732 163.31 84.9672 163.293 84.7731 163.566C83.7457 165.003 85.7263 168.781 85.7263 169.673C85.7263 170.67 85.9734 174.689 85.9734 174.689C85.9734 174.689 84.0246 168.033 81.7511 164.741C81.5534 164.458 81.1474 164.426 80.925 164.692C80.173 165.588 80.3213 167.424 80.7414 168.767C81.5357 171.307 83.6151 174.731 84.2682 177.929C84.7943 180.503 84.3812 184.347 81.737 184.169C79.0927 183.991 74.9869 183.952 74.7222 185.313C76.4026 185.956 77.8289 187.328 80.6002 187.212C82.2807 187.142 87.6503 186.971 91.4737 187.94C89.4755 184.725 87.3997 181.766 88.6635 178.856Z" fill="#FBBB9D"/>
<path d="M88.6635 178.856C89.3272 177.33 90.5593 175.109 91.8232 172.524L91.5125 168.897C91.5231 168.641 91.4949 168.386 91.4384 168.134C91.2195 167.186 90.6193 164.724 89.9556 163.349C89.8391 163.104 89.5461 162.989 89.3096 163.107C87.9963 163.769 89.0201 166.833 89.0589 168.159C89.1013 169.593 89.1013 173.385 89.1013 173.385C89.1013 173.385 88.1057 168.767 87.9116 167.973C87.5444 166.483 86.4041 164.8 85.5639 163.587C85.3732 163.31 84.9672 163.293 84.7731 163.566C83.7457 165.003 85.7263 168.781 85.7263 169.673C85.7263 170.67 85.9734 174.689 85.9734 174.689C85.9734 174.689 84.0246 168.033 81.7511 164.741C81.5534 164.458 81.1474 164.426 80.925 164.692C80.173 165.588 80.3213 167.424 80.7414 168.767C81.5357 171.307 83.6151 174.731 84.2682 177.929C84.7943 180.503 84.3812 184.347 81.737 184.169C79.0927 183.991 74.9869 183.952 74.7222 185.313C76.4026 185.956 77.8289 187.328 80.6002 187.212C82.2807 187.142 87.6503 186.971 91.4737 187.94C89.4755 184.725 87.3997 181.766 88.6635 178.856Z" fill="#EFEEF4"/>
<path d="M93.0232 164.804C92.1406 164.986 92.9702 168.97 92.8467 169.974C92.8255 170.163 92.7831 170.38 92.7302 170.611C93.3303 169.299 93.9058 167.921 94.4036 166.518C93.9905 165.455 93.4539 164.713 93.0232 164.804Z" fill="#FBBB9D"/>
<path d="M93.0232 164.804C92.1406 164.986 92.9702 168.97 92.8467 169.974C92.8255 170.163 92.7831 170.38 92.7302 170.611C93.3303 169.299 93.9058 167.921 94.4036 166.518C93.9905 165.455 93.4539 164.713 93.0232 164.804Z" fill="#EFEEF4"/>
<path d="M54.1013 232.546C54.1013 232.546 44.3081 223.088 41.5474 219.387C45.3107 219.905 47.0229 220.377 50.4262 218.449C53.9954 216.428 56.0042 215.578 59.4251 217.015C62.846 218.449 67.4107 222.238 70.8316 221.321C74.2525 220.405 76.3072 216.158 77.5746 219.943C78.4042 222.423 79.7281 223.48 82.51 224.148C79.1174 227.111 68.4239 233.855 68.4239 233.855L54.1013 232.546Z" fill="#DCDBE8"/>
<path d="M76.1659 205.381C76.1659 205.381 78.5559 210.261 76.3918 213.003C76.3918 213.003 77.2709 222 72.0247 221.986C66.7786 221.972 71.5623 204.916 71.5623 204.916L76.1659 205.381Z" fill="#CCCFE2"/>
<path d="M53.741 210.124C53.741 210.124 49.4763 213.126 50.2036 219.338C50.9308 225.551 54.9978 228.286 54.9978 228.286L55.5697 222.787L55.3438 212.321L53.741 210.124Z" fill="#CCCFE2"/>
<path d="M56.3079 204.807C56.3079 204.807 56.2443 208.298 55.2664 212.325C54.2885 216.351 52.9858 225.746 61.3916 226.551C69.7973 227.356 71.4919 224.337 71.9473 221.986C72.4027 219.635 73.5113 214.269 73.9031 212.388C74.295 210.506 75.6613 202.859 68.5617 201.984C61.4622 201.11 56.3079 204.807 56.3079 204.807Z" fill="#EFEEF4"/>
<path d="M55.6051 222.123C55.6051 222.123 54.8885 230.175 54.8249 231.116C54.7614 232.057 54.5637 238.161 61.4055 238.364C68.2473 238.567 69.6806 231.651 69.6806 231.651L71.114 223.935L55.6051 222.123Z" fill="#EFEEF4"/>
<path d="M55.5698 222.787C55.5698 222.787 57.4409 226.282 62.7929 226.638C68.3285 227.006 71.0434 224.253 71.0434 224.253C71.0434 224.253 68.3462 229.703 62.5776 229.384C58.2423 229.147 55.6122 224.914 55.5698 222.787Z" fill="#E5E4EF"/>
<path d="M62.7259 213.584C62.2105 214.06 61.5468 214.406 61.2255 215.036C60.8795 215.711 61.0419 216.589 61.5114 217.18C61.9845 217.771 62.7153 218.093 63.4531 218.18C63.1884 217.736 62.9201 217.292 62.7471 216.802C62.5741 216.312 62.507 215.77 62.6447 215.27C62.7894 214.752 63.1389 214.325 63.3967 213.857C63.5096 213.654 64.1098 212.36 63.7462 212.276C63.6226 212.248 62.9059 213.416 62.7259 213.584Z" fill="#E5E4EF"/>
<path d="M54.9026 201.747C54.9026 201.747 50.8039 209.288 54.8214 214.633L56.1312 208.638C56.1312 208.638 62.4399 205.591 63.9368 202.684C66.8423 197.042 54.9026 201.747 54.9026 201.747Z" fill="#CCCFE2"/>
<path d="M61.7056 202.289C61.7056 202.289 65.243 209.145 74.0441 211.237L76.3036 207.459L76.6354 203.989L61.7056 202.289Z" fill="#CCCFE2"/>
<path d="M48.3784 226.862C48.3784 226.862 54.034 234.208 57.5785 237.293C57.5785 237.293 58.8989 238.136 60.537 238.395C60.537 238.395 55.8169 233.145 54.9978 228.282C50.719 222.85 48.3784 226.862 48.3784 226.862Z" fill="#CCCFE2"/>
<path d="M74.7644 210.331L72.8262 217.977C70.7045 215.84 70.5244 208.403 70.5244 208.403L74.7644 210.331Z" fill="#CCCFE2"/>
<path d="M69.3101 233.166C69.3101 233.015 70.7257 226.219 70.7257 226.219L74.4891 223.854L74.6833 226.32L79.128 225.414L69.3101 233.166Z" fill="#4458E2"/>
<path d="M60.47 238.367C60.47 238.367 57.4374 243.219 52.1207 241.508C46.8075 239.798 43.1995 228.716 43.1995 228.716L40.9365 227.481C40.9365 227.481 46.9734 224.407 50.4614 227.397C53.9494 230.392 60.47 238.367 60.47 238.367Z" fill="#EFEEF4"/>
<path d="M75.2623 219.856C75.2623 219.856 76.7839 229.038 70.0444 229.748L71.0435 224.253L72.8758 217.967L75.2623 219.856Z" fill="#CCCFE2"/>
<path d="M41.5474 219.387C44.2693 224.991 60.47 238.367 60.47 238.367L49.353 223.718C48.7563 222.934 47.9903 222.308 47.1077 221.895C45.9462 221.349 44.0574 220.482 41.5474 219.387Z" fill="#E8EAF9"/>
<path d="M60.4697 238.367C60.5403 238.112 71.1279 227.891 74.7712 224.379C75.5761 223.602 76.667 223.217 77.7649 223.326C78.9299 223.445 80.9105 224.004 82.5097 224.144C80.1408 230.053 60.4697 238.367 60.4697 238.367Z" fill="#E8EAF9"/>
<path d="M60.5796 238.367C60.5796 238.367 60.8656 243.478 65.6845 242.621C70.4999 241.764 76.9675 232.816 76.9675 232.816L82.9726 231.193C82.9726 231.193 79.474 226.628 73.7725 230.542C70.7046 232.648 67.1778 236.891 67.1778 236.891C67.1778 236.891 65.2502 238.374 60.5796 238.367Z" fill="#CCCFE2"/>
<path d="M60.4697 238.367C60.4697 238.367 66.9726 240.886 75.3255 229.598C75.3255 229.598 64.5755 236.716 60.4697 238.367Z" fill="#CCCFE2"/>
<path d="M59.7215 211.293C59.2026 211.293 58.7613 210.95 58.5918 210.474C58.4541 210.677 58.3765 210.918 58.3765 211.184C58.3765 211.87 58.9166 212.426 59.5839 212.426C60.2511 212.426 60.7912 211.87 60.7912 211.184C60.7912 211.034 60.763 210.89 60.7136 210.757C60.4947 211.079 60.1346 211.293 59.7215 211.293Z" fill="white"/>
<path d="M59.7215 211.293C60.131 211.293 60.4947 211.079 60.71 210.758C60.5406 210.282 60.1028 209.939 59.5803 209.939C59.1708 209.939 58.8071 210.152 58.5918 210.474C58.7648 210.953 59.2026 211.293 59.7215 211.293Z" fill="#CCCFE2"/>
<path d="M66.6161 211.289C66.0972 211.303 65.6488 210.974 65.4653 210.506C65.3346 210.712 65.2605 210.957 65.2676 211.219C65.2852 211.905 65.8395 212.447 66.5067 212.426C67.1739 212.409 67.6964 211.835 67.6788 211.149C67.6753 210.999 67.6399 210.859 67.5905 210.726C67.3787 211.055 67.0257 211.279 66.6161 211.289Z" fill="white"/>
<path d="M66.6162 211.289C67.0258 211.279 67.3823 211.055 67.5906 210.726C67.407 210.254 66.9587 209.928 66.4397 209.942C66.0302 209.953 65.6736 210.177 65.4653 210.506C65.6454 210.974 66.0937 211.303 66.6162 211.289Z" fill="#CCCFE2"/>
<path d="M57.9847 209.026C57.84 209.117 57.4622 209.575 57.8788 209.607C58.2989 209.638 61.2785 209.974 61.2785 209.383C61.2785 208.729 59.4251 208.134 57.9847 209.026Z" fill="#CCCFE2"/>
<path d="M64.5088 209.533C64.6006 210.075 68.1345 209.897 68.1486 209.607C68.1627 209.32 67.4319 208.589 66.3481 208.589C65.2643 208.589 64.4559 209.225 64.5088 209.533Z" fill="#CCCFE2"/>
<path d="M59.5839 213.297C60.8863 213.297 61.9421 212.251 61.9421 210.96C61.9421 209.67 60.8863 208.624 59.5839 208.624C58.2814 208.624 57.2256 209.67 57.2256 210.96C57.2256 212.251 58.2814 213.297 59.5839 213.297Z" stroke="#DBDAE7" stroke-miterlimit="10"/>
<path d="M66.2948 213.297C67.5972 213.297 68.6531 212.251 68.6531 210.96C68.6531 209.67 67.5972 208.624 66.2948 208.624C64.9924 208.624 63.9365 209.67 63.9365 210.96C63.9365 212.251 64.9924 213.297 66.2948 213.297Z" stroke="#DBDAE7" stroke-miterlimit="10"/>
<path d="M61.6279 209.998C61.7021 209.921 64.1804 210.051 64.1804 210.051" stroke="#DBDAE7" stroke-miterlimit="10"/>
<path d="M68.5898 210.533C68.6887 210.533 71.2164 210.533 71.2164 210.533" stroke="#DBDAE7" stroke-miterlimit="10"/>
<path d="M57.4902 210.026H54.9907" stroke="#DBDAE7" stroke-miterlimit="10"/>
<path d="M91.4773 187.936L93.0271 190.297C93.0271 190.297 87.7104 194.089 86.1641 192.193C84.6178 190.297 87.8798 187.328 87.8798 187.328L91.4773 187.936Z" fill="#CCCFE2"/>
<path d="M56.6924 235.184L60.4699 238.367L65.6595 235.852C65.6595 235.852 61.5007 240.232 60.1133 240.232C58.7259 240.232 56.6924 235.184 56.6924 235.184Z" fill="#DCDBE8"/>
<path d="M66.0586 219.586C65.9633 219.488 65.8362 219.439 65.702 219.411C65.7514 219.53 65.7656 219.667 65.7479 219.796C65.6844 220.206 65.3772 220.545 65.0136 220.73C64.65 220.916 64.2405 220.965 63.838 220.986C63.1884 221.017 62.5388 220.979 61.8998 220.867C61.568 220.807 61.2361 220.73 60.9396 220.566C60.643 220.401 60.3853 220.143 60.2759 219.817C60.1876 219.544 60.1947 219.286 60.2794 219.065C60.0958 219.128 59.937 219.23 59.8346 219.384C59.0049 220.597 60.9219 222.042 62.5882 222.175C63.8945 222.28 65.296 222.011 66.0621 220.737C66.2633 220.387 66.3375 219.87 66.0586 219.586Z" fill="#DCDBE8"/>
<path d="M60.276 219.81C60.3854 220.139 60.6431 220.398 60.9397 220.559C61.2362 220.72 61.5681 220.8 61.8999 220.86C62.5389 220.972 63.192 221.014 63.8381 220.979C64.2405 220.958 64.6536 220.909 65.0137 220.723C65.3773 220.538 65.6845 220.202 65.748 219.789C65.7657 219.66 65.7515 219.523 65.7021 219.405C65.6456 219.391 65.5856 219.384 65.5291 219.377C64.6465 219.289 63.7569 219.632 62.8778 219.495C62.313 219.408 61.794 219.121 61.2327 219.013C60.9644 218.96 60.5902 218.95 60.2795 219.055C60.1948 219.279 60.1842 219.537 60.276 219.81Z" fill="white"/>
<path d="M30.6245 162.152L30.6642 162.177C30.6678 162.177 30.6498 162.149 30.6245 162.152Z" fill="#FFB89C"/>
<path d="M54.8564 201.81C55.2271 200.691 65.7899 181.455 68.6389 181.606C71.4879 181.756 76.6246 204.024 76.6246 204.024L54.8564 201.81Z" fill="#E8EAF9"/>
<path d="M57.0874 197.584C57.0874 197.584 61.5639 197.566 61.5215 197.126C61.4792 196.685 59.1138 194.026 59.1138 194.026C59.1138 194.026 57.9523 195.957 57.0874 197.584Z" fill="#DCDBE8"/>
<path d="M65.8784 192.9C65.8784 192.799 65.9455 189.815 66.4045 189.647C66.8669 189.479 68.5439 191.917 68.5439 191.917C68.5439 191.917 71.474 190.899 72.0671 191.34C72.6602 191.781 70.0584 194.324 70.1572 194.324C70.2561 194.324 72.0318 196.223 71.8694 196.594C71.7035 196.968 68.4132 195.95 68.4132 195.95C68.4132 195.95 67.0646 199.036 66.4715 198.798C65.8784 198.56 65.8784 195.646 65.8784 195.646C65.8784 195.646 63.0471 194.932 62.9835 194.39C62.9165 193.848 65.8784 192.9 65.8784 192.9Z" fill="#DCDBE8"/>
<path d="M68.8262 203.233C68.8262 203.233 70.4537 200.323 70.8808 200.221C71.308 200.12 72.4942 203.611 72.4942 203.611L68.8262 203.233Z" fill="#DCDBE8"/>
<path d="M55.7531 199.987C55.7531 199.987 56.4591 200.813 56.5509 201.068C56.5509 201.068 59.6435 200.05 59.9224 200.351C60.2013 200.655 59.181 202.261 59.181 202.261L54.8599 201.803C54.8563 201.803 55.4494 200.368 55.7531 199.987Z" fill="#DCDBE8"/>
<path d="M66.729 182.899C66.729 182.899 68.5365 184.155 68.9178 184.026C69.2991 183.896 68.8049 181.636 68.8049 181.636C68.8049 181.636 68.2012 181.259 66.729 182.899Z" fill="#DCDBE8"/>
<path d="M62.662 205.049L61.9277 206.623L62.7856 206.427L62.2419 208.109L63.2657 206.126H62.3902L62.8703 205.073L62.662 205.049Z" fill="#CCCFE2"/>
</g>
</g>
<path d="M143.475 219.407C143.475 219.407 138.067 208.718 136.324 206.058C133.562 201.839 130.554 193.118 130.167 191.085C129.78 189.052 130.89 182.94 128.695 182.94C126.514 182.94 123.803 186.227 123.803 191.085C123.803 195.944 124.203 201.404 124.203 201.404C124.203 201.404 116.497 201.046 114.096 201.493C110.972 202.094 107.5 202.913 107.5 204.741C107.5 206.557 111.282 208.283 111.282 208.283C111.282 208.283 106.88 210.303 107.874 212.132C108.868 213.947 112.392 215.303 112.392 215.303C112.392 215.303 109.036 216.351 109.423 218.167C109.823 219.983 113.347 220.737 113.347 220.737C113.347 220.737 111.334 221.606 111.566 223.678C111.94 226.926 130.709 226.12 130.709 226.12L143.475 219.407Z" fill="#EFEEF4"/>
<path d="M128.024 183.03C128.024 183.03 127.211 189.219 130.025 189.372C130.025 189.372 131.07 181.598 128.024 183.03Z" fill="white"/>
<path d="M198.864 194.896L199.922 291.407L243.255 285.436L217.219 187.326L198.864 194.896Z" fill="white"/>
<path d="M186.885 148.609C186.885 148.609 171.253 158.25 181.206 170.307C191.158 182.365 191.623 150.054 191.623 150.054" fill="#CCCFE2"/>
<path d="M183.839 214.229C179.631 223.703 166.929 251.156 166.929 251.156L143.475 219.152L122.938 230.48C122.938 230.48 153.221 280.347 170.505 278.212C187.789 276.077 186.833 245.376 186.833 245.376L179.05 300.396L201.575 297.481L198.864 194.896C198.864 194.896 189.015 202.593 183.839 214.229Z" fill="#DCDBE8"/>
<path d="M187.957 145.438C187.957 145.438 171.679 182.429 190.241 184.794C212.017 187.569 220.653 156.076 220.653 156.076" fill="#EFEEF4"/>
<path d="M193.985 179.015L198.864 194.896C198.864 194.896 204.544 199.039 208.636 198.041C212.728 197.044 217.22 187.314 217.22 187.314L210.972 165.27L193.985 179.015Z" fill="#EFEEF4"/>
<path d="M195.534 184.053L196.889 188.208C196.889 188.208 207.061 186.661 210.184 175.256C210.184 175.256 203.537 183.644 195.534 184.053Z" fill="#E5E4EF"/>
<path d="M203.498 150.808C203.305 151.102 201.769 159.887 205.602 163.889C205.602 163.889 204.931 183.797 215.387 181.841C225.842 179.884 224.113 155.207 223.157 153.161C222.202 151.115 201.485 138.725 193.817 140.771C186.15 142.817 179.915 152.867 183.658 155.501C188.731 159.068 203.498 150.808 203.498 150.808Z" fill="#DCDBE8"/>
<path d="M223.945 138.853C223.996 136.654 222.731 134.634 220.756 133.751L209.836 128.88C209.552 128.752 209.255 128.662 208.958 128.598C208.119 131.718 205.912 140.413 204.763 144.978L223.622 153.557L223.945 138.853Z" fill="#CCCFE2"/>
<path d="M208.197 128.483L200.813 128.01C199.045 127.895 197.367 128.765 196.425 130.286C194.463 133.457 191.3 138.572 191.223 138.815L204.763 144.978C205.912 140.413 208.107 131.718 208.959 128.598C208.7 128.547 208.455 128.496 208.197 128.483Z" fill="#E8EAF9"/>
<path d="M188.834 143.098L172.764 137.792C169.137 136.59 169.111 131.373 172.725 130.145C173.693 129.813 174.765 129.877 175.681 130.324L223.299 153.365L188.834 143.098Z" fill="#CCCFE2"/>
<path d="M191.21 161.971C190.229 162.751 189.106 163.301 188.073 164.004C187.26 164.554 186.459 165.283 186.279 166.254C186.072 167.405 186.834 168.53 187.724 169.285C188.718 170.141 189.932 170.73 191.21 170.998C190.551 170.295 189.88 169.553 189.557 168.633C189.196 167.571 189.377 166.318 190.048 165.423C190.887 164.285 192.204 163.441 192.991 162.265C193.314 161.792 194.23 160.258 193.262 160.002C192.772 159.874 192.655 160.424 192.41 160.756C192.062 161.204 191.661 161.613 191.21 161.971Z" fill="#DCDBE8"/>
<path d="M196.309 156.012C196.102 156.178 195.47 156.997 196.554 157.035C197.638 157.074 200.71 157.751 200.852 156.805C200.981 155.846 197.367 155.117 196.309 156.012Z" fill="#DCDBE8"/>
<path d="M187.311 159.989C187.311 159.081 187.879 158.327 188.68 158.033C188.473 157.969 188.254 157.917 188.008 157.917C186.821 157.917 185.866 158.889 185.866 160.104C185.866 161.319 186.821 162.29 188.008 162.29C188.37 162.29 188.693 162.188 188.989 162.035C188.034 161.856 187.311 161.012 187.311 159.989Z" fill="white"/>
<path d="M190.151 160.104C190.151 159.132 189.531 158.327 188.667 158.045C187.879 158.327 187.298 159.094 187.298 160.002C187.298 161.025 188.021 161.869 188.976 162.048C189.673 161.664 190.151 160.948 190.151 160.104Z" fill="#DCDBE8"/>
<path d="M196.657 159.989C196.657 159.081 197.225 158.327 198.025 158.033C197.818 157.969 197.599 157.917 197.354 157.917C196.166 157.917 195.211 158.889 195.211 160.104C195.211 161.319 196.166 162.29 197.354 162.29C197.715 162.29 198.038 162.188 198.335 162.035C197.38 161.856 196.657 161.012 196.657 159.989Z" fill="white"/>
<path d="M199.497 160.104C199.497 159.132 198.877 158.327 198.012 158.045C197.225 158.327 196.644 159.094 196.644 160.002C196.644 161.025 197.367 161.869 198.322 162.048C199.019 161.664 199.497 160.948 199.497 160.104Z" fill="#DCDBE8"/>
<path d="M191.455 173.031C191.093 173.146 190.732 173.287 190.435 173.53C190.138 173.773 189.906 174.118 189.88 174.502C189.828 175.192 190.396 175.767 191.003 176.074C191.88 176.522 192.9 176.624 193.894 176.56C195.25 176.458 196.579 176.049 197.754 175.358C198.502 174.911 199.212 174.323 199.548 173.517C199.884 172.712 199.754 171.637 199.045 171.126C198.541 170.742 197.831 170.717 197.237 170.909C196.334 171.19 195.585 171.855 194.682 172.187C193.636 172.571 192.513 172.699 191.455 173.031Z" fill="white"/>
<path d="M189.906 174.923L199.471 171.612C199.471 171.612 199.574 171.816 199.6 171.893C199.626 171.97 199.69 172.238 199.69 172.238L190.241 175.512C190.241 175.512 190.061 175.307 190.022 175.23C189.983 175.154 189.906 174.923 189.906 174.923Z" fill="#EFEEF4"/>
<path d="M194.011 172.392L194.359 173.466L194.927 173.236L194.682 172.174L194.011 172.392Z" fill="#EFEEF4"/>
<path d="M193.185 174.476L194.024 176.547L194.734 176.471L193.895 174.259L193.185 174.476Z" fill="#EFEEF4"/>
<path d="M195.87 173.491C195.895 173.555 196.709 175.921 196.709 175.921L197.47 175.537L196.554 173.249L195.87 173.491Z" fill="#EFEEF4"/>
<path d="M205.731 211.441C204.969 211.429 202.736 211.851 202.736 211.851L203.679 218.039L206.919 217.63C206.919 217.63 209.32 216.888 209.1 214.344C208.881 211.799 206.506 211.454 205.731 211.441ZM206.351 215.712L205.37 215.942L205.008 213.5C205.008 213.5 205.576 213.423 205.95 213.436C206.325 213.449 207.009 213.602 207.125 214.459C207.241 215.303 206.351 215.712 206.351 215.712Z" fill="#CCCFE2"/>
<path d="M212.663 210.24C210.83 210.495 209.552 212.209 209.81 214.063C210.068 215.917 211.759 217.234 213.579 216.978C215.412 216.722 216.69 215.009 216.432 213.155C216.174 211.301 214.496 209.984 212.663 210.24ZM213.218 214.894C212.534 214.983 211.901 214.497 211.798 213.794C211.708 213.091 212.185 212.452 212.869 212.362C213.553 212.273 214.186 212.758 214.289 213.462C214.38 214.152 213.902 214.791 213.218 214.894Z" fill="#CCCFE2"/>
<path d="M203.859 219.574C203.859 219.574 206.157 220.75 210.404 220.136C214.651 219.523 216.109 217.86 216.109 217.86L216.419 220.124C216.419 220.124 213.631 222.463 210.559 222.821C207.499 223.179 204.092 221.747 204.092 221.747L203.859 219.574Z" fill="#CCCFE2"/>
<path d="M198.864 194.896L210.649 290.026L201.42 291.292L198.864 194.896Z" fill="#E4E7F4"/>
<path d="M276.003 230.467C267.29 216.441 256.706 200.56 250.677 195.676C239.15 186.341 217.219 187.326 217.219 187.326C215.632 207.925 230.166 249.634 240.88 277.56L255.286 276.319L265.832 296.765C278.133 283.058 283.658 266.96 289.105 252.038C288.757 251.437 287.659 249.839 287.233 249.11L276.003 230.467Z" fill="#DCDBE8"/>
<path d="M256.215 248.356L234.904 213.5L246.508 256.194L256.215 248.356Z" fill="#CCCFE2"/>
<path d="M276.003 230.48C280.444 237.922 284.536 244.661 287.246 249.123L289.118 252.038C290.577 248.036 291.442 243.523 292.5 239.623L284.2 227.476C283.387 226.286 281.76 226.018 280.637 226.9L276.003 230.48Z" fill="#CCCFE2"/>
<path d="M125.017 204.025C125.017 204.025 125.107 207.375 122.59 207.644C122.59 207.644 126.062 208.884 125.623 210.904C125.184 212.937 121.286 213.193 121.286 213.193C121.286 213.193 124.229 214.165 123.894 216.108C123.558 218.052 119.995 219.279 119.995 219.279C119.995 219.279 122.512 219.548 122.422 221.747C122.332 223.959 119.04 225.89 119.04 225.89L126.062 226.069C126.062 226.069 130.051 218.129 130.49 215.124C130.916 212.145 125.017 204.025 125.017 204.025Z" fill="#E5E4EF"/>
<path d="M184.097 264.53L192.268 236.323L190.577 298.938L179.063 300.396L184.097 264.53Z" fill="#CCCFE2"/>
<mask id="mask2_3_1199" style="mask-type:luminance" maskUnits="userSpaceOnUse" x="222" y="52" width="267" height="266">
<path d="M488.99 98.7232L267.939 52.8979L222.5 272.084L443.551 317.909L488.99 98.7232Z" fill="white"/>
</mask>
<g mask="url(#mask2_3_1199)">
<path d="M341.004 126.583C341.004 126.583 304.364 205.458 264.16 233.037L308.654 275.191C308.654 275.191 353.931 215.7 355.001 170.955" fill="#E8EAF9"/>
<path d="M429.367 199.512C429.367 199.512 427.366 213.206 427.531 214.621C427.696 216.037 449.535 290.042 449.535 290.042C449.535 290.042 325.44 309.562 326.165 308.331C326.879 307.098 339.293 215.94 339.293 215.94L429.367 199.512Z" fill="#E8EAF9"/>
<path d="M355.714 252.552L359.032 281.302L395.66 285.265L385.378 240.549C385.38 240.539 358.196 251.741 355.714 252.552Z" fill="white"/>
<path d="M264.16 233.037C264.16 233.037 275.923 223.75 279.045 220.766L320.314 258.309L308.938 275.494L264.16 233.037Z" fill="#CCCFE2"/>
<path d="M182.598 316.899C183.386 316.439 412.774 166.417 449.1 142.444C452.585 140.137 457.307 141.194 459.485 144.763C461.56 148.178 460.528 152.619 457.153 154.77L189.96 325.33L182.598 316.899Z" fill="#DCDBE8"/>
<path d="M315.944 222.714C315.842 222.882 309.768 227.325 304.034 231.526C302.861 232.385 301.861 233.436 301.053 234.639C299.571 236.826 298.391 239.443 297.772 241.676C306.798 237.177 309.754 235.106 309.754 235.106L315.944 222.714Z" fill="#E5E4EF"/>
<path d="M343.691 222.709C341.964 220.848 333.893 212.76 331.03 209.694C328.682 211.691 326.262 213.227 323.844 215.131C313.882 222.955 309.62 229.388 303.236 240.77C301.057 244.651 296.275 257.847 295.999 260.206C298.579 263.614 305.082 256.833 306.446 253.218C307.786 249.665 310.493 241.518 311.594 239.819C309.674 242.718 302.816 255.739 307.707 256.408C310.817 256.83 313.554 253.01 314.5 250.066C314.239 251.003 320.412 255.412 323.383 248.199C322.499 249.875 327.128 252.294 331.976 244.98C335.471 238.956 341.081 226.188 343.691 222.709Z" fill="#EFEEF4"/>
<path d="M413.536 193.156L329.12 204.888L333.455 258.929C333.455 258.929 421.719 231.335 439.358 202.597C456.998 173.858 417.649 137.672 395.117 129.459C377.706 123.122 365.851 123.203 363.494 123.516L341.007 126.572C341.007 126.572 347.874 208.03 348.657 208.193" fill="#E8EAF9"/>
<path d="M271.833 240.296C269.94 242.955 264.726 248.534 263.353 250.354C261.178 253.244 258.159 255.836 256.889 259.214L251.527 271.867C251.527 271.867 263.736 264.632 268.231 261.822C269.931 263.165 270.407 268.798 265.735 272.785C261.919 276.037 259.597 281.847 261.501 282.855C263.163 284.758 266.409 279.618 271.454 276.365C279.397 266.954 282.124 258.488 283.647 251.465C281.455 249.151 276.284 244.437 271.833 240.296Z" fill="#EFEEF4"/>
<path d="M341.207 128.083L351.809 196.274L377.133 186.011L363.492 123.527L341.207 128.083Z" fill="white"/>
<path d="M314.298 83.6625C313.388 89.1309 313.454 94.6904 313.134 100.225C312.619 109.016 320.107 125.847 341.427 119.476C347.457 117.675 345.753 113.491 348.472 107.818C351.188 102.157 352.024 95.7486 351.907 89.4658C351.863 87.2517 351.71 85.0261 351.064 82.91C350.164 79.9728 348.337 77.3557 346.059 75.2911C340.453 70.1978 331.895 68.5573 324.856 71.341C317.818 74.1247 315.53 76.2116 314.298 83.6625Z" fill="#EFEEF4"/>
<path d="M336.558 117.565C336.558 117.565 339.049 125.175 342.214 134.228C342.916 136.233 352.006 139.621 358.714 133.038C363.695 128.157 363.481 123.525 363.481 123.525C363.481 123.525 350.492 103.627 350.223 99.529C349.957 95.4203 342.32 91.4427 342.32 91.4427L336.558 117.565Z" fill="#EFEEF4"/>
<path d="M337.393 120.544C337.393 120.544 345.79 118.165 349.422 114.341C356.427 106.973 357.031 98.6683 357.031 98.6683L362.683 111.522C362.683 111.522 358.842 115.169 353.413 118.275C346.419 122.248 337.393 120.544 337.393 120.544Z" fill="#E5E4EF"/>
<path d="M329.883 76.7484C329.883 76.7484 332.983 86.6561 342.337 89.3637C342.337 89.3637 344.003 105.055 354.278 109.412L360.257 118.369C360.257 118.369 374.517 113.697 374.345 99.1618C374.124 81.031 357.352 80.3492 357.352 80.3492C357.352 80.3492 348.119 63.7357 328.382 68.408C309.607 72.8568 314.15 83.9992 314.15 83.9992L329.883 76.7484Z" fill="#CCCFE2"/>
<path d="M324.724 96.8373C323.912 97.9496 322.869 98.9361 322.337 100.207C321.673 101.795 321.961 103.748 323.049 105.076C324.146 106.417 325.997 107.09 327.697 106.763C325.923 106.206 324.681 104.323 324.873 102.481C324.967 101.598 325.341 100.763 325.66 99.9266C326.074 98.8433 326.38 97.6928 326.464 96.5299C326.496 96.0019 326.569 93.6005 325.805 93.5646C325.612 94.8165 325.505 95.7632 324.724 96.8373Z" fill="#DCDBE8"/>
<path d="M336.898 105.085C336.898 105.085 335.727 110.622 328.387 110.659L336.898 105.085Z" fill="#DCDBE8"/>
<path d="M336.595 87.0818C337.12 87.4581 336.857 88.2945 336.211 88.3387C334.184 88.4641 328.471 88.7385 328.452 87.6989C328.423 86.4346 329.574 86.005 332.083 86.0908C333.759 86.1487 335.718 86.4548 336.595 87.0818Z" fill="#DCDBE8"/>
<path d="M321.043 88.279C319.525 88.3763 314.629 88.6977 315.132 87.1317C315.636 85.5657 322.641 85.6371 322.765 87.1438C322.816 87.8115 321.554 88.2402 321.043 88.279Z" fill="#DCDBE8"/>
<path d="M321.804 93.9378C322.096 92.5284 321.186 91.1482 319.771 90.8549C318.464 90.5839 317.201 91.3355 316.779 92.5621C317.242 92.3796 317.755 92.3301 318.269 92.4368C319.684 92.7301 320.594 94.1103 320.302 95.5197C320.28 95.6264 320.236 95.7288 320.204 95.8333C320.995 95.5186 321.62 94.824 321.804 93.9378Z" fill="white"/>
<path d="M318.272 92.4262C317.757 92.3195 317.242 92.3797 316.781 92.5515C316.748 92.656 316.705 92.7584 316.683 92.8651C316.391 94.2745 317.301 95.6547 318.715 95.948C319.23 96.0547 319.745 95.9945 320.206 95.8227C320.239 95.7181 320.282 95.6158 320.304 95.509C320.596 94.0997 319.686 92.7195 318.272 92.4262Z" fill="#DCDBE8"/>
<path d="M335.059 94.4364C335.351 93.027 334.441 91.6468 333.026 91.3535C331.718 91.0824 330.456 91.834 330.034 93.0606C330.497 92.8781 331.01 92.8286 331.524 92.9353C332.939 93.2286 333.849 94.6088 333.557 96.0182C333.535 96.1249 333.491 96.2273 333.458 96.3318C334.25 96.0171 334.875 95.3226 335.059 94.4364Z" fill="white"/>
<path d="M331.527 92.9244C331.012 92.8178 330.497 92.878 330.036 93.0498C330.003 93.1543 329.96 93.2567 329.938 93.3634C329.645 94.7728 330.555 96.153 331.97 96.4463C332.485 96.553 333 96.4928 333.461 96.321C333.493 96.2164 333.537 96.1141 333.559 96.0073C333.851 94.598 332.941 93.2177 331.527 92.9244Z" fill="#DCDBE8"/>
<path d="M387.893 153.196C388.686 153.36 404.186 173.389 404.186 173.389L387.822 181.578L387.893 153.196Z" fill="#CCCFE2"/>
<path d="M427.531 214.622C427.531 214.622 396.922 236.361 385.378 240.55L388.822 255.484C388.824 255.474 420.691 234.084 427.531 214.622Z" fill="#CCCFE2"/>
<path d="M328.476 211.66L347.356 199.961L351.689 253.744L333.466 258.931L328.476 211.66Z" fill="#CCCFE2"/>
</g>
<mask id="mask3_3_1199" style="mask-type:luminance" maskUnits="userSpaceOnUse" x="368" y="13" width="337" height="230">
<path d="M704.5 13H368.5V243H704.5V13Z" fill="white"/>
</mask>
<g mask="url(#mask3_3_1199)">
<mask id="mask4_3_1199" style="mask-type:luminance" maskUnits="userSpaceOnUse" x="292" y="-38" width="489" height="488">
<path d="M780.044 -37.5496H292.957V449.909H780.044V-37.5496Z" fill="white"/>
</mask>
<g mask="url(#mask4_3_1199)">
<path d="M496.536 134.725C483.584 167.702 470.514 201.093 466.021 236.231C465.942 236.781 465.903 237.429 466.315 237.802C466.727 238.176 467.61 237.763 467.355 237.272" stroke="#C9C9C9" stroke-miterlimit="10"/>
<path d="M466.021 237.842C464.333 242.909 469.71 248.821 474.91 247.584" stroke="#C9C9C9" stroke-miterlimit="10"/>
<path d="M491.08 200.445C487.352 209.872 484.899 219.791 483.78 229.848C515.728 230.535 547.696 231.223 579.644 231.91C584.02 217.061 588.376 202.212 592.752 187.383C593.263 185.635 592.674 182.748 590.986 183.416" stroke="#C9C9C9" stroke-miterlimit="10"/>
<path d="M534.077 97.8972C529.288 102.061 524.991 106.795 521.302 111.96C523.735 111.489 522.793 111.843 524.834 110.448C511.902 113.1 499.264 117.106 487.156 122.37" stroke="#C9C9C9" stroke-miterlimit="10"/>
<path d="M560.53 48.9707C560.903 52.7615 559.745 56.6898 557.41 59.6752" stroke="#C9C9C9" stroke-miterlimit="10"/>
<path d="M577.014 50.3259C579.388 54.1363 578.152 59.7341 574.423 62.2089" stroke="#C9C9C9" stroke-miterlimit="10"/>
<path d="M559.804 25.1458C557.194 35.8306 553.975 47.4583 545.027 53.8418C544.163 54.4506 543.182 55.0399 542.123 54.9417C541.063 54.8435 540.062 53.7632 540.455 52.7811C542.868 55.1577 543.32 59.0664 542.181 62.2483C541.043 65.4498 538.571 68.0032 535.843 70.0066C528.582 75.349 518.966 77.3132 510.194 75.2901" stroke="#C9C9C9" stroke-miterlimit="10"/>
<path d="M545.223 120.799C549.854 122.331 554.505 123.863 559.137 125.375C559.961 125.65 560.824 125.945 561.354 126.633C561.884 127.32 561.805 128.518 561.02 128.852" stroke="#C9C9C9" stroke-miterlimit="10"/>
<path d="M545.596 77.7451C549.01 81.1824 554.721 82.0466 558.999 79.7485" stroke="#C9C9C9" stroke-miterlimit="10"/>
<path d="M566.24 61.4822C565.907 62.9749 567.104 64.3105 568.105 65.4694C569.105 66.6282 570.008 68.3174 569.145 69.5744C568.654 70.2815 567.751 70.5761 566.927 70.7922C564.729 71.3618 562.492 71.7743 560.255 72.0296" stroke="#C9C9C9" stroke-miterlimit="10"/>
<path d="M642.636 157.843C639.006 157.548 635.336 157.705 631.745 158.314C630.136 158.589 628.488 158.982 627.153 159.885C625.799 160.808 624.798 162.38 624.936 164.01C625.152 166.367 627.644 167.879 629.999 168.154C632.334 168.429 634.708 167.84 637.063 167.899C632.197 166.269 626.368 168.154 623.366 172.338C623.739 174.577 626.133 175.795 628.272 176.482C631.922 177.641 635.748 178.23 639.575 178.211C637.26 178.171 634.944 178.839 633.001 180.077C639.045 187.226 649.662 178.25 651.546 172.083C653.351 166.131 653.096 158.903 648.877 153.993C644.56 148.965 636.69 148.022 630.685 150.457C625.956 152.382 624.367 155.289 629.704 157.253C633.982 158.785 638.319 157.489 642.636 157.843Z" stroke="#C9C9C9" stroke-miterlimit="10"/>
<path d="M520.517 100.175C520.32 99.2327 486.861 112.55 486.861 112.55L464.412 229.003L542.535 216.767L567.006 125.356L552.916 108.798L520.517 100.175Z" fill="#E8EAF9"/>
<path d="M580.016 54.6664C581.037 61.4427 581.37 68.3172 581.174 75.172C580.939 84.0106 576.033 95.5008 570.93 98.7613C562.649 104.064 555.015 102.316 546.636 99.6058C539.257 97.2096 540.788 91.0029 537.53 83.9517C534.273 76.9004 533.35 68.9653 533.606 61.1874C533.684 58.4572 533.92 55.6878 534.763 53.0951C535.921 49.4811 538.217 46.2796 541.043 43.7655C548.029 37.5785 558.587 35.6929 567.202 39.2676C575.836 42.8031 578.603 45.435 580.016 54.6664Z" fill="#EFEEF4"/>
<path d="M559.156 100.215C559.156 100.215 552.307 111.862 547.597 122.115C546.499 124.491 534.194 125.925 524.52 114.926C518.829 108.464 518.809 103.082 518.809 103.082C518.809 103.082 535.117 78.7075 535.509 73.64C535.902 68.5725 545.36 63.78 545.36 63.78L559.156 100.215Z" fill="#EFEEF4"/>
<path d="M557.939 102.317C557.939 102.317 548.147 99.8221 543.418 95.3242C534.077 86.4463 532.546 76.5078 532.546 76.5078L526.953 90.6889C526.953 90.6889 531.624 95.2653 538.257 99.1936C546.793 104.261 557.939 102.317 557.939 102.317Z" fill="#E5E4EF"/>
<path d="M468.258 226.116C468.258 226.116 455.502 241.279 468.65 249.666C481.798 258.053 540.69 255.872 575.542 252.867C586.689 251.905 597.874 247.682 619.814 259.251C641.754 270.82 693.6 311.949 694.405 310.75C695.209 309.552 723.939 272.293 723.939 272.293L622.62 216.138C622.62 216.138 603.075 207.751 590.319 208.164C577.544 208.556 468.258 226.116 468.258 226.116Z" fill="#E5E4EF"/>
<path d="M562.728 44.4531C562.728 44.4531 556.958 58.0449 545.4 61.2268C545.4 61.2268 543.084 80.5932 530.368 85.7982L522.813 96.6795C522.813 96.6795 505.367 90.7282 505.818 72.7563C506.387 50.3259 527.032 49.7956 527.032 49.7956C527.032 49.7956 542.201 29.1132 564.435 37.5001C586.669 45.8869 577.151 50.2277 577.151 50.2277L562.728 44.4531Z" fill="#DCDBE8"/>
<path d="M561.805 43.1566C561.805 43.1566 566.888 56.1002 580.212 57.2591C580.212 57.2591 587.198 30.979 557.39 35.9679" fill="#DCDBE8"/>
<path d="M547.166 13.2429L547.264 13.302C547.343 13.2035 547.166 13.2429 547.166 13.2429Z" fill="#B2ACAB"/>
<path d="M528.68 31.6469L522.224 51.1508L552.719 51.524L554.427 18.9783L540.651 21.3549C535.058 22.3173 530.446 26.2652 528.68 31.6469Z" fill="#DCDBE8"/>
<path d="M580.998 51.8776L579.33 29.7221C579.035 25.7153 576.327 22.2977 572.52 21.08L564.219 18.4284C562.708 17.957 561.119 17.8391 559.568 18.1141L545.38 20.5496L539.846 51.3473L580.998 51.8776Z" fill="#E8EAF9"/>
<path d="M522.224 51.1509L580.998 51.8776L594.361 47.6547C597.56 46.6334 597.442 42.0766 594.204 41.232L573.658 35.8895C568.281 34.495 562.59 34.8486 557.429 36.9502L522.224 51.1509Z" fill="#CCCFE2"/>
<path d="M521.046 99.3506C485.37 105.773 425.497 146.686 405.5 180.352C400.162 189.347 405.637 200.896 415.979 202.487C457.033 208.792 540.081 201.996 540.081 201.996L549.128 169.058L498.93 168.96C498.93 168.94 518.436 127.752 521.046 99.3506Z" fill="#DCDBE8"/>
<path d="M511.47 136.866C511.195 138.26 463.724 246.838 463.724 246.838L406.854 244.029L444.061 175.716" fill="#DCDBE8"/>
<path d="M554.191 108.327C554.191 108.327 576.092 133.762 579.879 144.113C586.453 162.105 572.461 210.363 572.461 210.363L536.549 215.549L554.368 109.407L554.191 108.327Z" fill="#DCDBE8"/>
<path d="M558.862 23.2011C558.214 23.0832 556.252 23.1225 556.252 23.1225L556.193 28.4453L559.019 28.5435C559.019 28.5435 561.177 28.2685 561.334 26.0883C561.491 23.9082 559.509 23.3189 558.862 23.2011ZM558.803 26.874L557.939 26.9329L557.959 24.8313C557.959 24.8313 558.45 24.8509 558.764 24.9099C559.078 24.9688 559.647 25.2045 559.627 25.9312C559.627 26.6579 558.803 26.874 558.803 26.874Z" fill="#CCCFE2"/>
<path d="M564.965 23.1423C563.376 23.103 562.041 24.36 562.002 25.9706C561.963 27.5812 563.219 28.8972 564.828 28.9561C566.417 28.9954 567.752 27.7383 567.791 26.1277C567.83 24.5171 566.555 23.2012 564.965 23.1423ZM564.788 27.1294C564.18 27.1098 563.709 26.6188 563.729 26.0099C563.748 25.401 564.239 24.9296 564.847 24.9493C565.456 24.9689 565.927 25.4599 565.907 26.0688C565.887 26.6777 565.377 27.1491 564.788 27.1294Z" fill="#CCCFE2"/>
<path d="M556.134 29.7612C556.134 29.7612 557.94 31.0772 561.648 31.1361C565.377 31.2147 566.849 30.0166 566.849 30.0166L566.81 31.9611C566.81 31.9611 564.101 33.552 561.433 33.4145C558.764 33.2967 556.056 31.6075 556.056 31.6075L556.134 29.7612Z" fill="#CCCFE2"/>
<path d="M538.472 201.525L536.549 215.549L572.461 210.363L576.661 188.208L550.07 182.119L543.418 189.917L538.472 201.525Z" fill="#CCCFE2"/>
<path d="M566.966 70.7724C567.948 72.167 569.223 73.4044 569.851 74.9757C570.636 76.9595 570.263 79.3557 568.889 80.9859C567.516 82.6162 565.22 83.4215 563.14 82.9894C565.318 82.3216 566.888 80.0235 566.692 77.7451C566.593 76.6452 566.142 75.6042 565.769 74.5829C565.279 73.2276 564.906 71.8134 564.847 70.3796C564.808 69.7314 564.768 66.746 565.71 66.7263C565.887 68.2583 566.005 69.4368 566.966 70.7724Z" fill="#E5E4EF"/>
<path d="M556.801 68.0621C556.801 66.9622 557.429 66.039 558.332 65.5676C557.92 65.3319 557.449 65.1748 556.939 65.1748C555.388 65.1748 554.132 66.4319 554.132 67.9835C554.132 69.5352 555.388 70.7922 556.939 70.7922C557.39 70.7922 557.822 70.6744 558.195 70.478C557.37 69.9869 556.801 69.1031 556.801 68.0621Z" fill="white"/>
<path d="M559.745 67.9835C559.745 66.9425 559.176 66.0587 558.332 65.5676C557.429 66.039 556.801 66.9622 556.801 68.0621C556.801 69.1031 557.37 69.9869 558.214 70.478C559.117 70.0066 559.745 69.0834 559.745 67.9835Z" fill="#3A282D"/>
<path d="M573.423 68.0621C573.423 66.9622 574.051 66.039 574.953 65.5676C574.541 65.3319 574.07 65.1748 573.56 65.1748C572.01 65.1748 570.754 66.4319 570.754 67.9835C570.754 69.5352 572.01 70.7922 573.56 70.7922C574.012 70.7922 574.443 70.6744 574.816 70.478C573.992 69.9869 573.423 69.1031 573.423 68.0621Z" fill="white"/>
<path d="M576.386 67.9835C576.386 66.9425 575.817 66.0587 574.973 65.5676C574.07 66.039 573.442 66.9622 573.442 68.0621C573.442 69.1031 574.011 69.9869 574.855 70.478C575.758 70.0066 576.386 69.0834 576.386 67.9835Z" fill="#3A282D"/>
<path d="M551.836 80.7502C551.836 80.7502 553.19 87.6247 562.218 87.8015L551.836 80.7502Z" fill="#DCDBE8"/>
<path d="M599.994 130.777C596.442 147.118 585.609 195.534 581.371 214.508C580.468 218.554 583.431 222.404 587.572 222.6L650.663 225.35C653.979 225.487 656.884 223.17 657.492 219.89L672.72 136.021C673.446 132.054 670.503 128.361 666.48 128.184L606.784 125.533C603.546 125.415 600.681 127.615 599.994 130.777Z" fill="#DCDBE8"/>
<path d="M652.586 133.841L593.832 131.248C591.222 131.13 588.926 132.918 588.376 135.451C585.001 151.047 573.246 203.587 569.204 221.755C568.478 224.996 570.872 228.119 574.188 228.257L639.968 231.124L611.533 177.13L652.586 133.841Z" fill="#E8EAF9"/>
<path d="M645.443 226.725L661.142 140.283C661.731 137.101 659.356 134.136 656.118 133.978L652.606 133.821L611.533 177.111L639.968 231.105C642.617 231.242 644.952 229.357 645.443 226.725Z" fill="#CCCFE2"/>
<path d="M549.011 169.274L543.261 190.113L553.779 190.172L557.625 168.802C553.367 169.038 549.011 169.274 549.011 169.274Z" fill="#EFEEF4"/>
<path d="M592.262 191.763L604.527 189.956C605.115 189.878 605.704 189.721 606.273 189.524C608.098 188.896 612.435 187.383 615.143 186.401C615.889 186.126 616.066 185.105 615.418 184.633C612.553 182.61 605.704 184.359 603.447 184.712C603.074 184.771 593.851 185.517 593.851 185.517L607.509 182.08C607.509 182.08 618.146 178.937 621.972 175.952C622.6 175.461 622.424 174.44 621.658 174.243C615.967 172.79 608.236 175.972 608.236 175.972L594.577 178.702C594.577 178.702 616.497 172.829 622.954 168.154C623.64 167.644 623.562 166.563 622.777 166.21C619.794 164.815 613.534 166.563 608.196 168.704C603.153 169.961 598.698 170.845 596.402 171.317C595.872 172.593 595.441 171.513 596.402 171.317C602.29 168.803 618.931 160.612 618.558 159.964C618.087 159.119 616.458 157.843 613.946 158.177C608.687 158.864 594.067 164.01 592.164 164.383C590.26 164.737 581.979 164.855 581.979 164.855L583.333 158.118C583.333 158.118 577.563 160.141 575.542 161.162C571.323 163.264 566.692 167.958 565.73 168.194C565.279 168.312 558.999 168.606 555.133 168.842L550.227 196.85L587.65 191.822C589.181 191.96 590.731 191.94 592.262 191.763Z" fill="white"/>
<path d="M668.894 157.135C668.894 157.135 678.195 153.973 680.276 155.21C682.807 156.703 678.117 163.185 667.206 166.445L668.894 157.135Z" fill="white"/>
<path d="M669.207 165.758C669.207 165.758 675.487 164.049 676.232 168.999C676.841 173.025 659.63 177.17 653.174 178.584C651.938 178.859 650.859 177.661 651.29 176.463C652.487 173.222 656.392 167.938 669.207 165.758Z" fill="white"/>
<path d="M667.461 174.027C667.814 174.027 672.073 174.597 672.759 176.797C673.446 178.996 671.366 180.843 667.912 182.001C666.519 182.473 656.059 185.576 651.33 186.715C650.035 187.03 648.975 185.694 649.544 184.476C650.663 182.119 652.684 179.036 655.942 177.955C661.456 176.109 667.461 174.027 667.461 174.027Z" fill="white"/>
<path d="M663.87 182.434C664.243 182.335 670.189 180.548 670.954 184.457C671.72 188.346 656.589 192.392 653.567 191.252C652.056 190.663 652.567 185.183 663.87 182.434Z" fill="white"/>
<path d="M658.473 195.515C658.768 195.436 669.796 194.513 668.737 190.722C667.677 186.931 662.359 188.169 659.611 189.406C656.844 190.624 653.135 196.831 658.473 195.515Z" fill="white"/>
<path d="M583.49 202.193L579.428 220.636H582.195L586.1 201.702L583.49 202.193Z" fill="#CCCFE2"/>
<path d="M588.71 202.036L585.001 220.263L588.435 220.44L591.928 202.036H588.71Z" fill="#CCCFE2"/>
<path d="M594.244 202.134L591.006 220.44L594.44 220.715L597.58 202.33L594.244 202.134Z" fill="#CCCFE2"/>
<path d="M428.715 203.607L482.151 204.648L475.42 220.007L427.165 206.887L428.715 203.607Z" fill="#CCCFE2"/>
<path d="M474.852 144.427L456.346 164.717L477.05 165.817L474.852 144.427Z" fill="#DCDBE8"/>
<path d="M498.498 204.451C496.085 211.208 495.064 216.256 492.847 222.463L473.301 225.311L480.523 204.589" fill="#CCCFE2"/>
<path d="M509.684 168.979C518.318 136.06 519.928 107.443 519.928 107.443L498.263 168.979H509.684Z" fill="#CCCFE2"/>
<path d="M524.226 61.2856C524.755 61.4231 584.452 61.0303 584.452 61.0303C584.452 61.0303 585.708 75.0935 576.661 75.4667C566.221 75.8791 564.533 62.8962 564.533 62.8962C564.533 62.8962 564.396 76.0166 554.643 76.3702C545.596 76.7041 544.438 65.3514 544.438 65.3514L527.051 64.6443L524.226 61.2856Z" fill="#CCCFE2"/>
<path d="M552.503 58.4966C551.856 58.9483 552.15 59.9893 552.955 60.0482C555.447 60.2446 562.472 60.6964 562.512 59.4001C562.57 57.8288 561.158 57.2788 558.077 57.3377C556.016 57.3967 553.583 57.7306 552.503 58.4966Z" fill="#DCDBE8"/>
<path d="M571.637 60.2644C573.501 60.4215 579.526 60.8929 578.937 58.9484C578.348 57.0039 569.714 56.9646 569.537 58.8305C569.459 59.6555 571.009 60.2054 571.637 60.2644Z" fill="#DCDBE8"/>
</g>
</g>
</g>
<defs>
<clipPath id="clip0_3_1199">
<rect width="721" height="243" fill="white" transform="translate(0.5)"/>
</clipPath>
</defs>
</svg>
