<svg width="8" height="10" viewBox="0 0 8 10" fill="none" xmlns="http://www.w3.org/2000/svg">
<path d="M4.00033 4.99999C4.22949 4.99999 4.42574 4.91833 4.58908 4.75499C4.75241 4.59166 4.83394 4.39555 4.83366 4.16666C4.83366 3.93749 4.75199 3.74124 4.58866 3.57791C4.42533 3.41458 4.22921 3.33305 4.00033 3.33333C3.77116 3.33333 3.57491 3.41499 3.41158 3.57833C3.24824 3.74166 3.16671 3.93777 3.16699 4.16666C3.16699 4.39583 3.24866 4.59208 3.41199 4.75541C3.57533 4.91875 3.77144 5.00027 4.00033 4.99999ZM4.00033 9.01041C3.94477 9.01041 3.88921 8.99999 3.83366 8.97916C3.7781 8.95833 3.72949 8.93055 3.68783 8.89583C2.67394 7.99999 1.91699 7.16833 1.41699 6.40083C0.916992 5.63333 0.666992 4.91638 0.666992 4.24999C0.666992 3.20833 1.00213 2.37847 1.67241 1.76041C2.34269 1.14236 3.11866 0.833328 4.00033 0.833328C4.88227 0.833328 5.65838 1.14236 6.32866 1.76041C6.99894 2.37847 7.33394 3.20833 7.33366 4.24999C7.33366 4.91666 7.08366 5.63374 6.58366 6.40124C6.08366 7.16874 5.32671 8.00027 4.31283 8.89583C4.27116 8.93055 4.22255 8.95833 4.16699 8.97916C4.11144 8.99999 4.05588 9.01041 4.00033 9.01041Z" fill="#4E4E4E"/>
</svg>
