<svg width="271" height="177" viewBox="0 0 271 177" fill="none" xmlns="http://www.w3.org/2000/svg">
<g clip-path="url(#clip0_71_18819)">
<path d="M40.7205 176.27H177.21C193.53 176.27 223.35 152.11 214.94 122.27C206.53 92.43 173.58 25.63 88.6805 25.63C-4.44954 25.59 -30.4595 176.27 40.7205 176.27Z" fill="#BAD1FF"/>
<path d="M141.949 52.9399C131.737 63.4593 126.067 77.5694 126.159 92.2299C129.764 82.1407 135.867 73.1299 143.899 66.0399" stroke="#0C0A0B" stroke-width="0.5" stroke-miterlimit="10"/>
<path d="M105.671 53.6L130.671 89.18L80.4105 118.42L70.1105 87.77L55.1105 90.77C55.1105 90.77 54.2305 61.77 54.2605 58.77C54.3205 51.46 71.8305 42.19 71.5105 42.3L82.6105 38.05L114.381 30.25L121.301 47.42L105.671 53.6Z" fill="#FFFAFF"/>
<path d="M116.289 35L81.0391 18.91L83.6391 11.5699C83.6391 11.5699 125.719 25.35 130.739 27.19C132.959 28.01 143.959 33.13 137.949 39C135.819 41.11 120.819 46.24 120.819 46.24L116.289 35Z" fill="#F46C80"/>
<path d="M45.8906 115.29C45.8906 115.29 79.0006 113.12 89.9406 133.61" stroke="#0C0A0B" stroke-width="0.5" stroke-miterlimit="10"/>
<path d="M180.58 114.5L238.04 164.96L248.05 151.61L197.47 97.9L180.58 114.5Z" fill="#F46C80"/>
<path d="M249.421 150.11C249.421 150.11 257.671 149.57 260.721 146.66C264.851 142.71 268.451 144.01 269.551 144.72L246.181 175.23L238.051 164.96L244.631 156.36C244.631 156.36 240.861 154.16 240.501 153.75C240.141 153.34 245.421 147.09 246.031 146.65C246.641 146.21 249.421 150.11 249.421 150.11Z" fill="#FBFFFB"/>
<path d="M269.521 144.706L246.152 175.227L247.51 176.266L270.879 145.745L269.521 144.706Z" fill="#241D15"/>
<path d="M267.541 144.01L244.711 173.83" stroke="#241D15" stroke-width="0.5" stroke-miterlimit="10"/>
<path d="M260.721 146.66C260.721 146.66 259.721 149.85 262.811 153.52" stroke="#241D15" stroke-width="0.5" stroke-miterlimit="10"/>
<path d="M253.721 148.79C253.096 149.407 252.64 150.175 252.396 151.019C252.153 151.863 252.13 152.755 252.331 153.61" stroke="#241D15" stroke-width="0.5" stroke-miterlimit="10"/>
<path d="M255.54 148.32C254.626 149.53 254.204 151.042 254.36 152.55" stroke="#241D15" stroke-width="0.5" stroke-miterlimit="10"/>
<path d="M257.441 147.85C256.842 148.99 256.72 150.32 257.101 151.55" stroke="#241D15" stroke-width="0.5" stroke-miterlimit="10"/>
<path d="M212.369 124.07C214.283 122.772 216.006 121.214 217.489 119.44" stroke="#0C0A0B" stroke-width="0.5" stroke-miterlimit="10"/>
<path d="M54.8906 83.6699L70.9906 81.6899" stroke="#0C0A0B" stroke-width="0.5" stroke-miterlimit="10"/>
<path d="M66.8809 58.37L72.3209 87.11" stroke="#0C0A0B" stroke-width="0.5" stroke-miterlimit="10"/>
<path d="M83.3204 19.42C83.5484 20.0728 83.7288 20.7412 83.8604 21.42C84.077 22.5564 84.1409 23.7167 84.0504 24.87C84.0022 26.3571 83.5686 27.8062 82.7921 29.0754C82.0155 30.3445 80.9226 31.3902 79.6204 32.11C78.0446 32.8691 76.2895 33.1775 74.5493 33.0011C72.8091 32.8246 71.1517 32.1701 69.7604 31.11C64.5604 27.38 60.0204 18.18 64.5204 12.54C65.0063 11.9354 65.5792 11.4064 66.2204 10.97C69.2204 8.96999 73.2204 9.37998 76.4804 11.1C79.7181 12.9234 82.1576 15.8908 83.3204 19.42Z" fill="#F46C80"/>
<path d="M80.05 14.03C79.0148 13.4575 77.842 13.1807 76.66 13.23C76.66 13.23 77.73 14.78 76.77 15.62C75.59 16.62 69.97 16.93 66.32 16.48C67.2288 17.4188 67.7532 18.6639 67.79 19.97C67.79 21.97 64.9 23.09 64.9 23.09L68.16 32.74C64.66 33.4 62.82 31.43 60.32 28.74C59.3113 27.5284 58.5472 26.1326 58.07 24.63C57.1046 21.9809 56.4666 19.2238 56.17 16.42C56.0548 15.7757 56.0994 15.113 56.3 14.49C56.54 13.89 57.14 13.86 57.75 14C57.4893 13.2142 57.472 12.3679 57.7004 11.5721C57.9288 10.7763 58.3923 10.068 59.03 9.53999C59.7971 9.02921 60.6511 8.66317 61.55 8.45999C63.55 7.89999 65.55 7.45999 67.55 6.91999C67.29 5.85735 67.2189 4.75726 67.34 3.66999C67.34 2.82999 67.51 1.83999 68.23 1.45999C68.95 1.07999 69.99 1.66 70.71 2.27C71.4434 2.7267 72.0652 3.34172 72.53 4.06999C72.73 3.06999 72.92 2.11999 73.12 1.13999C73.1495 0.873675 73.2458 0.619122 73.4 0.399989C73.5528 0.23752 73.7517 0.125838 73.97 0.0799969C74.5363 -0.0017969 75.1142 0.0712127 75.6424 0.291285C76.1706 0.511358 76.6293 0.870287 76.97 1.33C77.7229 2.25426 78.3146 3.29891 78.72 4.41999C78.91 3.54999 79.32 2.49 80.19 2.47C80.5188 2.48112 80.832 2.61281 81.07 2.83999C83.26 4.83999 85.02 12.5 82.14 16.63C81.5648 15.6724 80.8616 14.7976 80.05 14.03Z" fill="#FBCA8C"/>
<path d="M65.8203 26.06L71.4903 42.29C71.9673 43.7345 72.9752 44.9439 74.31 45.6735C75.6448 46.4031 77.2069 46.5984 78.6803 46.22C79.5093 45.992 80.2796 45.5885 80.939 45.0368C81.5984 44.4851 82.1316 43.7981 82.5023 43.0224C82.8731 42.2467 83.0729 41.4004 83.0881 40.5408C83.1032 39.6812 82.9335 38.8283 82.5903 38.04L76.3303 23.26L65.8203 26.06Z" fill="#F46C80"/>
<path d="M81.9409 36.53L79.9409 31.88C78.3787 32.4128 76.7234 32.6177 75.0785 32.4818C73.4336 32.3458 71.8344 31.872 70.3809 31.09C70.3809 31.09 73.8209 38.97 81.9409 36.53Z" fill="#0C0A0B"/>
<path d="M76.1596 21.61C76.2038 21.7006 76.2288 21.7994 76.2329 21.9002C76.2371 22.0009 76.2203 22.1015 76.1836 22.1954C76.147 22.2894 76.0913 22.3747 76.02 22.4461C75.9487 22.5174 75.8635 22.5732 75.7696 22.61C75.6789 22.6542 75.5801 22.6792 75.4794 22.6833C75.3786 22.6875 75.2781 22.6707 75.1841 22.6341C75.0902 22.5974 75.0048 22.5417 74.9335 22.4705C74.8621 22.3992 74.8063 22.3139 74.7696 22.22C74.7268 22.1291 74.703 22.0305 74.6996 21.9301C74.6962 21.8298 74.7133 21.7298 74.7498 21.6362C74.7863 21.5427 74.8414 21.4575 74.9119 21.386C74.9823 21.3144 75.0666 21.2579 75.1596 21.22C75.2504 21.1773 75.3491 21.1535 75.4494 21.1501C75.5498 21.1467 75.6498 21.1638 75.7433 21.2002C75.8369 21.2367 75.922 21.2919 75.9936 21.3623C76.0651 21.4328 76.1216 21.517 76.1596 21.61Z" fill="#0C0A0B"/>
<path d="M80.3099 19.87C80.3524 19.9615 80.3757 20.0607 80.3784 20.1615C80.3812 20.2624 80.3632 20.3627 80.3258 20.4563C80.2883 20.55 80.2321 20.635 80.1606 20.7061C80.0891 20.7773 80.0038 20.833 79.9099 20.87C79.8187 20.914 79.7193 20.9385 79.618 20.942C79.5168 20.9454 79.4159 20.9278 79.3219 20.8902C79.2278 20.8526 79.1426 20.7958 79.0717 20.7234C79.0008 20.6511 78.9457 20.5648 78.9099 20.47C78.8672 20.3791 78.8434 20.2805 78.84 20.1801C78.8366 20.0798 78.8537 19.9798 78.8902 19.8862C78.9267 19.7927 78.9818 19.7075 79.0523 19.636C79.1227 19.5644 79.207 19.508 79.2999 19.47C79.3922 19.4274 79.4921 19.404 79.5936 19.4011C79.6952 19.3983 79.7962 19.4161 79.8907 19.4535C79.9851 19.4909 80.071 19.5471 80.143 19.6187C80.2151 19.6903 80.2719 19.7758 80.3099 19.87Z" fill="#0C0A0B"/>
<path d="M73.3103 20.42C73.2549 20.4404 73.1951 20.4456 73.1371 20.435C73.079 20.4245 73.0249 20.3985 72.9803 20.36C72.9512 20.3311 72.9282 20.2969 72.9125 20.2591C72.8968 20.2214 72.8887 20.1809 72.8887 20.14C72.8887 20.0991 72.8968 20.0586 72.9125 20.0208C72.9282 19.983 72.9512 19.9488 72.9803 19.92C73.4477 19.386 74.0586 18.9973 74.7403 18.8C74.8211 18.7775 74.9075 18.7868 74.9818 18.8258C75.0562 18.8648 75.1128 18.9306 75.1403 19.01C75.1622 19.0921 75.1516 19.1796 75.1106 19.2541C75.0696 19.3287 75.0014 19.3845 74.9203 19.41C74.3549 19.5755 73.8463 19.8938 73.4503 20.33C73.4127 20.3722 73.3643 20.4033 73.3103 20.42Z" fill="#FBCA8C"/>
<path d="M79.76 17.72H79.65C79.0841 17.7416 78.5319 17.8994 78.04 18.18C78.0047 18.2015 77.9654 18.2158 77.9245 18.2219C77.8836 18.228 77.8419 18.2259 77.8018 18.2156C77.7617 18.2054 77.7241 18.1872 77.6912 18.1622C77.6582 18.1372 77.6306 18.1058 77.61 18.07C77.5885 18.0347 77.5742 17.9954 77.5681 17.9545C77.562 17.9136 77.5641 17.8719 77.5744 17.8318C77.5846 17.7917 77.6028 17.7541 77.6278 17.7212C77.6528 17.6882 77.6842 17.6606 77.72 17.64C78.3002 17.2989 78.9572 17.1097 79.63 17.09C79.6715 17.0873 79.7132 17.093 79.7525 17.1067C79.7918 17.1205 79.8279 17.142 79.8587 17.17C79.8895 17.198 79.9143 17.2319 79.9317 17.2697C79.9491 17.3075 79.9587 17.3484 79.96 17.39C79.9655 17.459 79.9492 17.5281 79.9133 17.5873C79.8774 17.6465 79.8238 17.6929 79.76 17.72Z" fill="#FBCA8C"/>
<path d="M76.3297 25.5C76.8197 26.39 76.1697 27.68 74.8797 28.38C73.5897 29.08 72.1697 28.93 71.6797 28.04C71.1897 27.15 71.8497 25.87 73.1297 25.17C74.4097 24.47 75.8197 24.62 76.3297 25.5Z" fill="#DB424E"/>
<path d="M83.8193 21.42C84.0359 22.5565 84.0998 23.7167 84.0093 24.87C83.5757 24.8577 83.1578 24.7048 82.8187 24.4342C82.4796 24.1636 82.2376 23.7901 82.1293 23.37C82.0793 22.53 82.8193 21.75 83.8193 21.42Z" fill="#DB424E"/>
<path d="M81.32 27.2C81.3614 27.672 81.2338 28.1433 80.96 28.53C80.6632 28.9509 80.2155 29.241 79.71 29.34C79.2259 29.4133 78.7309 29.351 78.28 29.16C78.0717 29.0659 77.8711 28.9556 77.68 28.83C77.5009 28.6907 77.3305 28.5404 77.17 28.38L78.44 28.6C78.8147 28.6551 79.1954 28.6551 79.57 28.6C79.9442 28.5037 80.2936 28.3292 80.5953 28.0878C80.897 27.8465 81.144 27.5439 81.32 27.2Z" fill="#0C0A0B"/>
<path d="M79 22.69C79.3723 22.6788 79.7417 22.6217 80.1 22.52L80.34 22.44C80.493 22.3786 80.6624 22.3715 80.82 22.42C80.9358 22.4622 81.0336 22.5428 81.0973 22.6483C81.1609 22.7538 81.1866 22.8779 81.17 23C81.1802 23.1131 81.1802 23.2269 81.17 23.34C81.1071 23.7913 80.8918 24.2076 80.56 24.52C80.4078 24.6734 80.2249 24.7927 80.0232 24.8703C79.8215 24.9479 79.6058 24.9819 79.39 24.97C79.6806 24.7456 79.9251 24.4671 80.11 24.15C80.2708 23.8685 80.3793 23.5602 80.43 23.24C80.435 23.1601 80.435 23.0799 80.43 23C80.43 22.86 80.43 23 80.6 23.09C80.77 23.18 80.6 23.09 80.5 23.09C80.3902 23.0999 80.2798 23.0999 80.17 23.09C79.7459 23.0932 79.3334 22.9521 79 22.69Z" fill="#0C0A0B"/>
<path d="M67.6697 28.42C67.2404 28.9338 66.6839 29.326 66.0557 29.5576C65.4276 29.7892 64.7497 29.8521 64.0897 29.74C63.4369 29.582 62.8326 29.2672 62.329 28.8228C61.8254 28.3785 61.4377 27.818 61.1997 27.19C60.9645 26.6375 60.883 26.0317 60.964 25.4367C61.045 24.8417 61.2854 24.2796 61.6597 23.81C62.4397 22.97 63.9897 22.35 64.8697 23.05L67.6697 28.42Z" fill="#F46C80"/>
<path d="M65.3993 27.54C64.9301 27.7388 64.4052 27.7636 63.9193 27.61C63.657 27.5359 63.4125 27.409 63.201 27.237C62.9895 27.0651 62.8154 26.8517 62.6893 26.61C62.5693 26.3462 62.5218 26.0552 62.5517 25.7669C62.5815 25.4786 62.6877 25.2036 62.8593 24.97C63.0116 24.762 63.2062 24.5886 63.4302 24.4611C63.6543 24.3336 63.9027 24.2548 64.1593 24.23C63.4293 24.86 63.0493 25.67 63.3693 26.3C63.5465 26.639 63.8172 26.9201 64.1493 27.11C64.5425 27.3141 64.9638 27.459 65.3993 27.54Z" fill="#0C0A0B"/>
<path d="M169.57 64.79C177.78 64.24 241.37 135.95 241.37 135.95L216.61 159.76L164 100.85L136.58 128.05L85.82 134.29C78.25 135.22 80.41 118.42 80.41 118.42C80.41 118.42 155.82 65.71 169.57 64.79Z" fill="#677AE3"/>
<path d="M193.77 89.28L121.66 114.74L128.41 129.99L199.99 112.14L193.77 89.28Z" fill="#F46C80"/>
<path d="M129.051 131.91C129.051 131.91 125.481 139.42 126.531 143.42C127.961 148.95 125.061 151.42 123.911 152.07L108.721 116.8L121.661 114.73L125.931 124.67C125.931 124.67 129.701 122.47 130.241 122.35C130.781 122.23 133.631 129.9 133.721 130.65C133.811 131.4 129.051 131.91 129.051 131.91Z" fill="#FBFFFB"/>
<path d="M108.723 116.812L107.152 117.487L122.345 152.798L123.916 152.122L108.723 116.812Z" fill="#241D15"/>
<path d="M125.5 150.71L110.66 116.21" stroke="#241D15" stroke-width="0.5" stroke-miterlimit="10"/>
<path d="M126.529 143.42C126.529 143.42 124.259 140.95 119.529 141.89" stroke="#241D15" stroke-width="0.5" stroke-miterlimit="10"/>
<path d="M128.09 136.31C127.86 135.463 127.415 134.689 126.798 134.064C126.182 133.438 125.414 132.982 124.57 132.74" stroke="#241D15" stroke-width="0.5" stroke-miterlimit="10"/>
<path d="M127.61 138.12C127 136.735 125.889 135.631 124.5 135.03" stroke="#241D15" stroke-width="0.5" stroke-miterlimit="10"/>
<path d="M127.099 140.01C126.394 138.931 125.29 138.176 124.029 137.91" stroke="#241D15" stroke-width="0.5" stroke-miterlimit="10"/>
<path d="M169.881 112.33C170.078 114.634 170.596 116.9 171.421 119.06" stroke="#0C0A0B" stroke-width="0.5" stroke-miterlimit="10"/>
<path d="M132 101.7C132 101.7 164.89 86.9 189.73 81.7C196.47 80.3 217.56 79.82 221.04 79.97C239.92 80.78 245.04 100.42 237.84 104.06C233.4 106.29 143.59 128.7 143.59 128.7L132 101.7Z" fill="#677AE3"/>
<path d="M217.129 109.71L190.289 81.67" stroke="#0C0A0B" stroke-width="0.5" stroke-miterlimit="10"/>
<path d="M197.73 89.53L211.94 84.2" stroke="#0C0A0B" stroke-width="0.5" stroke-miterlimit="10"/>
<path d="M180.619 119.32L159.779 95.73" stroke="#0C0A0B" stroke-width="0.5" stroke-miterlimit="10"/>
<path d="M162.24 99.02L134.07 107.6L143.58 128.74" stroke="#0C0A0B" stroke-width="0.5" stroke-miterlimit="10"/>
<path d="M232.87 127.26L210.09 152.61" stroke="#0C0A0B" stroke-width="0.5" stroke-miterlimit="10"/>
<path d="M144.061 104.45L152.391 126.37" stroke="#0C0A0B" stroke-width="0.5" stroke-miterlimit="10"/>
<path d="M114.834 43.3014L105.539 45.5347C103.992 45.9063 103.04 47.4613 103.411 49.0078L107.371 65.4888C107.742 67.0354 109.297 67.9879 110.844 67.6163L120.139 65.383C121.686 65.0114 122.639 63.4564 122.267 61.9098L118.307 45.4289C117.936 43.8823 116.381 42.9298 114.834 43.3014Z" fill="#3F3D53"/>
<path d="M63.2891 141.21C63.2891 141.21 71.0591 134.3 113.049 131.21" stroke="#0C0A0B" stroke-width="0.5" stroke-miterlimit="10"/>
<path d="M163.23 123.8C163.23 123.8 179.71 123.01 184.68 124.01" stroke="#0C0A0B" stroke-width="0.5" stroke-miterlimit="10"/>
<path d="M116.279 35.01L121.019 37.3" stroke="#0C0A0B" stroke-width="0.5" stroke-miterlimit="10"/>
<path d="M64.0605 25.96C76.9305 43.59 84.1205 56.04 85.7905 61.96C88.1705 50.34 90.4305 33.19 84.0705 23.17" stroke="#0C0A0B" stroke-width="0.5" stroke-miterlimit="10"/>
<path d="M85.8191 62C85.2291 67.31 87.1291 84.25 89.6691 88.77C91.2914 91.5357 93.7035 93.7532 96.5955 95.1377C99.4875 96.5223 102.727 97.0106 105.899 96.54C107.469 96.28 116.069 94.42 112.189 67.29" stroke="#0C0A0B" stroke-width="0.5" stroke-miterlimit="10"/>
<path d="M64.9207 25.8501C64.9333 25.9513 64.9256 26.054 64.8981 26.1522C64.8706 26.2504 64.8238 26.3422 64.7606 26.4223C64.6973 26.5023 64.6188 26.5689 64.5295 26.6183C64.4403 26.6677 64.3421 26.6989 64.2407 26.7101C64.1408 26.7226 64.0394 26.7152 63.9424 26.6882C63.8454 26.6612 63.7547 26.6152 63.6756 26.5528C63.5965 26.4905 63.5306 26.4131 63.4817 26.325C63.4328 26.237 63.4019 26.1401 63.3907 26.0401C63.3782 25.9396 63.3855 25.8376 63.4124 25.74C63.4392 25.6423 63.4851 25.551 63.5473 25.4711C63.6096 25.3912 63.687 25.3244 63.7751 25.2744C63.8631 25.2245 63.9602 25.1924 64.0607 25.1801C64.2632 25.1573 64.4665 25.2147 64.6272 25.3399C64.7879 25.4651 64.8933 25.6482 64.9207 25.8501Z" fill="#0C0A0B"/>
<path d="M100.821 65.22L70.1305 87.64L57.3105 90.33C57.3105 90.33 57.5005 110.08 66.7805 108.94C71.9305 108.31 106.871 69.13 106.871 69.13L100.821 65.22Z" fill="#F46C80"/>
<path d="M100.82 65.22C100.82 65.22 101.42 61.82 101.64 61.22C102.597 59.6664 103.724 58.2242 105 56.92C105.56 56.5 106.09 58.28 105.38 59.76C105.38 59.76 108.67 55.33 109.38 55.45C110.32 55.62 109.79 56.7 109.79 56.7C109.79 56.7 111.65 54.36 112.4 54.6C113.15 54.84 111.61 57.78 111.61 57.78C111.61 57.78 113.03 56.4301 113.61 57.08C114.19 57.7301 112.99 59.15 112.99 59.15C112.99 59.15 114.17 58.41 114.7 58.95C115.4 59.68 113.3 64.72 112.21 65.72C110.541 67.0132 108.768 68.1671 106.91 69.17L100.82 65.22Z" fill="#F46C80"/>
</g>
<defs>
<clipPath id="clip0_71_18819">
<rect width="270.9" height="176.28" fill="white"/>
</clipPath>
</defs>
</svg>
