<svg width="40" height="40" viewBox="0 0 40 40" fill="none" xmlns="http://www.w3.org/2000/svg">
<g clip-path="url(#clip0_46_1063)">
<path d="M32 0H8C3.58172 0 0 3.58172 0 8V32C0 36.4183 3.58172 40 8 40H32C36.4183 40 40 36.4183 40 32V8C40 3.58172 36.4183 0 32 0Z" fill="#0091E6"/>
<path fill-rule="evenodd" clip-rule="evenodd" d="M12 14H28C28.5523 14 29 14.4477 29 15V15.6981L20.6986 20.0673C20.2613 20.2974 19.7387 20.2974 19.3013 20.0673L11 15.6982V15C11 14.4477 11.4477 14 12 14ZM11 16.8282V25C11 25.5523 11.4477 26 12 26H28C28.5523 26 29 25.5523 29 25V16.8282L21.1643 20.9522C20.4355 21.3358 19.5644 21.3358 18.8356 20.9522L11 16.8282Z" fill="white"/>
</g>
<defs>
<clipPath id="clip0_46_1063">
<rect width="40" height="40" fill="white"/>
</clipPath>
</defs>
</svg>
