<svg width="19" height="16" viewBox="0 0 19 16" fill="none" xmlns="http://www.w3.org/2000/svg">
<path id="Vector" fill-rule="evenodd" clip-rule="evenodd" d="M17.8909 7.80879C17.9876 7.76081 18.0682 7.68548 18.1225 7.59215C18.1769 7.49882 18.2027 7.39159 18.1966 7.28375C18.1906 7.17592 18.1531 7.07221 18.0887 6.9855C18.0243 6.8988 17.9359 6.83289 17.8344 6.79596L1.59285 0.871847L1.59153 0.870669L1.08744 0.685896C0.991983 0.651161 0.88879 0.643452 0.789232 0.663617C0.689673 0.683783 0.597614 0.73104 0.523198 0.800183C0.448782 0.869326 0.394897 0.957669 0.367481 1.05548C0.340065 1.15329 0.340183 1.25677 0.36782 1.35452L0.513142 1.86979L0.512691 1.87294L2.27925 8.16189L1.21486 14.6082L1.21566 14.6113L1.12727 15.14C1.1109 15.2402 1.12245 15.3429 1.16064 15.4368C1.19884 15.5308 1.26221 15.6125 1.34378 15.6728C1.42535 15.7331 1.52197 15.7697 1.62302 15.7787C1.72407 15.7877 1.82564 15.7686 1.91656 15.7236L17.8915 7.80938L17.8909 7.80879ZM14.9925 8.01361L16.2467 7.39116L14.9318 6.91161L3.25422 7.55484L3.3734 7.98153C3.39582 8.05929 3.40033 8.14112 3.3866 8.22088L3.31564 8.65742L14.9925 8.01361V8.01361Z" fill="white"/>
</svg>
