<svg xmlns="http://www.w3.org/2000/svg"  viewBox="0 0 96 96" width="96px" height="96px" baseProfile="basic"><path fill="#0fd2ff" d="M69.98,36.005c-2.082,0-4.136-0.547-5.987-1.617c-1.186-0.686-2.236-1.558-3.12-2.593	c-0.849-0.993-0.936-2.382-0.316-3.451c-1.214-0.228-2.209-1.194-2.412-2.484c-0.425-2.701,0.096-5.495,1.466-7.866	c1.604-2.774,4.193-4.759,7.29-5.586c3.095-0.827,6.33-0.399,9.105,1.205c2.774,1.604,4.759,4.192,5.586,7.289	c0.828,3.096,0.4,6.33-1.205,9.104c-1.604,2.775-4.193,4.76-7.29,5.587C72.067,35.868,71.021,36.005,69.98,36.005z M63.705,26.897	c0.651,0.121,1.267,0.458,1.731,1.001c0.44,0.515,0.965,0.951,1.561,1.295c1.388,0.804,3.005,1.02,4.553,0.603	c1.548-0.413,2.843-1.405,3.645-2.793s1.016-3.004,0.602-4.553c-0.414-1.548-1.405-2.842-2.793-3.644	c-1.387-0.802-3.003-1.019-4.553-0.603c-1.548,0.413-2.843,1.405-3.645,2.793c-0.695,1.202-0.949,2.562-0.734,3.931	C64.183,25.635,64.038,26.323,63.705,26.897z" opacity=".3"/><path fill="#0fd2ff" d="M69.982,35.005c-1.909,0-3.792-0.502-5.488-1.482c-1.088-0.629-2.051-1.429-2.86-2.377	c-0.718-0.84-0.618-2.103,0.222-2.819c0.838-0.719,2.101-0.618,2.819,0.222c0.514,0.602,1.127,1.11,1.821,1.512	c1.619,0.937,3.506,1.185,5.312,0.703c1.807-0.483,3.316-1.641,4.252-3.259c0.936-1.619,1.186-3.506,0.703-5.312	c-0.483-1.807-1.64-3.316-3.259-4.252c-1.619-0.937-3.506-1.184-5.312-0.703c-1.807,0.483-3.316,1.641-4.252,3.259	c-0.811,1.403-1.107,2.989-0.856,4.587c0.172,1.091-0.574,2.114-1.665,2.286c-1.093,0.172-2.115-0.573-2.287-1.665	c-0.39-2.477,0.088-5.037,1.344-7.21c1.471-2.544,3.844-4.362,6.683-5.121c2.839-0.758,5.803-0.365,8.346,1.104	c2.543,1.471,4.362,3.843,5.121,6.682s0.367,5.803-1.104,8.347s-3.844,4.362-6.683,5.121C71.895,34.88,70.936,35.005,69.982,35.005z" opacity=".3"/><path fill="#0fd2ff" d="M24.025,60.004c-0.733,0-1.472-0.067-2.209-0.204c-3.152-0.583-5.888-2.359-7.704-5	c-1.816-2.642-2.495-5.832-1.912-8.983c0.583-3.152,2.359-5.889,5.001-7.704c2.641-1.816,5.83-2.497,8.983-1.912	c3.152,0.583,5.888,2.359,7.704,5c0.776,1.13,1.35,2.369,1.703,3.685c0.339,1.262-0.179,2.552-1.198,3.252	c0.999,0.727,1.482,2.028,1.111,3.279c-0.777,2.622-2.448,4.921-4.706,6.473C28.775,59.279,26.429,60.004,24.025,60.004z M23.988,41.998c-1.202,0-2.375,0.362-3.387,1.058c-1.321,0.908-2.209,2.276-2.5,3.853s0.048,3.171,0.956,4.491	c0.908,1.321,2.276,2.209,3.852,2.501c1.578,0.289,3.171-0.049,4.492-0.956c1.145-0.787,1.958-1.905,2.352-3.233	c0.204-0.687,0.631-1.245,1.179-1.621c-0.536-0.39-0.948-0.958-1.133-1.648c-0.176-0.655-0.463-1.274-0.853-1.842	c-0.908-1.32-2.276-2.208-3.852-2.5C24.724,42.032,24.354,41.998,23.988,41.998z" opacity=".3"/><path fill="#0fd2ff" d="M24.023,59.003c-0.672,0-1.35-0.062-2.025-0.187c-2.889-0.535-5.397-2.162-7.062-4.584	c-1.665-2.421-2.287-5.345-1.752-8.234s2.163-5.397,4.584-7.063c2.421-1.664,5.347-2.287,8.234-1.752	c2.889,0.535,5.397,2.162,7.062,4.584c0.712,1.035,1.237,2.172,1.562,3.376c0.287,1.067-0.346,2.164-1.413,2.451	c-1.066,0.287-2.164-0.346-2.451-1.412c-0.206-0.766-0.54-1.488-0.994-2.149c-1.06-1.54-2.655-2.576-4.494-2.916	c-1.839-0.343-3.7,0.055-5.24,1.115c-1.541,1.059-2.577,2.655-2.917,4.494c-0.34,1.838,0.056,3.699,1.115,5.24	c1.06,1.54,2.655,2.576,4.494,2.916c1.839,0.342,3.699-0.055,5.24-1.115c1.336-0.918,2.285-2.223,2.744-3.772	c0.314-1.059,1.428-1.658,2.486-1.35c1.059,0.314,1.663,1.427,1.349,2.486c-0.712,2.403-2.244,4.511-4.313,5.933	C28.377,58.34,26.227,59.003,24.023,59.003z" opacity=".3"/><path fill="#4d4dff" d="M36.745,45.047c-1.031,0-2.034-0.531-2.592-1.484c-0.837-1.431-0.356-3.268,1.074-4.104	l21.246-12.434c1.429-0.839,3.267-0.356,4.104,1.073c0.837,1.431,0.356,3.268-1.074,4.104L38.257,44.636	C37.781,44.915,37.26,45.047,36.745,45.047z" opacity=".3"/><path fill="#4d4dff" d="M36.744,44.047c-0.687,0-1.356-0.354-1.728-0.99c-0.558-0.953-0.237-2.178,0.716-2.736	l21.246-12.434c0.953-0.559,2.178-0.237,2.736,0.717c0.558,0.953,0.237,2.178-0.716,2.736L37.752,43.773	C37.435,43.959,37.087,44.047,36.744,44.047z" opacity=".3"/><path fill="#0fd2ff" d="M70.02,84.004c-1.04,0-2.087-0.137-3.118-0.412c-3.097-0.828-5.686-2.813-7.29-5.588	c-1.371-2.369-1.892-5.163-1.466-7.865c0.203-1.289,1.199-2.256,2.412-2.483c-0.619-1.069-0.533-2.458,0.316-3.451	c0.885-1.036,1.935-1.909,3.121-2.595c2.774-1.604,6.007-2.031,9.105-1.204c3.097,0.828,5.686,2.813,7.29,5.588	c3.312,5.728,1.346,13.082-4.382,16.394C74.156,83.457,72.102,84.004,70.02,84.004z M63.704,69.102	c0.333,0.574,0.479,1.263,0.368,1.971c-0.215,1.368,0.039,2.727,0.733,3.929c0.803,1.389,2.097,2.381,3.646,2.794	c1.547,0.413,3.165,0.2,4.552-0.602c2.864-1.656,3.847-5.334,2.191-8.197c-0.802-1.389-2.097-2.381-3.645-2.794	s-3.165-0.199-4.552,0.602c-0.595,0.345-1.121,0.78-1.562,1.297C64.972,68.644,64.356,68.98,63.704,69.102z" opacity=".3"/><path fill="#0fd2ff" d="M70.018,83.004c-0.954,0-1.913-0.125-2.859-0.378c-2.838-0.759-5.211-2.578-6.682-5.122	c-1.257-2.172-1.734-4.732-1.344-7.209c0.172-1.092,1.196-1.841,2.287-1.665c1.091,0.172,1.836,1.195,1.665,2.286	c-0.251,1.598,0.044,3.184,0.856,4.586c0.936,1.619,2.446,2.776,4.252,3.26c1.806,0.48,3.693,0.232,5.312-0.703	c3.341-1.932,4.488-6.223,2.556-9.563c-0.936-1.619-2.446-2.776-4.252-3.26c-1.806-0.481-3.693-0.232-5.312,0.703	c-0.693,0.4-1.306,0.91-1.821,1.513c-0.717,0.84-1.98,0.94-2.819,0.222c-0.84-0.717-0.939-1.979-0.222-2.819	c0.811-0.949,1.773-1.75,2.86-2.378c2.544-1.471,5.509-1.863,8.347-1.104c2.838,0.759,5.211,2.578,6.682,5.122	c3.036,5.25,1.234,11.992-4.017,15.028C73.81,82.502,71.926,83.004,70.018,83.004z" opacity=".3"/><path fill="#4d4dff" d="M57.985,69.385c-0.515,0-1.036-0.132-1.512-0.411L35.178,56.512	c-1.43-0.837-1.911-2.674-1.074-4.104c0.836-1.43,2.674-1.913,4.104-1.073l21.295,12.462c1.43,0.837,1.911,2.674,1.074,4.104	C60.02,68.854,59.016,69.385,57.985,69.385z" opacity=".3"/><path fill="#4d4dff" d="M57.986,68.385c-0.343,0-0.691-0.088-1.008-0.273L35.683,55.649	c-0.953-0.559-1.274-1.783-0.716-2.736c0.559-0.953,1.785-1.273,2.736-0.717l21.295,12.462c0.953,0.559,1.274,1.783,0.716,2.736	C59.342,68.03,58.673,68.385,57.986,68.385z" opacity=".3"/><path fill="#0fd2ff" d="M69.984,34.004c-1.735,0-3.447-0.455-4.989-1.348c-0.99-0.571-1.865-1.299-2.601-2.16	c-0.359-0.42-0.309-1.051,0.111-1.41c0.42-0.356,1.052-0.309,1.41,0.111c0.588,0.688,1.288,1.27,2.081,1.728	c1.851,1.071,4.005,1.355,6.07,0.804c2.064-0.552,3.791-1.874,4.86-3.725c1.069-1.85,1.354-4.006,0.803-6.07	c-0.551-2.063-1.874-3.79-3.724-4.858c-1.85-1.07-4.004-1.354-6.07-0.804c-2.064,0.552-3.791,1.874-4.86,3.725	c-0.927,1.603-1.265,3.416-0.978,5.242c0.086,0.546-0.287,1.058-0.833,1.144c-0.546,0.079-1.057-0.287-1.143-0.833	c-0.354-2.251,0.08-4.578,1.222-6.555c1.337-2.312,3.495-3.965,6.075-4.655c2.582-0.688,5.275-0.333,7.588,1.005	c2.313,1.336,3.966,3.493,4.656,6.074c0.689,2.58,0.333,5.274-1.004,7.587s-3.495,3.966-6.075,4.656	C71.723,33.891,70.851,34.004,69.984,34.004z"/><path fill="#0fd2ff" d="M24.021,58.003c-0.611,0-1.227-0.056-1.841-0.17c-2.626-0.486-4.906-1.966-6.42-4.167	c-1.513-2.201-2.079-4.859-1.593-7.486c0.486-2.626,1.966-4.906,4.167-6.42c2.201-1.513,4.86-2.082,7.486-1.593	c2.626,0.486,4.906,1.966,6.42,4.167c0.647,0.941,1.125,1.975,1.419,3.069c0.143,0.533-0.173,1.082-0.706,1.226	c-0.532,0.145-1.082-0.173-1.226-0.706c-0.235-0.875-0.617-1.701-1.136-2.456c-1.21-1.761-3.035-2.944-5.136-3.333	c-2.102-0.389-4.228,0.064-5.989,1.274c-1.761,1.211-2.945,3.034-3.334,5.136c-0.389,2.102,0.064,4.229,1.275,5.989	c1.21,1.761,3.035,2.944,5.136,3.333c2.103,0.39,4.228-0.063,5.989-1.274c1.526-1.049,2.611-2.54,3.136-4.313	c0.157-0.53,0.715-0.834,1.243-0.675c0.529,0.157,0.832,0.714,0.675,1.243c-0.647,2.185-2.04,4.1-3.921,5.393	C27.979,57.399,26.024,58.003,24.021,58.003z"/><path fill="#4d4dff" d="M36.743,43.047c-0.344,0-0.678-0.177-0.864-0.495c-0.279-0.477-0.119-1.089,0.358-1.368L57.483,28.75	c0.479-0.278,1.09-0.118,1.368,0.358c0.279,0.477,0.119,1.089-0.358,1.368L37.247,42.91C37.088,43.003,36.915,43.047,36.743,43.047z"/><path fill="#0fd2ff" d="M70.016,82.003c-0.867,0-1.739-0.113-2.599-0.344c-2.581-0.689-4.738-2.343-6.075-4.656	c-1.143-1.975-1.577-4.302-1.222-6.553c0.086-0.546,0.603-0.912,1.143-0.833c0.546,0.086,0.918,0.599,0.833,1.144	c-0.283,1.8,0.064,3.661,0.978,5.241c1.069,1.851,2.795,3.174,4.86,3.726c2.063,0.551,4.22,0.267,6.07-0.803	c3.819-2.209,5.129-7.111,2.921-10.93c-1.069-1.851-2.795-3.174-4.86-3.726c-2.063-0.551-4.22-0.266-6.07,0.803	c-0.792,0.458-1.492,1.04-2.081,1.729c-0.358,0.42-0.99,0.468-1.41,0.111c-0.42-0.359-0.47-0.99-0.111-1.41	c0.737-0.863,1.612-1.59,2.601-2.162c2.312-1.338,5.006-1.695,7.588-1.003c2.581,0.689,4.738,2.343,6.075,4.656	c2.76,4.772,1.122,10.901-3.652,13.661C73.463,81.548,71.751,82.003,70.016,82.003z"/><path fill="#4d4dff" d="M57.987,67.385c-0.171,0-0.345-0.044-0.504-0.137L36.188,54.786	c-0.477-0.279-0.637-0.892-0.358-1.368c0.278-0.478,0.891-0.638,1.368-0.358l21.295,12.462c0.477,0.279,0.637,0.892,0.358,1.368	C58.666,67.208,58.331,67.385,57.987,67.385z"/></svg>