<svg width="94" height="83" viewBox="0 0 94 83" fill="none" xmlns="http://www.w3.org/2000/svg">
<path d="M55.6751 42.3784C54.4457 38.6975 54.3316 34.7353 55.3472 30.9898C56.3627 27.2442 58.4625 23.8823 61.3829 21.3265C64.3032 18.7707 67.9137 17.135 71.7609 16.6249C75.608 16.1148 79.52 16.7531 83.0055 18.4595C86.491 20.166 89.3944 22.8644 91.3509 26.2159C93.3075 29.5674 94.2299 33.4223 94.0022 37.2964C93.7746 41.1705 92.4071 44.891 90.0715 47.9902C87.7359 51.0895 84.5364 53.4294 80.8751 54.7159L83.6314 62.5909C83.6314 62.5909 60.7939 57.0784 55.6751 42.5096V42.3784Z" fill="#A38FDD"/>
<path d="M3.70018 50.122C0.901152 43.6615 0.0749255 36.5177 1.32542 29.5889C2.57591 22.6601 5.84727 16.2558 10.7281 11.1814C15.6089 6.10697 21.8812 2.58909 28.7561 1.07016C35.6311 -0.448764 42.8016 0.0990964 49.366 2.64484C55.9304 5.19058 61.5954 9.62053 65.6487 15.3775C69.7019 21.1345 71.9624 27.9615 72.1457 34.9999C72.3291 42.0382 70.4271 48.9736 66.6791 54.9338C62.9311 60.894 57.5044 65.6129 51.0814 68.497L57.2502 82.5407C57.2502 82.5407 15.2502 75.9782 3.83143 50.122H3.70018Z" fill="#FF8A00" fill-opacity="0.7"/>
<path d="M46.6188 24.9218C36.6438 24.9218 33.3625 40.0155 25.4875 40.0155C24.8153 40.0155 24.1497 39.8831 23.5286 39.6259C22.9076 39.3686 22.3433 38.9916 21.868 38.5163C21.3927 38.041 21.0156 37.4767 20.7584 36.8556C20.5011 36.2346 20.3687 35.569 20.3687 34.8968C20.3687 34.2246 20.5011 33.559 20.7584 32.9379C21.0156 32.3169 21.3927 31.7526 21.868 31.2773C22.3433 30.802 22.9076 30.4249 23.5286 30.1677C24.1497 29.9104 24.8153 29.778 25.4875 29.778C26.7284 29.8284 27.9413 30.1621 29.0333 30.7536C30.1253 31.3451 31.0674 32.1787 31.7875 33.1905L35.0687 29.253C33.8535 27.8695 32.3607 26.7571 30.6873 25.9883C29.014 25.2195 27.1976 24.8114 25.3563 24.7905C22.6759 24.7905 20.1053 25.8553 18.2101 27.7506C16.3148 29.6459 15.25 32.2164 15.25 34.8968C15.25 37.5771 16.3148 40.1477 18.2101 42.043C20.1053 43.9383 22.6759 45.003 25.3563 45.003C36.3813 45.003 40.45 29.778 46.4875 29.778C47.8451 29.778 49.1471 30.3173 50.107 31.2773C51.067 32.2372 51.6063 33.5392 51.6063 34.8968C51.6063 36.2544 51.067 37.5563 50.107 38.5163C49.1471 39.4762 47.8451 40.0155 46.4875 40.0155C43.6 40.0155 40.8438 37.2593 40.8438 37.2593L37.5625 41.328C38.6985 42.5989 40.0962 43.6089 41.6594 44.2886C43.2227 44.9682 44.9145 45.3015 46.6188 45.2655C49.3165 45.2655 51.9038 44.1938 53.8114 42.2863C55.7189 40.3787 56.7906 37.7914 56.7906 35.0937C56.7906 32.3959 55.7189 29.8086 53.8114 27.9011C51.9038 25.9935 49.3165 24.9218 46.6188 24.9218Z" fill="white"/>
</svg>
