<svg width="277" height="68" viewBox="0 0 277 68" fill="none" xmlns="http://www.w3.org/2000/svg">
<path opacity="0.4" d="M0.808825 33.3875C0.705286 33.5189 0.656425 33.6853 0.672407 33.8519C0.688389 34.0184 0.767983 34.1725 0.89463 34.2818C1.02128 34.3912 1.18522 34.4476 1.35236 34.4392C1.5195 34.4308 1.67696 34.3582 1.79198 34.2367L0.808825 33.3875ZM276.348 34.0091C276.34 33.837 276.263 33.6755 276.135 33.5599C276.007 33.4443 275.839 33.3842 275.667 33.3927L269.823 33.6853C269.737 33.6895 269.654 33.7106 269.577 33.7472C269.499 33.7838 269.43 33.8352 269.373 33.8985C269.316 33.9619 269.271 34.0359 269.243 34.1163C269.214 34.1968 269.201 34.2821 269.206 34.3674C269.21 34.4527 269.231 34.5363 269.267 34.6135C269.304 34.6907 269.355 34.7599 269.419 34.8172C269.482 34.8745 269.556 34.9187 269.637 34.9474C269.717 34.9761 269.802 34.9887 269.888 34.9844L275.083 34.7243L275.343 39.9197C275.352 40.092 275.428 40.2538 275.556 40.3695C275.62 40.4268 275.694 40.4711 275.774 40.4998C275.855 40.5285 275.94 40.5411 276.025 40.5368C276.111 40.5325 276.194 40.5115 276.271 40.4749C276.349 40.4383 276.418 40.3869 276.475 40.3235C276.532 40.2602 276.577 40.1862 276.605 40.1058C276.634 40.0253 276.647 39.94 276.642 39.8547L276.348 34.0091ZM1.79198 34.2367C2.06118 33.9246 2.33948 33.6098 2.62038 33.2925L1.65023 32.4277C1.36413 32.7489 1.08322 33.0689 0.808825 33.3875L1.79198 34.2367ZM4.35521 31.4095C4.93261 30.7982 5.53083 30.187 6.14855 29.5719L5.23042 28.6499C4.60359 29.2741 3.99758 29.8957 3.40976 30.5134L4.35521 31.4095ZM7.97571 27.8033C8.58693 27.2271 9.21376 26.651 9.85619 26.0762L8.99008 25.1074C8.33854 25.69 7.70261 26.2726 7.08359 26.8565L7.97571 27.8019V27.8033ZM11.79 24.3947C12.4415 23.8423 13.1 23.2982 13.7654 22.7626L12.95 21.7496C12.2686 22.2984 11.6014 22.8498 10.9499 23.4012L11.79 24.3947ZM15.7707 21.1904C16.4492 20.672 17.1341 20.1621 17.8255 19.661L17.0621 18.6076C16.3559 19.12 15.6628 19.6363 14.9813 20.1565L15.7707 21.1904ZM19.9192 18.1837C20.6198 17.7023 21.3265 17.2298 22.039 16.7662L21.3302 15.6751C20.602 16.1484 19.8867 16.627 19.1819 17.1108L19.9192 18.1837ZM24.2043 15.3968C24.9303 14.95 25.6621 14.5126 26.3995 14.0846L25.7466 12.9597C24.9995 13.3928 24.2582 13.8359 23.5228 14.2888L24.2043 15.3968ZM28.6259 12.8335C29.3757 12.4247 30.1309 12.0259 30.8913 11.6371L30.2996 10.4784C29.5282 10.8726 28.7622 11.2771 28.0016 11.6917L28.6259 12.8335ZM33.1775 10.5057C33.9464 10.1383 34.7202 9.78153 35.4989 9.43542L34.9709 8.24679C34.1776 8.59922 33.3934 8.96205 32.617 9.33268L33.1775 10.5057ZM37.8514 8.42886C38.6343 8.10764 39.425 7.79423 40.2248 7.49252L39.7644 6.27658C38.9542 6.58219 38.1518 6.9008 37.3572 7.22592L37.8514 8.42886ZM42.6319 6.6212C43.4351 6.34397 44.2424 6.07865 45.0534 5.82532L44.6659 4.58337C43.8426 4.84086 43.0232 5.11052 42.208 5.39226L42.6319 6.6212ZM47.5048 5.09965C48.3246 4.87028 49.1479 4.65351 49.9744 4.44942L49.6623 3.18796C48.8196 3.39604 47.9847 3.61582 47.1537 3.8473L47.5048 5.09965ZM52.4596 3.87721C53.2935 3.69917 54.1303 3.53442 54.9695 3.38303L54.738 2.10207C53.8858 2.2567 53.0361 2.42448 52.1891 2.60535L52.4596 3.87721ZM57.482 2.96949C58.3259 2.84468 59.1717 2.73369 60.0192 2.63656L59.8735 1.3452C59.0074 1.44403 58.1478 1.55718 57.2934 1.68332L57.482 2.96949ZM62.5525 2.38948C63.4016 2.32053 64.2518 2.26547 65.1027 2.22432L65.0403 0.926448C64.1716 0.966762 63.3068 1.02268 62.4472 1.09291L62.5525 2.38948ZM67.6504 2.14629C68.4957 2.13328 69.3475 2.13588 70.2019 2.15279L70.2279 0.852321C69.3623 0.83557 68.4965 0.833403 67.6309 0.845818L67.6504 2.14629ZM72.7521 2.24512C73.5961 2.29064 74.4427 2.34916 75.2945 2.42459L75.4077 1.12802C74.5465 1.05282 73.6842 0.99212 72.821 0.945955L72.7521 2.24512ZM77.8356 2.68858C78.6731 2.79002 79.5132 2.90576 80.3585 3.03711L80.5575 1.75225C79.7043 1.61965 78.8489 1.50129 77.9917 1.39722L77.8356 2.68858ZM82.8789 3.47147C83.7059 3.62752 84.537 3.79918 85.3706 3.98515L85.6541 2.71589C84.8125 2.52785 83.968 2.35357 83.1207 2.1931L82.8789 3.47147ZM87.8596 4.58337C88.6737 4.79404 89.493 5.01772 90.3136 5.25831L90.6778 4.00986C89.85 3.76823 89.0185 3.53975 88.1835 3.32451L87.8596 4.58337ZM92.7572 6.01258C93.5652 6.27568 94.369 6.55142 95.1683 6.83968L95.6091 5.61724C94.7972 5.32434 93.9809 5.04384 93.1604 4.77584L92.7572 6.01258ZM97.5573 7.74221C98.344 8.05172 99.1321 8.37554 99.9241 8.71366L100.435 7.51853C99.6398 7.17737 98.8395 6.84788 98.0345 6.53017L97.5573 7.74221ZM102.249 9.75013C103.021 10.1078 103.794 10.4784 104.568 10.8633L105.147 9.69812C104.361 9.30797 103.577 8.93084 102.794 8.57061L102.249 9.75013ZM106.822 12.0221C107.575 12.4213 108.329 12.8348 109.085 13.2614L109.723 12.13C108.964 11.7012 108.2 11.2824 107.43 10.8737L106.822 12.0221ZM111.275 14.5346C112.003 14.9702 112.73 15.4176 113.459 15.8779L114.154 14.779C113.422 14.3166 112.686 13.8632 111.943 13.4188L111.275 14.5346ZM115.608 17.2733C116.307 17.7389 117.007 18.2162 117.708 18.7065L118.453 17.6401C117.751 17.1487 117.043 16.6654 116.33 16.1901L115.608 17.2733ZM119.813 20.2137C120.488 20.7079 121.163 21.2151 121.838 21.7314L122.629 20.6988C121.953 20.1801 121.271 19.6686 120.583 19.1642L119.813 20.2137ZM123.858 23.3101C124.522 23.8433 125.19 24.3869 125.857 24.9422L126.689 23.9435C126.021 23.387 125.347 22.8373 124.668 22.2945L123.858 23.3101ZM127.785 26.5808C128.429 27.1374 129.073 27.7057 129.718 28.2844L130.588 27.3169C129.938 26.7317 129.287 26.1595 128.637 25.5977L127.785 26.5808ZM131.613 30.018C132.226 30.5902 132.84 31.1715 133.455 31.7632L134.358 30.8268C133.738 30.2299 133.119 29.6434 132.498 29.066L131.613 30.018ZM135.299 33.5721C135.608 33.879 135.915 34.1873 136.223 34.4994L137.149 33.5864C136.838 33.2717 136.528 32.9596 136.218 32.6501L135.299 33.5721ZM136.223 34.4994C136.539 34.8206 136.856 35.1392 137.172 35.4539L138.09 34.5332C137.777 34.2211 137.462 33.9051 137.149 33.5864L136.223 34.4994ZM139.073 37.3136C139.707 37.9235 140.34 38.5217 140.973 39.1082L141.858 38.155C141.225 37.5677 140.597 36.9746 139.975 36.3759L139.073 37.3136ZM142.933 40.8925C143.599 41.4868 144.264 42.0681 144.929 42.639L145.776 41.6533C145.112 41.0827 144.453 40.5061 143.799 39.9236L142.933 40.8925ZM146.923 44.3179C147.616 44.8888 148.309 45.448 149.003 45.9955L149.808 44.9746C149.116 44.4282 148.43 43.8746 147.75 43.3139L146.923 44.3179ZM151.09 47.6081C151.795 48.1387 152.498 48.6589 153.202 49.1661L153.963 48.1114C153.261 47.6049 152.564 47.0908 151.874 46.569L151.09 47.6081ZM155.383 50.6993C156.102 51.1938 156.828 51.6793 157.56 52.1558L158.27 51.0673C157.547 50.596 156.829 50.116 156.117 49.6277L155.383 50.6993ZM159.806 53.5825C160.561 54.048 161.317 54.5019 162.071 54.9414L162.725 53.8178C161.974 53.3797 161.229 52.9323 160.49 52.4758L159.806 53.5825ZM164.365 56.2393C165.149 56.6685 165.931 57.0846 166.712 57.4865L167.307 56.329C166.529 55.9293 165.757 55.5192 164.991 55.0988L164.365 56.2393ZM169.06 58.653C169.869 59.0405 170.676 59.4138 171.482 59.7727L172.012 58.5854C171.21 58.2283 170.414 57.8598 169.623 57.48L169.06 58.653ZM173.897 60.8079C174.726 61.1473 175.552 61.4724 176.376 61.7832L176.835 60.5673C176.016 60.2587 175.202 59.9379 174.393 59.6049L173.897 60.8079ZM178.856 62.6766C179.7 62.9653 180.543 63.2397 181.383 63.4985L181.765 62.2553C180.932 61.9981 180.103 61.728 179.279 61.4451L178.856 62.6766ZM183.919 64.2372C184.777 64.4739 185.633 64.6937 186.487 64.9004L186.792 63.6351C185.945 63.4317 185.103 63.2149 184.263 62.9848L183.919 64.2372ZM189.067 65.4779C189.939 65.6573 190.807 65.8225 191.674 65.972L191.896 64.6911C191.038 64.5424 190.184 64.3798 189.331 64.2034L189.067 65.4779ZM194.286 66.383C195.162 66.5051 196.04 66.6135 196.92 66.7081L197.057 65.4141C196.192 65.3218 195.329 65.2151 194.467 65.0942L194.286 66.383ZM199.553 66.9448C200.439 67.0098 201.323 67.0605 202.202 67.0956L202.255 65.7965C201.386 65.7614 200.516 65.712 199.648 65.6482L199.553 66.9448ZM204.843 67.1607C205.733 67.1685 206.619 67.1607 207.499 67.1385L207.468 65.8381C206.6 65.8602 205.729 65.8667 204.854 65.8602L204.843 67.1607ZM210.136 67.0306C211.021 66.9807 211.904 66.9165 212.787 66.8381L212.672 65.5429C211.804 65.6201 210.934 65.6834 210.063 65.7327L210.136 67.0319V67.0306ZM215.415 66.5624C216.293 66.4565 217.17 66.3368 218.044 66.2035L217.848 64.9174C216.99 65.0474 216.126 65.167 215.259 65.2711L215.415 66.5624ZM220.653 65.764C221.525 65.6027 222.389 65.4297 223.25 65.2438L222.976 63.9732C222.125 64.1564 221.272 64.3268 220.417 64.4843L220.653 65.764ZM225.83 64.6455C226.689 64.4349 227.54 64.2099 228.387 63.9745L228.039 62.7222C227.204 62.9536 226.364 63.1747 225.518 63.3841L225.83 64.6455ZM230.931 63.228C231.775 62.9666 232.611 62.6948 233.441 62.4113L233.022 61.1798C232.204 61.4594 231.378 61.7273 230.546 61.9861L230.931 63.228ZM235.939 61.5218C236.769 61.2136 237.591 60.895 238.405 60.5673L237.92 59.3604C237.116 59.6843 236.304 59.9977 235.486 60.302L235.939 61.5218ZM240.846 59.5451C241.658 59.1927 242.463 58.8298 243.261 58.4592L242.712 57.2797C241.925 57.6464 241.13 58.0041 240.327 58.3526L240.846 59.5451ZM245.637 57.3161C246.428 56.922 247.215 56.518 247.997 56.1041L247.388 54.9545C246.621 55.3615 245.843 55.7607 245.057 56.1509L245.637 57.3161ZM250.317 54.8387C251.085 54.4075 251.847 53.967 252.604 53.5174L251.94 52.399C251.192 52.8434 250.438 53.2786 249.68 53.7047L250.317 54.8387ZM254.866 52.1337C255.61 51.6664 256.349 51.19 257.082 50.7045L256.364 49.6212C255.645 50.0972 254.915 50.568 254.174 51.0335L254.866 52.1337ZM259.271 49.2168C259.995 48.7115 260.713 48.1973 261.424 47.6744L260.654 46.6262C259.959 47.1373 259.249 47.6458 258.527 48.1504L259.271 49.2168ZM263.53 46.0878C264.236 45.5417 264.928 44.9929 265.605 44.4428L264.785 43.4336C264.116 43.9772 263.432 44.5195 262.735 45.0592L263.53 46.0878ZM267.64 42.7443C268.31 42.1719 268.971 41.5905 269.625 41.0004L268.755 40.0342C268.119 40.609 267.465 41.1825 266.795 41.756L267.64 42.7443ZM271.556 39.2123C272.21 38.588 272.845 37.9677 273.457 37.3513L272.534 36.4345C271.931 37.0431 271.305 37.6556 270.659 38.2694L271.556 39.2123ZM275.299 35.4383C275.599 35.1171 275.893 34.7972 276.181 34.4799L275.216 33.6072C274.932 33.9194 274.643 34.2341 274.348 34.5514L275.299 35.4383Z" fill="black"/>
</svg>
