<svg width="24" height="24" fill="none" xmlns="http://www.w3.org/2000/svg" class="HeaderBalance_icon__2FeBY"><path fill-rule="evenodd" clip-rule="evenodd" d="M19 3.874c0-.953-.382-1.8-1.086-2.334-.7-.531-1.607-.667-2.488-.423h-.003L4.132 4.279a.973.973 0 00-.028.008c-1.127.35-1.986 1.287-2.093 2.563C2.004 6.9 2 6.95 2 7v11.344C2 20.334 3.608 22 5.607 22h12.785c2 0 3.608-1.666 3.608-3.657v-6.686c0-1.785-1.292-3.309-3-3.605V3.874zM4 18.343C4 19.265 4.748 20 5.607 20h12.785c.86 0 1.608-.735 1.608-1.657V16.25h-2a1.25 1.25 0 010-2.5h2v-2.093c0-.923-.748-1.657-1.608-1.657H4v8.343zM4 7.12c0 .507.41.88.813.88H17V3.874c0-.413-.153-.633-.294-.74-.145-.11-.391-.188-.746-.09h-.001L4.686 6.2c-.435.14-.686.46-.686.92z" fill="#5AB82E"></path></svg>