<svg width="358" height="199" viewBox="0 0 358 199" fill="none" xmlns="http://www.w3.org/2000/svg">
<mask id="mask0_1_224" style="mask-type:alpha" maskUnits="userSpaceOnUse" x="0" y="2" width="358" height="185">
<path d="M0.00390625 2.03027H357.324V186.766H0.00390625V2.03027Z" fill="#F7F8FA"/>
</mask>
<g mask="url(#mask0_1_224)">
<path d="M69.1332 297.814C69.1332 297.814 18.3186 254.71 30.2381 151.248C42.1586 47.7857 140.968 34.7598 218.055 42.4152C295.141 50.0705 335.246 129.795 328.083 199.523C321.07 267.736 263.85 315.195 198.422 319.837C144.46 323.665 121.5 320.609 121.5 320.609" fill="#9A48B1"/>
<path d="M205.352 92.2074C203.396 94.8404 200.843 96.9714 197.903 98.4255C192.73 100.967 186.123 101.644 182.873 106.388C182.067 107.561 181.534 108.921 180.742 110.101C178.35 113.636 173.903 115.212 171.072 118.404C170.184 119.412 169.43 120.732 169.696 122.051C170.123 124.11 172.733 124.926 174.819 124.578C178.613 123.959 181.557 121.046 184.978 119.311C191.313 116.086 199.182 116.958 205.414 113.537C209.9 111.081 212.983 106.691 217.131 103.717C219.354 102.115 221.856 100.949 224.161 99.4618C226.468 97.987 228.641 96.1011 229.739 93.596C230.836 91.0919 230.621 87.8712 228.632 85.9833C226.359 83.8223 222.716 84.078 219.697 84.9865C216.769 85.8696 213.913 86.3629 210.998 87.0572C208.329 87.6966 206.897 90.1175 205.352 92.2074Z" fill="#E6A236"/>
<path d="M217.301 70.5285C215.105 71.0949 212.985 72.3596 211.745 74.4597C211.28 75.2596 210.939 76.1599 210.357 76.8572C209.488 77.8926 208.193 78.2976 206.993 78.7797C204.599 79.7408 202.375 81.0824 200.409 82.7525C199.912 83.1727 199.397 83.6721 199.258 84.3603C198.972 85.7387 200.384 87.0096 201.643 87.0228C202.902 87.036 204.03 86.2655 205.17 85.7184C210.501 83.1362 217.313 84.9612 222.059 81.2503C224.027 79.7115 225.451 77.3363 227.623 76.1853C228.723 75.5966 229.979 75.3489 230.974 74.5724C231.969 73.7969 232.622 72.1698 231.915 70.9863C231.425 70.1692 230.489 69.8769 229.636 69.7398C226.046 69.144 220.797 69.6312 217.301 70.5285Z" fill="#B9D4A3"/>
<path d="M227.834 67.3889L227.859 137.645H237.076L231.452 66.2998L227.834 67.3889Z" fill="#AA693D"/>
<path d="M246.525 69.1928C249.293 71.0726 251.67 73.7493 252.502 76.9466C252.811 78.1596 252.908 79.4263 253.416 80.5804C254.178 82.2979 255.781 83.4915 257.222 84.7278C260.063 87.1507 262.543 89.9679 264.586 93.0937C265.092 93.8702 265.591 94.7503 265.499 95.6516C265.325 97.4604 262.875 98.2115 261.15 97.5385C259.426 96.8656 258.202 95.3258 256.87 94.0448C250.646 88.0318 240.596 86.493 235.633 79.4456C233.578 76.5233 232.605 72.8966 230.111 70.3266C228.849 69.0202 227.236 68.0346 226.196 66.5608C225.155 65.085 224.928 62.7758 226.38 61.7445C227.385 61.034 228.782 61.1954 230.003 61.4968C235.151 62.7474 242.118 66.2045 246.525 69.1928Z" fill="#E6A236"/>
<path d="M205.125 137.053L212.58 186.686H245.197L252.651 137.592L205.125 137.053Z" fill="#A05BBA"/>
<path d="M64.6911 83.3696C64.6911 83.3696 40.4958 90.8199 48.1407 115.207C54.6729 136.031 76.7496 123.278 76.7496 123.278L82.7794 130.7C83.3479 131.399 84.3945 130.853 84.2635 129.934L82.8292 120.116C82.8292 120.116 91.1724 110.636 90.9044 102.887C90.5552 92.8611 81.3339 79.2273 64.6911 83.3696Z" fill="#FFB031"/>
<path d="M55.6434 101.214C55.7083 101.723 56.2149 102.066 56.7275 101.95L77.7739 97.165C77.8982 97.1389 78.0152 97.0857 78.1165 97.009C78.2178 96.9323 78.3008 96.8342 78.3597 96.7216C78.4185 96.609 78.4516 96.4848 78.4567 96.3579C78.4618 96.2309 78.4387 96.1045 78.389 95.9875L78.2165 95.5876C78.1308 95.3952 77.98 95.2391 77.7906 95.1468C77.6013 95.0545 77.3854 95.032 77.181 95.0831L56.3072 100.267C56.0995 100.316 55.917 100.439 55.7945 100.614C55.6721 100.788 55.6183 101.002 55.6434 101.214ZM56.3377 106.489L56.3549 106.623C56.4189 107.191 56.9336 107.591 57.4695 107.489L79.0671 103.323C79.6153 103.22 79.9574 102.645 79.8122 102.082L79.6163 101.326C79.4833 100.816 78.992 100.501 78.5007 100.611L57.0828 105.394C56.6037 105.502 56.2798 105.974 56.3377 106.489ZM57.033 112.593C57.0665 112.883 57.2939 113.077 57.5304 113.03L79.4843 108.694C79.7107 108.647 79.8701 108.405 79.8406 108.136L79.7046 106.579C79.6772 106.284 79.4447 106.076 79.195 106.13L58.1375 110.795C57.4239 110.949 56.9366 111.741 57.033 112.593ZM106.297 50.8298L121.048 70.4687C130.275 76.0006 140.523 83.4255 138.867 88.2408C135.938 96.762 131.711 137.148 119.557 134.903C83.3824 128.235 106.297 50.8298 106.297 50.8298Z" fill="#543732"/>
<path d="M154.213 101.321C154.213 101.321 175.678 111.748 181.203 121.946C189.006 136.363 192.39 188.571 175.484 190.681C158.578 192.791 108.37 180.375 108.37 180.375L110.704 158.694L158.039 164.252" fill="#99C6C4"/>
<path d="M129.719 100.306C129.719 100.306 104.484 109.031 102.66 123.841C100.837 138.65 98.7796 174.259 98.5309 187.312C113.31 189.435 119.511 189.289 141.611 190.844C146.612 191.196 174.65 192.698 177.662 190.506C187.966 183.013 164.084 161.197 164.291 160.589C164.554 159.79 154.471 101.632 154.471 101.632" fill="#99C6C4"/>
<path d="M159.211 107.704L151.587 169.514L121.6 163.956L120.344 167.418L115.247 163.726L123.34 102.768L129.446 100.008L159.211 107.704Z" fill="white"/>
<path d="M152.856 68.8059C152.856 68.8059 152.11 97.7901 127.689 93.598C101.156 89.0405 103.172 64.8828 110.907 52.9409C116.571 44.2168 129.83 40.0511 136.846 42.8241C143.877 45.6104 154.997 53.5358 152.856 68.8059Z" fill="#FBBB9D"/>
<path d="M147.58 83.3848C147.773 83.9806 154.21 101.334 154.21 101.334C154.21 101.334 145.425 116.604 139.776 115.413C134.113 114.223 130.991 105.107 130.991 105.107L128.064 92.4206L147.58 83.3848Z" fill="#FBBB9D"/>
<path d="M128.369 93.6919C128.369 93.6919 138.411 95.0857 144.654 87.4429L149.239 88.2407L150.606 91.7175C150.606 91.7043 138.714 100.144 128.369 93.6919Z" fill="#EFA689"/>
<path d="M127.016 69.076C126.714 69.0736 126.414 69.1287 126.132 69.2384C126.226 68.6758 126.516 68.1646 126.951 67.7956C127.386 67.4265 127.938 67.2235 128.508 67.2224C129.834 67.2366 130.898 68.3319 130.884 69.6851C130.879 70.169 130.731 70.6406 130.458 71.0403C130.185 71.44 129.8 71.7498 129.351 71.9305C129.378 71.7969 129.392 71.6609 129.392 71.5245C129.406 70.1845 128.342 69.0892 127.016 69.076Z" fill="white"/>
<path d="M126.083 69.6443C126.083 69.5083 126.097 69.3733 126.125 69.2383C126.401 69.1297 126.691 69.0627 127.009 69.0759C128.335 69.0891 129.399 70.1854 129.384 71.5375C129.384 71.6725 129.371 71.8086 129.344 71.9436C129.064 72.0596 128.762 72.1149 128.46 72.106C127.147 72.0928 126.083 70.9965 126.083 69.6443Z" fill="#543732"/>
<path d="M112.581 70.0638C112.263 70.0638 111.974 70.1186 111.698 70.2262C111.792 69.6638 112.082 69.1529 112.517 68.784C112.952 68.4152 113.503 68.2123 114.073 68.2112C115.399 68.2244 116.463 69.3207 116.449 70.6728C116.444 71.1568 116.296 71.6286 116.023 72.0283C115.75 72.4281 115.365 72.7378 114.916 72.9183C114.98 72.573 114.969 72.2179 114.882 71.8776C114.795 71.5374 114.634 71.2202 114.412 70.9484C114.19 70.6765 113.911 70.4565 113.594 70.3037C113.278 70.1509 112.932 70.069 112.581 70.0638Z" fill="white"/>
<path d="M111.653 70.6463C111.653 70.5103 111.667 70.3752 111.694 70.2402C111.971 70.1316 112.26 70.0646 112.578 70.0778C113.905 70.091 114.968 71.1873 114.954 72.5395C114.954 72.6745 114.94 72.8105 114.913 72.9455C114.633 73.0616 114.332 73.117 114.029 73.1079C113.388 73.093 112.78 72.8261 112.335 72.3653C111.89 71.9044 111.645 71.2867 111.653 70.6463Z" fill="#543732"/>
<path d="M118.411 74.4052C117.845 75.2579 117.9 76.4354 118.369 77.3541C118.839 78.2738 119.654 78.9509 120.524 79.4777C121.173 79.8706 121.906 80.1954 122.651 80.168C122.417 79.6675 121.919 79.3559 121.56 78.9366C120.953 78.22 120.746 77.2059 120.842 76.2588C120.939 75.3117 121.271 74.4052 121.657 73.5403C122.32 72.0247 121.837 70.2666 121.353 69.9143C121.146 70.9832 121.146 71.3761 120.51 72.4582C120.027 73.3109 118.95 73.5941 118.411 74.4052Z" fill="#EFA689"/>
<path d="M128.372 83.6833C128.372 83.6833 125.154 86.0638 120.472 85.2659" stroke="#EFA689" stroke-width="2.03023" stroke-miterlimit="10" stroke-linecap="round"/>
<path d="M107.337 164.51C106.702 163.428 101.412 149.403 99.4638 144.209C99.2595 143.651 98.886 143.172 98.3957 142.837C97.9054 142.502 97.3227 142.329 96.7291 142.342L84.1315 142.613C82.1713 142.654 80.8314 144.628 81.4943 146.508L86.2592 160.02L94.5882 166.106L108.111 166.634L107.337 164.51Z" fill="#50555B"/>
<path d="M104.895 164.51C104.259 163.428 98.9695 149.403 97.0215 144.209C96.8171 143.651 96.4437 143.172 95.9534 142.837C95.463 142.502 94.8803 142.329 94.2867 142.342L81.6892 142.613C79.729 142.654 78.389 144.628 79.0519 146.508L83.8169 160.02L92.1459 166.106L105.668 166.634L104.895 164.51Z" fill="#43464C"/>
<path d="M112.627 176.073L110.61 187.706L117.018 188.557L118.262 177.21L112.627 176.073Z" fill="white"/>
<path d="M83.1469 165.051C87.3038 171.137 98.7543 174.045 101.876 174.302C104.997 174.573 118.258 177.21 118.258 177.21L120.343 167.431L113.078 161.007C111.629 159.728 109.945 158.745 108.119 158.113L104.086 156.72L107.332 164.524C107.332 164.524 98.2294 165.051 88.6031 161.088C78.9748 157.126 86.779 163.725 86.779 163.725C86.779 163.725 82.0972 159.763 81.0608 160.818C80.0254 161.873 83.1469 165.051 83.1469 165.051Z" fill="#EFA689"/>
<path d="M96.4723 173.018C96.3068 172.964 85.4776 170.515 83.2809 168.229C81.0984 165.944 83.4473 165.565 84.7589 166.065C86.0846 166.566 96.4723 173.018 96.4723 173.018Z" fill="#EFA689"/>
<path d="M156.345 38.7925C156.151 38.8068 155.971 38.8068 155.778 38.82C155.965 38.7836 156.156 38.7747 156.345 38.7936V38.7925Z" fill="#EBEAF4"/>
<path d="M165.941 138.8L164.379 172.301L151.59 169.514L165.941 138.8Z" fill="#8EADAA"/>
<path d="M140.372 71.1862C138.618 67.0195 131.588 66.0329 124.957 62.462C120.911 60.2848 117.955 55.2259 117.734 52.4132C116.201 54.7529 114.805 56.5109 112.278 60.5822C108.825 66.1273 105.51 69.6038 105.51 69.6038C105.51 69.6038 96.4073 42.6344 125.994 38.9955C137.25 37.6161 153.369 42.6334 160.4 70.9152C160.4 70.9152 166.823 97.8714 169.834 101.55C172.845 105.228 196.838 116.266 184.558 130.67C179.35 136.769 164.558 139.38 154.475 114.872C145.801 93.8539 140.372 71.1852 140.372 71.1852V71.1862Z" fill="#543732"/>
<path d="M149.897 50.9932C150.422 50.1944 154.151 28.0941 145.822 26.4985C137.493 24.9161 131.512 41.3078 131.512 41.3078L149.897 50.9932Z" fill="#543732"/>
<path d="M150.955 44.7853C150.568 44.6899 134.035 35.7505 134.035 35.7505L132.335 39.0229L150.499 49.3428L150.955 44.7853Z" fill="#ACDDDD"/>
<path d="M194.823 177.486C194.244 177.486 176.224 174.761 172.303 183.247C171.488 185.006 172.817 187.027 174.748 187.027H202.858" fill="#968791"/>
<path d="M216.49 155.876C215.93 153.762 214.982 151.77 213.695 150.001C214.257 147.44 215.578 140.101 212.578 139.192C209.513 138.268 207.231 142.776 206.58 144.224C202.625 142.459 198.157 142.22 194.036 143.553C192.7 141.532 189.692 137.547 187.093 138.096C184.598 138.619 184.753 146.057 185.038 150.181C182.984 153.078 181.941 156.612 181.77 160.434C181.395 168.763 180.571 192.96 201.804 193.459C225.284 194.007 233.541 194.449 244.568 193.074C280.992 188.533 296.418 185.751 296.418 185.751C296.418 185.751 279.231 126.501 216.49 155.876Z" fill="#D9DBE0"/>
<path d="M192.228 150.38C192.227 150.933 192.033 151.468 191.679 151.892C191.324 152.316 190.833 152.603 190.289 152.703C190.715 153.085 191.263 153.322 191.877 153.322C192.505 153.322 193.107 153.074 193.552 152.631C193.996 152.188 194.247 151.586 194.249 150.959C194.248 150.611 194.171 150.268 194.022 149.953C193.874 149.639 193.658 149.361 193.39 149.139C193.123 148.917 192.809 148.757 192.472 148.67C192.136 148.583 191.784 148.571 191.442 148.635C191.917 149.067 192.228 149.687 192.228 150.38Z" fill="white"/>
<path d="M192.228 150.384C192.228 149.692 191.926 149.073 191.442 148.64C190.899 148.74 190.407 149.027 190.053 149.451C189.699 149.875 189.504 150.41 189.503 150.963C189.503 151.656 189.806 152.275 190.289 152.708C190.832 152.607 191.323 152.319 191.677 151.895C192.031 151.471 192.226 150.937 192.228 150.384Z" fill="#2C2E33"/>
<path d="M206.857 150.308C206.999 150.842 206.95 151.409 206.718 151.911C206.485 152.412 206.084 152.817 205.585 153.054C206.106 153.325 206.71 153.392 207.278 153.242C207.885 153.08 208.403 152.684 208.718 152.141C209.033 151.597 209.12 150.952 208.959 150.344C208.868 150.009 208.705 149.697 208.48 149.432C208.255 149.167 207.975 148.954 207.659 148.809C207.343 148.665 206.998 148.591 206.651 148.594C206.303 148.597 205.96 148.677 205.647 148.827C206.217 149.121 206.677 149.639 206.857 150.308Z" fill="white"/>
<path d="M206.858 150.313C206.772 149.995 206.62 149.698 206.412 149.443C206.203 149.187 205.943 148.979 205.648 148.832C205.149 149.069 204.748 149.473 204.516 149.975C204.283 150.476 204.234 151.043 204.376 151.577C204.555 152.247 205.007 152.767 205.586 153.059C206.085 152.822 206.486 152.417 206.718 151.916C206.951 151.414 207 150.847 206.858 150.313ZM196.46 154.674C196.3 154.675 196.145 154.619 196.024 154.515C195.903 154.412 195.823 154.268 195.799 154.11C195.768 153.933 195.807 153.751 195.91 153.604C196.012 153.456 196.169 153.356 196.345 153.324C198.538 152.939 198.636 150.713 198.636 150.615C198.641 150.439 198.714 150.271 198.841 150.149C198.967 150.027 199.137 149.959 199.313 149.961C199.679 149.961 199.972 150.255 199.98 150.624C199.989 150.876 200.095 153.127 202.222 153.16C202.311 153.162 202.398 153.18 202.479 153.216C202.561 153.251 202.634 153.302 202.696 153.366C202.757 153.43 202.806 153.505 202.838 153.588C202.87 153.671 202.885 153.759 202.883 153.848C202.878 154.025 202.805 154.193 202.679 154.317C202.552 154.441 202.383 154.51 202.206 154.511H202.198C200.714 154.485 199.802 153.757 199.272 152.873C198.75 153.683 197.903 154.412 196.574 154.642C196.541 154.674 196.501 154.674 196.46 154.674Z" fill="#2C2E33"/>
<path d="M202.355 193.442H174.244C172.313 193.442 170.993 191.421 171.8 189.662C175.719 181.177 193.741 183.819 194.319 183.901C197.408 184.327 200.929 186.741 202.355 193.442Z" fill="#C9BBB9"/>
<path d="M186.476 138.382L188.71 145.959L185.034 150.182C185.034 150.19 183.779 140.78 186.476 138.382ZM213.594 139.855L211.051 146.508L213.685 150.002C213.693 150.002 215.681 143.488 213.594 139.855Z" fill="#9B9B9B"/>
</g>
<path d="M284.634 164.289C284.634 164.289 299.302 169.79 297.979 182.117C296.648 194.449 252.163 205.532 246.49 192.264C242.818 183.689 280.361 175.281 280.361 175.281L284.634 164.289ZM209.369 186.232C209.126 185.116 202.919 172.227 191.191 176.62C183.637 179.452 183.35 195.999 189.975 196.869C196.624 197.716 197.472 186.834 197.472 186.834H209.403" fill="#9B9B9B"/>
<path d="M187.848 186.008C187.848 186.008 187.119 175.572 179.211 176.285C171.304 177.021 167.328 193.457 174.175 195.441C181.022 197.449 185.594 186.633 185.594 186.633" fill="#9B9B9B"/>
<path d="M177.601 195.419C176.872 195.62 176.166 195.643 175.415 195.71C175.061 192.453 177.535 188.885 177.646 188.729C177.728 188.607 177.835 188.504 177.958 188.425C178.082 188.347 178.221 188.294 178.366 188.271C178.511 188.248 178.659 188.255 178.801 188.292C178.943 188.329 179.076 188.394 179.192 188.484C179.678 188.841 179.81 189.532 179.435 190.044C178.839 190.892 177.402 193.435 177.601 195.419ZM174.001 195.13C174.023 195.263 174.001 195.397 173.978 195.509C173.957 195.486 173.935 195.464 173.912 195.442C173.514 195.152 173.095 194.951 172.654 194.728C172.565 194.661 172.499 194.594 172.411 194.527C172.166 194.314 171.937 194.083 171.726 193.836C171.792 190.737 173.272 188.283 173.36 188.172C173.518 187.925 173.765 187.75 174.05 187.683C174.335 187.616 174.634 187.663 174.885 187.814C175.392 188.149 175.547 188.841 175.238 189.353C175.216 189.398 173.559 192.119 174.001 195.13ZM192.792 195.997C192.082 196.254 191.378 196.33 190.635 196.455C190.031 193.236 192.222 189.487 192.319 189.323C192.633 188.785 193.307 188.62 193.842 188.959C194.355 189.277 194.54 189.956 194.205 190.497C193.677 191.387 192.441 194.034 192.792 195.997ZM189.183 195.986C189.215 196.117 189.203 196.253 189.19 196.366L189.119 196.304C188.699 196.046 188.266 195.877 187.808 195.689C187.715 195.63 187.644 195.568 187.55 195.508C187.29 195.314 187.044 195.101 186.814 194.871C186.641 191.776 187.927 189.216 188.006 189.097C188.144 188.84 188.377 188.646 188.656 188.557C188.935 188.469 189.237 188.493 189.498 188.624C190.03 188.919 190.238 189.596 189.969 190.131C189.951 190.177 188.51 193.018 189.183 195.986Z" fill="#2C2E33"/>
</svg>
