<svg width="168" height="28" viewBox="0 0 168 28" fill="none" xmlns="http://www.w3.org/2000/svg">
<path d="M42.4226 14.746L40.387 21.0239H37.77L44.4306 1.06015H47.4824L54.1657 21.0239H51.4591L49.3682 14.746H42.4226ZM48.847 12.7299L46.9287 6.98461C46.4922 5.68019 46.2024 4.49465 45.9109 3.3433H45.8555C45.5634 4.55737 45.2331 5.76196 44.8654 6.9553L42.947 12.7299H48.847ZM56.1166 11.3685C56.1166 9.53483 56.0613 8.05453 55.9994 6.69311H58.2972L58.4161 9.15214H58.4714C59.5169 7.40476 61.178 6.36741 63.4709 6.36741C66.8712 6.36741 69.4312 9.30033 69.4312 13.6533C69.4312 18.8075 66.3501 21.3528 63.0345 21.3528C61.1731 21.3528 59.5462 20.5223 58.7027 19.1039H58.6457V26.8881H56.1166V11.3685ZM58.6457 15.1906C58.6457 15.5782 58.7011 15.9316 58.7629 16.2556C59.2271 18.0616 60.7692 19.3091 62.5997 19.3091C65.3046 19.3091 66.8712 17.0585 66.8712 13.7722C66.8712 10.9011 65.3893 8.44049 62.6827 8.44049C60.9386 8.44049 59.3117 9.7156 58.8134 11.6698C58.7255 11.9955 58.6408 12.3814 58.6408 12.7348V15.1906H58.6457ZM71.3821 11.3685C71.3821 9.53483 71.3268 8.05453 71.2665 6.69311H73.5643L73.6816 9.15214H73.7386C74.7841 7.40476 76.4435 6.36741 78.738 6.36741C82.1383 6.36741 84.6983 9.30033 84.6983 13.6533C84.6983 18.8075 81.6172 21.3528 78.3016 21.3528C76.4386 21.3528 74.8118 20.5223 73.9682 19.1039H73.9112V26.8881H71.3838L71.3821 11.3685ZM73.9112 15.1906C73.9112 15.5782 73.9682 15.9316 74.0284 16.2556C74.4926 18.0616 76.0364 19.3091 77.8652 19.3091C80.5717 19.3091 82.1384 17.0585 82.1384 13.7722C82.1384 10.9011 80.6564 8.44049 77.9499 8.44049C76.2041 8.44049 74.5789 9.7156 74.0806 11.6698C73.991 11.9955 73.9063 12.3814 73.9063 12.7348V15.1906H73.9112ZM102.174 20.1347C101.039 20.55 98.8027 21.2291 96.1564 21.2291C93.1926 21.2291 90.7498 20.4588 88.8298 18.5909C87.1427 16.9347 86.0956 14.2689 86.0956 11.1584C86.1233 5.2063 90.1391 0.850076 96.7101 0.850076C98.9802 0.850076 100.752 1.35165 101.596 1.76692L100.987 3.8693C99.941 3.39704 98.6334 3.00946 96.6548 3.00946C91.8833 3.00946 88.7728 6.02869 88.7728 11.0347C88.7728 16.0993 91.7709 19.0892 96.3339 19.0892C97.9901 19.0892 99.1252 18.8498 99.7065 18.5534V12.6159H95.7249V10.5429H102.179V20.1347H102.174ZM113.223 21.0239L113.021 19.2162H112.933C112.15 20.3448 110.634 21.3479 108.632 21.3479C105.781 21.3479 104.327 19.3042 104.327 17.2295C104.327 13.7673 107.351 11.8717 112.787 11.8994V11.603C112.787 10.4191 112.467 8.28741 109.588 8.28741C108.281 8.28741 106.916 8.70267 105.924 9.35244L105.344 7.63275C106.507 6.8641 108.194 6.35764 109.969 6.35764C114.273 6.35764 115.321 9.34919 115.321 12.2235V17.5845C115.321 18.8254 115.376 20.0435 115.555 21.019H113.223V21.0239ZM112.848 13.7103C110.057 13.6517 106.888 14.1532 106.888 16.9396C106.888 18.6251 107.994 19.4279 109.302 19.4279C110.05 19.4444 110.785 19.2203 111.397 18.7885C112.009 18.3568 112.466 17.7401 112.702 17.0292C112.794 16.7616 112.843 16.4814 112.848 16.1986V13.7103ZM117.908 0H120.47V21.0239H117.908V0ZM124.771 0H127.331V21.0239H124.771V0ZM132.302 14.3308C132.359 17.8564 134.573 19.3091 137.129 19.3091C138.963 19.3091 140.064 18.9834 141.026 18.5681L141.463 20.436C140.562 20.8512 139.018 21.3235 136.781 21.3235C132.447 21.3235 129.86 18.4199 129.86 14.0962C129.86 9.77422 132.359 6.36741 136.458 6.36741C141.054 6.36741 142.274 10.4859 142.274 13.1224C142.274 13.6566 142.217 14.0669 142.184 14.3356H132.302V14.3308ZM139.802 12.4678C139.829 10.8099 139.131 8.23041 136.256 8.23041C133.667 8.23041 132.532 10.6569 132.33 12.4678H139.802ZM144.689 11.1633C144.689 9.47784 144.661 8.02522 144.572 6.69311H146.809L146.899 9.50552H147.016C147.653 7.58064 149.196 6.36741 150.913 6.36741C151.204 6.36741 151.405 6.39672 151.639 6.45861V8.91763C151.353 8.85501 151.061 8.82497 150.768 8.82807C148.967 8.82807 147.687 10.2188 147.335 12.1763C147.263 12.5768 147.224 12.9826 147.218 13.3895V21.0336H144.689V11.165V11.1633ZM156.873 6.69311L159.956 15.1613C160.273 16.1074 160.625 17.2344 160.855 18.0958H160.912C161.174 17.2344 161.466 16.1416 161.812 15.1043L164.607 6.69311H167.313L163.477 16.9103C161.643 21.8267 160.396 24.3427 158.652 25.8817C157.399 27.0086 156.152 27.4532 155.509 27.5672L154.872 25.3752C155.509 25.17 156.354 24.7547 157.108 24.1001C157.806 23.5366 158.679 22.5286 159.261 21.1949C159.378 20.9278 159.463 20.7226 159.463 20.5744C159.463 20.4262 159.407 20.221 159.29 19.8904L154.079 6.69311H156.873Z" fill="#6D72F6"/>
<path fill-rule="evenodd" clip-rule="evenodd" d="M20.432 0H8.46802C2.83202 0 0.77002 2.1 0.77002 7.841V20.026C0.77002 25.766 2.83202 27.867 8.46802 27.867H20.428C26.065 27.867 28.13 25.767 28.13 20.027V7.84C28.13 2.1 26.068 0 20.432 0Z" fill="#6D72F6"/>
<path d="M5.364 17.278H6.089V20.921H5.363V19.442H3.726V20.921H3V17.278H3.726V18.748H5.365V17.278H5.364ZM9.454 19.363C9.454 19.956 9.165 20.273 8.641 20.273C8.114 20.273 7.823 19.947 7.823 19.34V17.28H7.097V19.363C7.097 20.387 7.656 20.977 8.632 20.977C9.617 20.977 10.182 20.378 10.182 19.334V17.278H9.456V19.363H9.454ZM17.84 19.783L17.027 17.278H16.434L15.622 19.783L14.832 17.278H14.062L15.308 20.918H15.91L16.722 18.528L17.534 20.918H18.139L19.383 17.278H18.632L17.84 19.783ZM20.685 19.352H22.005V18.689H20.685V17.944H22.6V17.281H19.968V20.918H22.669V20.255H20.686V19.352H20.685ZM23.536 20.915H24.253V17.278H23.536V20.915ZM11.613 20.161L11.288 20.921H10.548L12.123 17.281H12.763L14.332 20.921H13.572L13.249 20.161H11.613ZM11.883 19.504H12.981L12.431 18.202L11.883 19.504ZM13.626 12.637C11.115 12.637 9.073 10.557 9.073 8H9.715C9.715 10.197 11.469 11.983 13.626 11.983C15.783 11.983 17.537 10.197 17.537 8H18.179C18.179 10.558 16.138 12.637 13.626 12.637Z" fill="white"/>
</svg>
