<svg width="22" height="18" viewBox="0 0 22 18" fill="none" xmlns="http://www.w3.org/2000/svg">
<mask id="path-1-outside-1_30_5617" maskUnits="userSpaceOnUse" x="0" y="0" width="22" height="18" fill="black">
<rect fill="white" width="22" height="18"/>
<path fill-rule="evenodd" clip-rule="evenodd" d="M7.187 3.868C7.321 3.437 7.511 2.926 7.745 2.533L7.744 2.532C7.861 2.336 7.976 2.192 8.081 2.102C8.184 2.014 8.249 2 8.285 2H13.572C13.726 2 13.952 2.128 14.222 2.548C14.473 2.938 14.671 3.445 14.81 3.875C15.013 4.506 15.595 5 16.308 5H19.501C19.6334 5.00026 19.7604 5.05306 19.8539 5.1468C19.9475 5.24054 20 5.36756 20 5.5V15.5C20 15.6326 19.9473 15.7598 19.8536 15.8536C19.7598 15.9473 19.6326 16 19.5 16H2.5C2.36739 16 2.24021 15.9473 2.14645 15.8536C2.05268 15.7598 2 15.6326 2 15.5V5.5C2 5.36739 2.05268 5.24021 2.14645 5.14645C2.24021 5.05268 2.36739 5 2.5 5H5.692C6.404 5 6.99 4.507 7.187 3.868ZM8.286 1C7.96903 1.00638 7.66532 1.12836 7.432 1.343C7.21482 1.53864 7.03048 1.7669 6.886 2.021C6.592 2.516 6.374 3.115 6.232 3.572C6.151 3.834 5.922 4 5.692 4H2.5C2.10218 4 1.72064 4.15804 1.43934 4.43934C1.15804 4.72064 1 5.10218 1 5.5V15.5C1 15.8978 1.15804 16.2794 1.43934 16.5607C1.72064 16.842 2.10218 17 2.5 17H19.5C19.8978 17 20.2794 16.842 20.5607 16.5607C20.842 16.2794 21 15.8978 21 15.5V5.5C21 5.10218 20.842 4.72064 20.5607 4.43934C20.2794 4.15804 19.8978 4 19.5 4H16.308C16.077 4 15.847 3.835 15.761 3.569C15.613 3.109 15.383 2.506 15.063 2.007C14.761 1.537 14.274 1 13.571 1H8.286ZM13.8284 12.8284C13.0783 13.5786 12.0609 14 11 14C9.93913 14 8.92172 13.5786 8.17157 12.8284C7.42143 12.0783 7 11.0609 7 10C7 8.93913 7.42143 7.92172 8.17157 7.17157C8.92172 6.42143 9.93913 6 11 6C12.0609 6 13.0783 6.42143 13.8284 7.17157C14.5786 7.92172 15 8.93913 15 10C15 11.0609 14.5786 12.0783 13.8284 12.8284ZM14.5355 13.5355C13.5979 14.4732 12.3261 15 11 15C9.67392 15 8.40215 14.4732 7.46447 13.5355C6.52678 12.5979 6 11.3261 6 10C6 8.67392 6.52678 7.40215 7.46447 6.46447C8.40215 5.52678 9.67392 5 11 5C12.3261 5 13.5979 5.52678 14.5355 6.46447C15.4732 7.40215 16 8.67392 16 10C16 11.3261 15.4732 12.5979 14.5355 13.5355Z"/>
</mask>
<path fill-rule="evenodd" clip-rule="evenodd" d="M7.187 3.868C7.321 3.437 7.511 2.926 7.745 2.533L7.744 2.532C7.861 2.336 7.976 2.192 8.081 2.102C8.184 2.014 8.249 2 8.285 2H13.572C13.726 2 13.952 2.128 14.222 2.548C14.473 2.938 14.671 3.445 14.81 3.875C15.013 4.506 15.595 5 16.308 5H19.501C19.6334 5.00026 19.7604 5.05306 19.8539 5.1468C19.9475 5.24054 20 5.36756 20 5.5V15.5C20 15.6326 19.9473 15.7598 19.8536 15.8536C19.7598 15.9473 19.6326 16 19.5 16H2.5C2.36739 16 2.24021 15.9473 2.14645 15.8536C2.05268 15.7598 2 15.6326 2 15.5V5.5C2 5.36739 2.05268 5.24021 2.14645 5.14645C2.24021 5.05268 2.36739 5 2.5 5H5.692C6.404 5 6.99 4.507 7.187 3.868ZM8.286 1C7.96903 1.00638 7.66532 1.12836 7.432 1.343C7.21482 1.53864 7.03048 1.7669 6.886 2.021C6.592 2.516 6.374 3.115 6.232 3.572C6.151 3.834 5.922 4 5.692 4H2.5C2.10218 4 1.72064 4.15804 1.43934 4.43934C1.15804 4.72064 1 5.10218 1 5.5V15.5C1 15.8978 1.15804 16.2794 1.43934 16.5607C1.72064 16.842 2.10218 17 2.5 17H19.5C19.8978 17 20.2794 16.842 20.5607 16.5607C20.842 16.2794 21 15.8978 21 15.5V5.5C21 5.10218 20.842 4.72064 20.5607 4.43934C20.2794 4.15804 19.8978 4 19.5 4H16.308C16.077 4 15.847 3.835 15.761 3.569C15.613 3.109 15.383 2.506 15.063 2.007C14.761 1.537 14.274 1 13.571 1H8.286ZM13.8284 12.8284C13.0783 13.5786 12.0609 14 11 14C9.93913 14 8.92172 13.5786 8.17157 12.8284C7.42143 12.0783 7 11.0609 7 10C7 8.93913 7.42143 7.92172 8.17157 7.17157C8.92172 6.42143 9.93913 6 11 6C12.0609 6 13.0783 6.42143 13.8284 7.17157C14.5786 7.92172 15 8.93913 15 10C15 11.0609 14.5786 12.0783 13.8284 12.8284ZM14.5355 13.5355C13.5979 14.4732 12.3261 15 11 15C9.67392 15 8.40215 14.4732 7.46447 13.5355C6.52678 12.5979 6 11.3261 6 10C6 8.67392 6.52678 7.40215 7.46447 6.46447C8.40215 5.52678 9.67392 5 11 5C12.3261 5 13.5979 5.52678 14.5355 6.46447C15.4732 7.40215 16 8.67392 16 10C16 11.3261 15.4732 12.5979 14.5355 13.5355Z" fill="white"/>
<path d="M7.745 2.533L8.00277 2.68648L8.12218 2.48593L7.95714 2.32088L7.745 2.533ZM7.187 3.868L6.90053 3.77893L6.90031 3.77962L7.187 3.868ZM7.744 2.532L7.4864 2.37823L7.36663 2.57888L7.53186 2.74412L7.744 2.532ZM8.081 2.102L7.88613 1.87391L7.88576 1.87422L8.081 2.102ZM14.222 2.548L13.9696 2.71023L13.9697 2.71036L14.222 2.548ZM14.81 3.875L15.0956 3.78312L15.0955 3.78272L14.81 3.875ZM19.501 5L19.5016 4.7H19.501V5ZM7.432 1.343L7.6328 1.56591L7.63511 1.56379L7.432 1.343ZM8.286 1V0.699939L8.27997 0.700061L8.286 1ZM6.886 2.021L7.14398 2.17423L7.14679 2.16928L6.886 2.021ZM6.232 3.572L5.94551 3.48298L5.94538 3.48339L6.232 3.572ZM1.43934 4.43934L1.65147 4.65147L1.43934 4.43934ZM1.43934 16.5607L1.65147 16.3485L1.43934 16.5607ZM15.761 3.569L15.4754 3.66088L15.4755 3.66129L15.761 3.569ZM15.063 2.007L15.3155 1.84505L15.3154 1.84483L15.063 2.007ZM7.48723 2.37952C7.23513 2.80293 7.03684 3.34049 6.90053 3.77893L7.47347 3.95707C7.60516 3.53351 7.78687 3.04907 8.00277 2.68648L7.48723 2.37952ZM7.53186 2.74412L7.53286 2.74512L7.95714 2.32088L7.95614 2.31988L7.53186 2.74412ZM7.88576 1.87422C7.74695 1.99321 7.61247 2.16704 7.4864 2.37823L8.0016 2.68577C8.10953 2.50496 8.20505 2.39079 8.27624 2.32978L7.88576 1.87422ZM8.285 1.7C8.15636 1.7 8.02481 1.75542 7.88613 1.87391L8.27587 2.33009C8.31022 2.30074 8.32701 2.29344 8.32692 2.29348C8.32658 2.29362 8.32225 2.29544 8.31423 2.29713C8.30595 2.29887 8.29602 2.3 8.285 2.3V1.7ZM13.572 1.7H8.285V2.3H13.572V1.7ZM14.4744 2.38577C14.1934 1.94873 13.8892 1.7 13.572 1.7V2.3C13.5628 2.3 13.7106 2.30727 13.9696 2.71023L14.4744 2.38577ZM15.0955 3.78272C14.9538 3.34442 14.7463 2.80832 14.4743 2.38564L13.9697 2.71036C14.1997 3.06768 14.3882 3.54558 14.5245 3.96728L15.0955 3.78272ZM16.308 4.7C15.7406 4.7 15.2636 4.30532 15.0956 3.78312L14.5244 3.96688C14.7624 4.70668 15.4494 5.3 16.308 5.3V4.7ZM19.501 4.7H16.308V5.3H19.501V4.7ZM20.0663 4.93488C19.9166 4.7849 19.7135 4.70042 19.5016 4.7L19.5004 5.3C19.5534 5.30011 19.6041 5.32122 19.6416 5.35872L20.0663 4.93488ZM20.3 5.5C20.3 5.2881 20.2159 5.08486 20.0663 4.93488L19.6416 5.35872C19.679 5.39622 19.7 5.44703 19.7 5.5H20.3ZM20.3 15.5V5.5H19.7V15.5H20.3ZM20.0657 16.0657C20.2157 15.9157 20.3 15.7122 20.3 15.5H19.7C19.7 15.553 19.6789 15.6039 19.6414 15.6414L20.0657 16.0657ZM19.5 16.3C19.7122 16.3 19.9157 16.2157 20.0657 16.0657L19.6414 15.6414C19.6039 15.6789 19.553 15.7 19.5 15.7V16.3ZM2.5 16.3H19.5V15.7H2.5V16.3ZM1.93431 16.0657C2.08434 16.2157 2.28783 16.3 2.5 16.3V15.7C2.44696 15.7 2.39609 15.6789 2.35858 15.6414L1.93431 16.0657ZM1.7 15.5C1.7 15.7122 1.78429 15.9157 1.93431 16.0657L2.35858 15.6414C2.32107 15.6039 2.3 15.553 2.3 15.5H1.7ZM1.7 5.5V15.5H2.3V5.5H1.7ZM1.93431 4.93431C1.78429 5.08434 1.7 5.28783 1.7 5.5H2.3C2.3 5.44696 2.32107 5.39609 2.35858 5.35858L1.93431 4.93431ZM2.5 4.7C2.28783 4.7 2.08434 4.78429 1.93431 4.93431L2.35858 5.35858C2.39609 5.32107 2.44696 5.3 2.5 5.3V4.7ZM5.692 4.7H2.5V5.3H5.692V4.7ZM6.90031 3.77962C6.73806 4.30593 6.25914 4.7 5.692 4.7V5.3C6.54886 5.3 7.24194 4.70807 7.47368 3.95638L6.90031 3.77962ZM7.63511 1.56379C7.81459 1.39868 8.04821 1.30484 8.29203 1.29994L8.27997 0.700061C7.88985 0.707908 7.51605 0.858041 7.22889 1.12221L7.63511 1.56379ZM7.14679 2.16928C7.27518 1.94348 7.43916 1.74033 7.63279 1.56589L7.23121 1.12011C6.99049 1.33696 6.78577 1.59032 6.62521 1.87272L7.14679 2.16928ZM6.51849 3.66102C6.65806 3.21184 6.86781 2.6391 7.14394 2.1742L6.62807 1.8678C6.31619 2.3929 6.08994 3.01816 5.94551 3.48298L6.51849 3.66102ZM5.692 4.3C6.06443 4.3 6.40207 4.03758 6.51862 3.66061L5.94538 3.48339C5.89993 3.63042 5.77957 3.7 5.692 3.7V4.3ZM2.5 4.3H5.692V3.7H2.5V4.3ZM1.65147 4.65147C1.87652 4.42643 2.18174 4.3 2.5 4.3V3.7C2.02261 3.7 1.56477 3.88964 1.22721 4.22721L1.65147 4.65147ZM1.3 5.5C1.3 5.18174 1.42643 4.87652 1.65147 4.65147L1.22721 4.22721C0.889642 4.56477 0.7 5.02261 0.7 5.5H1.3ZM1.3 15.5V5.5H0.7V15.5H1.3ZM1.65147 16.3485C1.42643 16.1235 1.3 15.8183 1.3 15.5H0.7C0.7 15.9774 0.889642 16.4352 1.22721 16.7728L1.65147 16.3485ZM2.5 16.7C2.18174 16.7 1.87652 16.5736 1.65147 16.3485L1.22721 16.7728C1.56477 17.1104 2.02261 17.3 2.5 17.3V16.7ZM19.5 16.7H2.5V17.3H19.5V16.7ZM20.3485 16.3485C20.1235 16.5736 19.8183 16.7 19.5 16.7V17.3C19.9774 17.3 20.4352 17.1104 20.7728 16.7728L20.3485 16.3485ZM20.7 15.5C20.7 15.8183 20.5736 16.1235 20.3485 16.3485L20.7728 16.7728C21.1104 16.4352 21.3 15.9774 21.3 15.5H20.7ZM20.7 5.5V15.5H21.3V5.5H20.7ZM20.3485 4.65147C20.5736 4.87652 20.7 5.18174 20.7 5.5H21.3C21.3 5.02261 21.1104 4.56477 20.7728 4.22721L20.3485 4.65147ZM19.5 4.3C19.8183 4.3 20.1235 4.42643 20.3485 4.65147L20.7728 4.22721C20.4352 3.88964 19.9774 3.7 19.5 3.7V4.3ZM16.308 4.3H19.5V3.7H16.308V4.3ZM15.4755 3.66129C15.5977 4.039 15.9346 4.3 16.308 4.3V3.7C16.2194 3.7 16.0963 3.631 16.0465 3.47671L15.4755 3.66129ZM14.8105 2.16895C15.1097 2.63563 15.3303 3.20993 15.4754 3.66088L16.0466 3.47712C15.8957 3.00807 15.6563 2.37637 15.3155 1.84505L14.8105 2.16895ZM13.571 1.3C14.1091 1.3 14.5179 1.71369 14.8106 2.16917L15.3154 1.84483C15.0041 1.36031 14.4389 0.7 13.571 0.7V1.3ZM8.286 1.3H13.571V0.7H8.286V1.3ZM11 14.3C12.1404 14.3 13.2342 13.847 14.0406 13.0406L13.6163 12.6163C12.9224 13.3102 11.9813 13.7 11 13.7V14.3ZM7.95944 13.0406C8.76585 13.847 9.85957 14.3 11 14.3V13.7C10.0187 13.7 9.07759 13.3102 8.3837 12.6163L7.95944 13.0406ZM6.7 10C6.7 11.1404 7.15303 12.2342 7.95944 13.0406L8.3837 12.6163C7.68982 11.9224 7.3 10.9813 7.3 10H6.7ZM7.95944 6.95944C7.15303 7.76585 6.7 8.85957 6.7 10H7.3C7.3 9.0187 7.68982 8.07759 8.3837 7.3837L7.95944 6.95944ZM11 5.7C9.85957 5.7 8.76585 6.15303 7.95944 6.95944L8.3837 7.3837C9.07759 6.68982 10.0187 6.3 11 6.3V5.7ZM14.0406 6.95944C13.2342 6.15303 12.1404 5.7 11 5.7V6.3C11.9813 6.3 12.9224 6.68982 13.6163 7.3837L14.0406 6.95944ZM15.3 10C15.3 8.85957 14.847 7.76585 14.0406 6.95944L13.6163 7.3837C14.3102 8.07759 14.7 9.0187 14.7 10H15.3ZM14.0406 13.0406C14.847 12.2342 15.3 11.1404 15.3 10H14.7C14.7 10.9813 14.3102 11.9224 13.6163 12.6163L14.0406 13.0406ZM11 15.3C12.4056 15.3 13.7537 14.7416 14.7477 13.7477L14.3234 13.3234C13.442 14.2048 12.2465 14.7 11 14.7V15.3ZM7.25233 13.7477C8.24628 14.7416 9.59435 15.3 11 15.3V14.7C9.75348 14.7 8.55802 14.2048 7.6766 13.3234L7.25233 13.7477ZM5.7 10C5.7 11.4056 6.25839 12.7537 7.25233 13.7477L7.6766 13.3234C6.79518 12.442 6.3 11.2465 6.3 10H5.7ZM7.25233 6.25233C6.25839 7.24628 5.7 8.59435 5.7 10H6.3C6.3 8.75348 6.79518 7.55802 7.6766 6.6766L7.25233 6.25233ZM11 4.7C9.59435 4.7 8.24628 5.25839 7.25233 6.25233L7.6766 6.6766C8.55802 5.79518 9.75348 5.3 11 5.3V4.7ZM14.7477 6.25233C13.7537 5.25839 12.4056 4.7 11 4.7V5.3C12.2465 5.3 13.442 5.79518 14.3234 6.6766L14.7477 6.25233ZM16.3 10C16.3 8.59435 15.7416 7.24628 14.7477 6.25233L14.3234 6.6766C15.2048 7.55802 15.7 8.75348 15.7 10H16.3ZM14.7477 13.7477C15.7416 12.7537 16.3 11.4056 16.3 10H15.7C15.7 11.2465 15.2048 12.442 14.3234 13.3234L14.7477 13.7477Z" fill="white" mask="url(#path-1-outside-1_30_5617)"/>
</svg>
