<svg width="25" height="24" viewBox="0 0 25 24" fill="none" xmlns="http://www.w3.org/2000/svg">
<g clip-path="url(#clip0_3_3262)">
<path d="M4.61193 9.27301C4.70367 8.82076 4.949 8.41417 5.30633 8.12219C5.66366 7.8302 6.11098 7.6708 6.57243 7.67101H18.8957C19.8467 7.67101 20.6657 8.34076 20.8554 9.27301L22.2272 16.0208C22.2863 16.311 22.2802 16.6108 22.2092 16.8984C22.1383 17.1861 22.0043 17.4543 21.817 17.6838C21.6296 17.9133 21.3936 18.0982 21.126 18.2253C20.8584 18.3524 20.5659 18.4184 20.2697 18.4185H5.19768C4.90144 18.4184 4.60895 18.3524 4.34135 18.2253C4.07375 18.0982 3.83774 17.9133 3.6504 17.6838C3.46305 17.4543 3.32906 17.1861 3.25812 16.8984C3.18717 16.6108 3.18104 16.311 3.24018 16.0208L4.61193 9.27301Z" stroke="#0091E6" stroke-width="1.2" stroke-linecap="round" stroke-linejoin="round"/>
<path fill-rule="evenodd" clip-rule="evenodd" d="M12.7344 14.1623C12.7344 14.1623 8.39111 11.565 8.39111 7.18726C8.39111 4.85476 10.3351 2.96326 12.7336 2.96326C15.1329 2.96326 17.0769 4.85401 17.0769 7.18726C17.0769 11.1788 12.7344 14.1623 12.7344 14.1623Z" fill="white" stroke="#0091E6" stroke-width="1.2" stroke-linecap="round" stroke-linejoin="round"/>
<path d="M12.7358 9.282C12.2282 9.282 11.7413 9.08034 11.3824 8.7214C11.0234 8.36245 10.8218 7.87562 10.8218 7.368C10.8218 6.86037 11.0234 6.37354 11.3824 6.01459C11.7413 5.65565 12.2282 5.45399 12.7358 5.45399C13.2434 5.45399 13.7302 5.65565 14.0892 6.01459C14.4481 6.37354 14.6498 6.86037 14.6498 7.368C14.6498 7.87562 14.4481 8.36245 14.0892 8.7214C13.7302 9.08034 13.2434 9.282 12.7358 9.282Z" fill="white" stroke="#0091E6" stroke-width="1.2" stroke-linecap="round"/>
</g>
<defs>
<clipPath id="clip0_3_3262">
<rect width="24" height="24" fill="white" transform="translate(0.734375)"/>
</clipPath>
</defs>
</svg>
