<svg width="40" height="40" viewBox="0 0 40 40" fill="none" xmlns="http://www.w3.org/2000/svg">
<g clip-path="url(#clip0_46_1070)">
<path d="M32 0H8C3.58172 0 0 3.58172 0 8V32C0 36.4183 3.58172 40 8 40H32C36.4183 40 40 36.4183 40 32V8C40 3.58172 36.4183 0 32 0Z" fill="#4285F4"/>
<path d="M23.0782 16.6045C22.285 15.8613 21.2762 15.4829 20.1526 15.4829C18.1598 15.4829 16.473 16.8015 15.8708 18.5735V18.5747C15.7178 19.0247 15.6308 19.5053 15.6308 19.9997C15.6308 20.494 15.7178 20.9746 15.8708 21.4246C16.4726 23.1973 18.1593 24.5171 20.1526 24.5171C21.1823 24.5171 22.0589 24.2512 22.7442 23.8012C23.5547 23.2694 24.0944 22.4748 24.2718 21.5373H20.1531V18.6362H27.3609C27.4513 19.1271 27.5 19.6385 27.5 20.1703C27.5 22.4543 26.6651 24.377 25.218 25.6827C23.9518 26.8281 22.2189 27.5 20.1526 27.5C17.161 27.5 14.5728 25.8194 13.3135 23.3683V23.3669C12.7955 22.3546 12.5 21.2095 12.5 19.9997C12.5 18.7896 12.7956 17.6443 13.3138 16.6319C14.5731 14.1808 17.161 12.5 20.1526 12.5C22.2155 12.5 23.9478 13.2432 25.2732 14.4534L23.0782 16.6045Z" fill="white"/>
</g>
<defs>
<clipPath id="clip0_46_1070">
<rect width="40" height="40" fill="white"/>
</clipPath>
</defs>
</svg>
