<svg width="358" height="221" viewBox="0 0 358 221" fill="none" xmlns="http://www.w3.org/2000/svg">
<path d="M247.85 220.36C308.701 220.36 358.03 171.031 358.03 110.18C358.03 49.3293 308.701 0 247.85 0C186.999 0 137.67 49.3293 137.67 110.18C137.67 171.031 186.999 220.36 247.85 220.36Z" fill="url(#paint0_linear_168_924)"/>
<path d="M110.85 220.36C171.701 220.36 221.03 171.031 221.03 110.18C221.03 49.3293 171.701 0 110.85 0C49.9994 0 0.670044 49.3293 0.670044 110.18C0.670044 171.031 49.9994 220.36 110.85 220.36Z" fill="url(#paint1_linear_168_924)"/>
<g clip-path="url(#clip0_168_924)">
<path d="M243.427 97.2762C257.685 101.763 282.342 89.6302 282.342 89.6302C282.342 89.6302 269.202 79.7616 269.887 59.2557L258.873 68.1458L251.38 74.1704C251.492 77.4447 251.777 80.7108 252.233 83.9551C252.457 85.5905 252.722 87.4217 253.058 89.4205C249.392 91.4253 246.127 94.0883 243.427 97.2762Z" fill="#F46C80"/>
<path d="M222.238 229.705C222.65 230.072 223.182 230.276 223.733 230.278C229.087 230.278 246.001 233.214 259.21 231.858C270.392 230.781 280.177 227.497 290.772 222.744C292.17 222.115 295.413 220.396 295.343 218.816C295.273 217.237 295.119 214.623 294.91 211.464C293.527 194.371 293.265 177.207 294.127 160.08C294.351 156.045 294.472 152.052 294.491 148.101C294.603 118.747 288.774 92.8872 277.074 84.1369C276.068 83.424 269.931 86.4153 264.298 89.197C259.535 91.5528 254.109 92.2088 248.922 91.0561L244.002 95.4173C238.005 101.009 231.421 108.543 228.626 120.033C226.193 129.817 224.768 147.444 223.985 165.713C223.621 174.002 223.342 182.347 223.258 190.273V190.552C223.258 191.335 223.258 192.202 223.258 192.985C222.895 213.253 221.874 229.356 222.238 229.705Z" fill="#677AE3"/>
<path d="M176.347 193.991L177.157 193.711C178.555 193.208 181.351 189.518 181.351 189.518L186.635 195.221L183 199.051C180.932 203.901 180.89 203.985 174.614 204.936C169.19 205.747 170.071 209.199 166.297 210.15C162.523 211.1 163.04 205.761 163.04 205.761C164.437 197.304 166.087 196.199 169.721 195.445C168.519 195.011 167.708 194.382 167.96 193.572C168.212 192.761 170.056 193.572 173.747 193.18C174.66 193.268 175.545 193.544 176.347 193.991Z" fill="#F46C80"/>
<path d="M251.381 74.1703C251.493 77.4446 251.777 80.7107 252.234 83.955C260.537 82.5572 269.944 69.1242 269.944 69.1242C266.367 68.0078 262.592 67.6694 258.873 68.1317L251.381 74.1703Z" fill="#EA5471"/>
<path d="M247.034 73.8351C247.034 73.8351 270.574 77.749 272.782 63.0441C274.991 48.3391 279.52 38.9597 264.577 35.8426C249.634 32.7255 245.874 37.8834 243.945 42.608C242.016 47.3327 240.954 72.4373 247.034 73.8351Z" fill="#F46C80"/>
<path d="M294.865 211.422C293.495 194.329 293.238 177.164 294.096 160.038C294.32 156.012 294.446 152.001 294.459 148.059C289.581 136.233 285.597 127.651 285.597 127.651H273.296C273.296 127.651 264.295 189.168 294.865 211.422Z" fill="#566AC1"/>
<path d="M320.935 219.543V218.676C320.824 217.279 318.14 213.546 318.14 213.546L325.045 209.954L327.771 214.483C331.894 217.768 331.964 217.824 331.223 224.114C330.566 229.551 334.131 229.621 334.019 233.521C333.907 237.421 328.917 235.492 328.917 235.492C321.145 231.844 320.53 230.013 320.74 226.308C320.013 227.357 319.188 227.958 318.475 227.511C317.762 227.063 319.09 225.512 319.636 221.821C319.913 220.983 320.355 220.209 320.935 219.543Z" fill="#F46C80"/>
<path d="M37.0816 222.52C37.0816 222.241 37.0815 221.947 36.9837 221.654C36.8579 220.256 38.9546 216.062 38.9546 216.062L31.5601 213.672L29.6172 218.592C26.0947 222.506 25.9689 223.331 25.4237 228.81C24.8786 234.29 25.9689 233.479 27.5065 234.108C29.1451 234.767 30.8447 235.263 32.5805 235.59C34.1509 235.9 35.7765 235.769 37.2772 235.212C39.2201 234.443 39.4717 233.423 39.2201 232.039C39.1921 231.858 39.2056 231.672 39.2595 231.497C39.3135 231.321 39.4064 231.16 39.5315 231.025C39.6566 230.891 39.8106 230.787 39.9818 230.72C40.1531 230.654 40.3371 230.627 40.5202 230.642C40.6713 230.637 40.8157 230.578 40.9256 230.474C41.4707 229.971 39.9331 228.028 38.7869 224.477C38.3571 223.716 37.7769 223.05 37.0816 222.52Z" fill="#DD647B"/>
<path d="M32.525 220.06C35.6157 220.068 38.6971 219.721 41.7086 219.026C41.7086 219.026 47.901 176.812 48.9493 172.898C49.9977 168.984 79.5055 119.474 79.5055 119.474L52.6814 98.3106C52.6814 98.3106 29.1003 156.935 26.6401 166.971C22.5585 183.535 26.095 218.564 26.095 218.564C28.1202 219.478 30.3047 219.986 32.525 220.06Z" fill="#E0E0E0"/>
<path d="M96.1681 97.2762C81.9104 101.763 57.2531 89.6302 57.2531 89.6302C57.2531 89.6302 70.3925 79.7616 69.7076 59.2557L80.7224 68.1458L88.2146 74.1704C88.1118 77.4452 87.8272 80.7118 87.362 83.9551C87.1523 85.5905 86.8728 87.4217 86.5373 89.4205C90.2029 91.4253 93.4676 94.0883 96.1681 97.2762Z" fill="#F46C80"/>
<path d="M88.2132 74.1704C88.1104 77.4453 87.8258 80.7119 87.3605 83.9551C79.0715 82.5573 69.6642 69.1243 69.6642 69.1243C73.2366 68.0078 77.0068 67.6694 80.7209 68.1319L88.2132 74.1704Z" fill="#0C0A0B"/>
<path d="M92.5748 73.8351C92.5748 73.8351 69.0216 77.749 66.813 63.0441C64.6045 48.3391 60.0756 38.9597 75.0182 35.8426C89.9608 32.7255 93.7209 37.8834 95.6639 42.608C97.6069 47.3327 98.6832 72.4373 92.5748 73.8351Z" fill="#F46C80"/>
<path d="M116.061 229.705C115.646 230.068 115.116 230.271 114.565 230.278C109.211 230.195 93.5979 233.172 80.4025 231.816C69.22 230.74 59.4352 227.455 48.8258 222.702C47.428 222.073 44.1852 220.354 44.2551 218.774C44.325 217.195 44.4787 214.581 44.6884 211.422C46.0715 194.33 46.333 177.165 45.4712 160.038C45.2476 156.003 45.1264 152.01 45.1078 148.059C44.996 118.705 50.8248 92.8455 62.5385 84.0952C63.5309 83.3823 69.6673 86.3736 75.3145 89.1553C80.0763 91.5155 85.5033 92.1717 90.6904 91.0144L95.6247 95.3756C101.621 100.967 108.205 108.501 111.001 119.991C113.419 129.776 114.845 147.402 115.641 165.672C115.991 173.961 116.284 182.305 116.354 190.231V190.511C116.354 191.293 116.354 192.16 116.354 192.943C116.704 213.253 116.424 229.384 116.061 229.705Z" fill="#FFFAFF"/>
<path d="M163.263 193.991L162.439 193.711C161.041 193.208 158.245 189.518 158.245 189.518L152.947 195.221L156.582 199.051C158.65 203.901 158.692 203.985 164.969 204.936C170.392 205.747 169.512 209.199 173.286 210.15C177.06 211.1 176.556 205.761 176.556 205.761C175.089 197.304 173.495 196.199 169.861 195.445C171.063 195.011 171.874 194.382 171.622 193.572C171.371 192.761 169.526 193.572 165.835 193.18C164.931 193.269 164.055 193.545 163.263 193.991Z" fill="#DD647B"/>
<path d="M159.111 197.08C160.42 194.28 161.405 191.34 162.046 188.316C162.046 188.316 126.402 164.889 123.271 162.275C120.14 159.661 87.7385 111.953 87.7385 111.953L49.7599 115.084C49.7599 115.084 100.403 173.541 108.468 180.013C121.775 190.706 155.015 202.28 155.015 202.28C156.711 200.834 158.103 199.067 159.111 197.08Z" fill="#FFFAFF"/>
<path d="M116.282 185.199C116.282 185.199 85.2366 174.925 74.3477 162.303C63.4587 149.68 43.1486 126.057 43.1486 126.057L43.3443 125.275C44.9129 118.879 47.1039 112.652 49.8859 106.684C49.8859 106.684 52.5977 122.786 60.9287 133.913L69.3156 145.026C69.3156 145.026 82.9302 168.593 116.282 185.199Z" fill="#E0E0E0"/>
<path d="M91.6968 38.2046L86.9722 37.0864C86.9722 37.0864 88.4678 39.239 87.1259 40.4272C85.4765 41.825 77.6209 42.2443 72.5049 41.6293C73.7789 42.9335 74.5128 44.671 74.5596 46.4936C74.5596 49.3592 70.5339 50.8688 70.5339 50.8688C69.4157 55.5282 68.3067 60.1875 67.2071 64.8469C66.288 63.8195 65.4513 62.7212 64.705 61.5621C63.8782 60.2546 63.1629 58.8799 62.5665 57.4525C61.9515 56.007 61.4194 54.5275 60.9729 53.0214C58.2891 44.6345 58.8063 46.1442 58.331 41.5594C58.1722 40.6541 58.2345 39.7237 58.5128 38.8477C58.8482 38.009 59.6729 37.9809 60.5395 38.1766C60.1755 37.0794 60.1502 35.898 60.4668 34.7861C60.7834 33.6742 61.4273 32.6834 62.3148 31.9425C63.3889 31.2226 64.5885 30.7106 65.8513 30.4328C68.6469 29.636 71.4425 29.035 74.2381 28.2662C73.8749 26.7855 73.7756 25.2525 73.9447 23.7373C73.9447 22.5631 74.1823 21.1793 75.1747 20.6481C76.1672 20.1169 77.6489 20.9277 78.6553 21.7663C79.6778 22.4138 80.5461 23.2774 81.1992 24.2964C81.4648 22.8986 81.7443 21.5008 82.0239 20.2008C82.0651 19.8285 82.1998 19.4727 82.4153 19.1664C82.6292 18.937 82.9067 18.7764 83.2122 18.7051C83.9903 18.6094 84.7799 18.7205 85.5014 19.0273C86.2229 19.334 86.8507 19.8256 87.3216 20.4524C88.4224 21.7616 89.2794 23.2577 89.8518 24.8695C90.1313 23.6395 90.7044 22.1578 91.9205 22.1438C92.3801 22.1593 92.818 22.3434 93.1506 22.661C94.2968 23.6394 96.8408 26.9941 97.0226 32.9209C97.1044 36.0262 96.5427 39.1149 95.3731 41.9927C94.6072 40.3534 93.3124 39.0192 91.6968 38.2046Z" fill="#FBCA8C"/>
<path d="M93.1645 46.997H93.0106C92.2959 46.6575 91.5088 46.4992 90.7183 46.5358C90.602 46.5397 90.4886 46.498 90.4025 46.4197C90.3164 46.3414 90.2642 46.2326 90.257 46.1164C90.2532 46.0583 90.2611 46.0002 90.2803 45.9452C90.2995 45.8903 90.3296 45.8398 90.3687 45.7968C90.4079 45.7538 90.4553 45.719 90.5081 45.6947C90.561 45.6703 90.6182 45.6569 90.6764 45.6552C91.6392 45.5993 92.6007 45.7868 93.472 46.2003C93.5775 46.2543 93.658 46.3469 93.6971 46.4588C93.7361 46.5708 93.7307 46.6935 93.6817 46.8014C93.6318 46.8892 93.5528 46.9567 93.4583 46.9924C93.3639 47.0281 93.26 47.0298 93.1645 46.997Z" fill="#FBCA8C"/>
<path d="M80.0246 47.6122C79.9398 47.6057 79.8588 47.5743 79.7917 47.5222C79.7246 47.47 79.6743 47.3992 79.6472 47.3187C79.6094 47.209 79.6142 47.0891 79.6608 46.9829C79.7074 46.8767 79.7925 46.7919 79.8988 46.7455C80.8265 46.3951 81.834 46.3127 82.8062 46.5079C82.8711 46.5097 82.9348 46.5257 82.9929 46.5546C83.051 46.5835 83.1021 46.6246 83.1427 46.6752C83.1833 46.7258 83.2123 46.7847 83.2279 46.8477C83.2434 46.9107 83.2451 46.9763 83.2328 47.04C83.2205 47.1037 83.1945 47.164 83.1565 47.2166C83.1186 47.2693 83.0696 47.313 83.013 47.3449C82.9565 47.3767 82.8938 47.3958 82.8291 47.4009C82.7644 47.4061 82.6994 47.3971 82.6385 47.3746C81.8289 47.2126 80.99 47.2854 80.2203 47.5843L80.0246 47.6122Z" fill="#FBCA8C"/>
<path d="M82.4126 50.5476C82.3952 50.7517 82.3175 50.946 82.1894 51.1059C82.0614 51.2658 81.8889 51.3841 81.6936 51.4458C81.4983 51.5075 81.2889 51.5098 81.0923 51.4524C80.8956 51.395 80.7206 51.2806 80.5891 51.1236C80.4576 50.9665 80.3756 50.774 80.3536 50.5703C80.3317 50.3667 80.3707 50.1611 80.4657 49.9797C80.5607 49.7982 80.7075 49.649 80.8873 49.551C81.0672 49.4531 81.272 49.4108 81.476 49.4294C81.7482 49.4542 81.9996 49.5858 82.1751 49.7953C82.3506 50.0048 82.4359 50.2753 82.4126 50.5476Z" fill="#0C0A0B"/>
<path d="M92.981 50.5478C92.9704 50.6838 92.9329 50.8164 92.8709 50.9379C92.8089 51.0594 92.7235 51.1673 92.6196 51.2557C92.5156 51.344 92.3952 51.4109 92.2653 51.4526C92.1354 51.4942 91.9986 51.5098 91.8627 51.4983C91.7272 51.4878 91.5953 51.4504 91.4745 51.3882C91.3537 51.326 91.2465 51.2403 91.1593 51.1361C91.0721 51.032 91.0065 50.9114 90.9665 50.7816C90.9265 50.6517 90.9126 50.5153 90.9261 50.3801C90.9366 50.2441 90.9741 50.1115 91.0361 49.99C91.0981 49.8685 91.1835 49.7605 91.2875 49.6721C91.3914 49.5838 91.5118 49.5168 91.6417 49.4752C91.7716 49.4336 91.9085 49.4181 92.0444 49.4296C92.3151 49.4579 92.5642 49.5904 92.739 49.7991C92.9138 50.0078 93.0006 50.2763 92.981 50.5478Z" fill="#0C0A0B"/>
<path d="M89.1935 55.314C89.774 55.587 90.3907 55.7753 91.0247 55.8732C91.2485 55.8792 91.4643 55.9576 91.6397 56.0968C91.7451 56.2354 91.8023 56.4049 91.8023 56.5791C91.8023 56.7533 91.7451 56.9226 91.6397 57.0613C91.5688 57.2011 91.4895 57.3365 91.4021 57.4667C91.061 57.9826 90.5426 58.3555 89.9451 58.5152C89.3476 58.6749 88.7122 58.6102 88.1591 58.3333C88.6558 58.2431 89.1303 58.058 89.5569 57.7882C90.0311 57.4822 90.4283 57.0708 90.7172 56.5861C90.829 56.4183 90.7172 56.586 90.871 56.7957C90.4916 56.6861 90.1396 56.4975 89.8385 56.2421C89.5373 55.9867 89.2938 55.6704 89.1237 55.314H89.1935Z" fill="#0C0A0B"/>
<path d="M90.2972 62.5268C88.8994 65.602 85.0415 64.1622 84.3985 61.3107C86.2296 62.8203 87.907 64.1063 90.2972 62.5268Z" fill="#0C0A0B"/>
<path d="M81.9106 56.7818C81.9106 58.1796 80.3031 59.3678 78.2623 59.3957C76.2215 59.4237 74.5441 58.3334 74.5161 56.9216C74.4881 55.5098 76.1236 54.3357 78.1644 54.2937C80.2052 54.2518 81.9106 55.37 81.9106 56.7818Z" fill="#DB424E"/>
<path d="M97.1327 54.3495C95.3854 54.5871 94.0714 55.6495 94.0994 56.9215C94.1273 58.1935 95.4134 59.172 97.1187 59.3677C97.1746 57.6903 97.1746 55.9989 97.1327 54.3495Z" fill="#DB424E"/>
<path d="M181.351 189.588L216.1 159.814L224.991 147.681L223.593 175.889L182.665 199.904C182.204 196.507 181.784 193.04 181.351 189.588Z" fill="#F46C80"/>
<path d="M282.118 149.009L300.667 125.288L277.436 86.0519L261.878 124.981L282.118 149.009Z" fill="#677AE3"/>
<path d="M320.279 220.326L303.533 171.291L284.509 145.948L297.523 129.3L317.959 165L331.154 218.173L320.279 220.326Z" fill="#F46C80"/>
<path d="M243.61 36.5836C243.254 37.5547 243.119 38.5924 243.214 39.6222C243.308 40.6519 243.629 41.6478 244.155 42.5383L246.769 38.7781C255.631 41.8114 263.417 39.9244 263.906 40.4136C263.906 40.4136 263.263 51.2607 265.458 52.0434C267.652 52.8262 271.748 49.4994 271.748 49.4994C272.29 49.3239 272.862 49.2606 273.429 49.3135C273.996 49.3664 274.546 49.5343 275.047 49.8069C275.047 49.8069 279.547 29.4268 278.15 27.0924C276.528 24.3807 271.161 24.2968 271.161 24.2968L261.544 22.0604C261.544 22.0604 252.598 23.6399 239.654 17.0981C237.767 16.1476 234.636 26.3656 237.054 30.0139C238.89 32.5267 241.101 34.7425 243.61 36.5836Z" fill="#000302"/>
<path d="M267.61 58.0399C268.36 58.6113 269.249 58.9722 270.186 59.0852C271.122 59.1983 272.071 59.0594 272.936 58.6829C273.815 58.2512 274.584 57.6234 275.182 56.8479C275.781 56.0724 276.193 55.1699 276.388 54.2099C276.597 53.4017 276.577 52.5515 276.33 51.7542C276.083 50.9569 275.619 50.2439 274.99 49.6949C274.261 49.2479 273.393 49.0863 272.551 49.2411C271.71 49.3959 270.956 49.8563 270.434 50.5336L267.61 58.0399Z" fill="#F46C80"/>
<path d="M270.097 56.3765C272.305 55.7335 274.137 53.5809 271.607 51.8057C271.974 51.8018 272.336 51.8895 272.661 52.0608C272.985 52.2322 273.262 52.4819 273.466 52.7871C273.67 53.0924 273.795 53.4437 273.829 53.8093C273.863 54.1749 273.805 54.5432 273.661 54.8809C273.342 55.5135 272.808 56.0117 272.155 56.2858C271.502 56.56 270.772 56.5921 270.097 56.3765Z" fill="#0C0A0B"/>
<path d="M247.426 53.9442C247.351 54.3274 247.133 54.6679 246.817 54.8963C246.5 55.1247 246.108 55.2241 245.721 55.1743C245.536 55.152 245.358 55.0907 245.198 54.9944C245.039 54.8981 244.902 54.769 244.796 54.6157C244.69 54.4624 244.618 54.2882 244.585 54.105C244.552 53.9217 244.558 53.7335 244.602 53.5527C244.683 53.1726 244.903 52.8362 245.218 52.6088C245.533 52.3815 245.922 52.2795 246.308 52.3227C246.671 52.3906 246.992 52.5992 247.201 52.903C247.411 53.2067 247.491 53.581 247.426 53.9442Z" fill="#0C0A0B"/>
<path d="M256.022 55.1324C255.942 55.5125 255.722 55.849 255.407 56.0763C255.092 56.3037 254.703 56.4057 254.317 56.3625C253.954 56.2945 253.633 56.0859 253.424 55.7821C253.214 55.4784 253.133 55.1042 253.199 54.741C253.274 54.3605 253.49 54.0222 253.803 53.7941C254.117 53.566 254.505 53.4649 254.89 53.511C255.071 53.543 255.244 53.6104 255.399 53.7092C255.553 53.8081 255.687 53.9364 255.792 54.087C255.898 54.2376 255.972 54.4074 256.011 54.5868C256.051 54.7662 256.055 54.9516 256.022 55.1324Z" fill="#0C0A0B"/>
<path d="M261.474 49.6669C261.56 49.6741 261.646 49.6614 261.726 49.6299C261.806 49.5984 261.878 49.5489 261.936 49.4851C261.992 49.4305 262.036 49.3652 262.066 49.2932C262.096 49.2212 262.112 49.1439 262.112 49.0658C262.112 48.9877 262.096 48.9104 262.066 48.8384C262.036 48.7664 261.992 48.7011 261.936 48.6464C261.368 48.0742 260.659 47.6638 259.88 47.4574C259.101 47.251 258.281 47.2561 257.505 47.4723C257.35 47.5121 257.216 47.6094 257.13 47.7445C257.044 47.8795 257.014 48.0421 257.043 48.1992C257.06 48.2738 257.091 48.3443 257.135 48.4063C257.18 48.4684 257.237 48.5207 257.302 48.56C257.368 48.5993 257.44 48.6247 257.516 48.6348C257.592 48.6449 257.669 48.6393 257.742 48.6185C258.321 48.4625 258.931 48.4617 259.51 48.6163C260.089 48.7709 260.617 49.0754 261.041 49.4991C261.159 49.6083 261.314 49.6683 261.474 49.6669Z" fill="#000302"/>
<path d="M249.034 47.5425C249.146 47.5456 249.258 47.5203 249.358 47.469C249.458 47.4177 249.544 47.342 249.607 47.2489C249.651 47.1852 249.681 47.1133 249.697 47.0375C249.712 46.9617 249.712 46.8835 249.696 46.8078C249.681 46.732 249.65 46.6603 249.606 46.5968C249.561 46.5333 249.505 46.4793 249.439 46.4383C248.414 45.8275 247.201 45.6137 246.029 45.8372C245.87 45.8678 245.73 45.9566 245.634 46.086C245.538 46.2154 245.495 46.376 245.512 46.5361C245.52 46.6122 245.543 46.6856 245.582 46.7518C245.62 46.818 245.672 46.8753 245.734 46.9201C245.796 46.965 245.867 46.9962 245.941 47.0119C246.016 47.0276 246.094 47.0274 246.168 47.0113C247.061 46.8428 247.984 47.0016 248.769 47.4586C248.846 47.5133 248.939 47.5426 249.034 47.5425Z" fill="#000302"/>
<path d="M255.547 63.3655C255.142 64.8752 256.652 66.4826 258.93 66.9439C261.208 67.4052 263.375 66.5525 263.781 65.0289C264.186 63.5053 262.662 61.9118 260.398 61.4505C258.133 60.9892 255.953 61.9677 255.547 63.3655Z" fill="#EA5471"/>
<path d="M245.552 66.3289C248.767 68.7611 251.143 66.6364 253.603 64.4838C252.443 67.9643 247.705 70.2567 245.552 66.3289Z" fill="#0C0A0B"/>
<path d="M247.761 61.4507C246.643 60.8636 245.217 59.6475 246.055 58.1798C246.215 58.0209 246.431 57.9307 246.657 57.9282C247.69 57.8516 248.727 57.8516 249.76 57.9282L249.201 58.3615C249.568 56.124 250.125 53.9216 250.864 51.7779C250.831 54.2026 250.593 56.6201 250.151 59.0046C249.355 59.0046 247.915 58.8508 247.118 58.8228H246.601C246.685 58.8228 246.81 58.6971 246.796 58.6831C246.181 59.4938 247.23 60.6959 247.761 61.4787V61.4507Z" fill="#0C0A0B"/>
<path d="M294.153 199.191C292.308 198.338 278.777 202.671 276.289 203.258C274.332 203.734 270.921 203.37 269.971 200.589C269.02 197.807 267.175 182.725 266.224 179.901C266.052 179.22 265.67 178.61 265.134 178.156C264.598 177.703 263.933 177.428 263.233 177.371L246.459 177.818L229.406 178.293L223.423 179.51C223.423 179.789 223.423 180.069 223.423 180.348C223.367 183.414 223.307 186.485 223.242 189.56C223.242 189.77 223.242 189.993 223.242 190.203V190.482C223.249 190.575 223.249 190.669 223.242 190.762C223.242 192.705 223.242 194.648 223.13 196.591V198.66V198.771C223.13 198.911 223.13 199.065 223.13 199.219V201.232V201.763C223.13 202.797 223.13 203.831 223.06 204.824V205.048C222.906 210.807 222.711 215.895 222.557 219.92L222.487 224.198L222.375 229.635L223.647 230.194H223.871C229.224 230.194 246.138 233.13 259.347 231.774C270.53 230.697 280.314 227.413 290.91 222.66C292.308 222.031 295.55 220.312 295.481 218.732C295.411 217.153 295.257 214.539 295.047 211.38C294.67 208.025 294.376 203.902 294.153 199.191Z" fill="#6558A6"/>
<path d="M248.949 90.9863C242.577 95.3512 237.313 101.143 233.573 107.9C229.379 115.714 228.345 123.108 227.716 150.952C227.534 159.06 227.367 169.543 227.353 181.816" stroke="#12006C" stroke-width="2.79562" stroke-miterlimit="10" stroke-linecap="round"/>
<path d="M282.342 89.6302C276.933 91.2796 268.029 94.914 261.599 103.301C256.008 110.625 254.764 118.327 253.576 131.676C252.471 144.145 251.479 160.849 251.674 180.949" stroke="#12006C" stroke-width="2.79562" stroke-miterlimit="10" stroke-linecap="round"/>
<path d="M251.282 230.39C250.933 230.417 250.582 230.417 250.233 230.39L241.287 230.614C239.65 230.664 238.018 230.391 236.486 229.811C234.954 229.23 233.552 228.353 232.359 227.23C231.166 226.107 230.206 224.761 229.534 223.266C228.861 221.772 228.49 220.16 228.442 218.523L228.218 209.828V208.277C228.21 207.991 228.259 207.707 228.362 207.441C228.466 207.174 228.621 206.931 228.819 206.725C229.214 206.318 229.748 206.073 230.314 206.04L260.032 205.271C260.314 205.262 260.595 205.309 260.859 205.408C261.123 205.508 261.365 205.659 261.57 205.853C261.775 206.047 261.94 206.279 262.055 206.537C262.17 206.794 262.233 207.072 262.241 207.354L262.464 217.614C262.515 220.744 261.397 223.779 259.329 226.129C257.261 228.478 254.392 229.973 251.282 230.32V230.39ZM250.191 230.069C251.786 230.038 253.358 229.688 254.815 229.039C256.273 228.391 257.585 227.458 258.676 226.295C259.784 225.166 260.653 223.826 261.229 222.353C261.806 220.881 262.078 219.307 262.031 217.726L261.821 209.227L228.567 210.094L228.763 218.607C228.865 221.809 230.231 224.84 232.563 227.038C234.894 229.236 238.001 230.421 241.203 230.334L250.191 230.069ZM228.679 209.73L261.933 208.864V207.466C261.918 207 261.721 206.559 261.384 206.237C261.046 205.915 260.596 205.739 260.13 205.747L230.412 206.502C229.948 206.519 229.508 206.714 229.182 207.047C229.017 207.212 228.886 207.408 228.798 207.624C228.709 207.84 228.664 208.071 228.665 208.305L228.679 209.73ZM279.196 206.096L274.513 206.208C272.923 206.141 271.389 205.606 270.101 204.672C268.813 203.737 267.829 202.443 267.273 200.952C267.161 200.603 266.993 200.267 266.881 199.918C266.87 199.895 266.863 199.87 266.862 199.845C266.861 199.819 266.865 199.794 266.874 199.77C266.883 199.747 266.897 199.725 266.916 199.707C266.934 199.689 266.955 199.675 266.979 199.666C267.091 199.666 267.175 199.666 267.231 199.764C267.343 200.099 267.496 200.449 267.622 200.798C268.161 202.212 269.099 203.438 270.323 204.326C271.547 205.215 273.003 205.728 274.513 205.803L279.196 205.691C279.308 205.691 279.406 205.789 279.378 205.872C279.39 205.906 279.392 205.943 279.383 205.978C279.374 206.013 279.354 206.045 279.327 206.069C279.3 206.093 279.266 206.108 279.231 206.113C279.195 206.118 279.159 206.112 279.126 206.096H279.196ZM248.332 180.097L231.027 180.698C230.943 180.698 230.86 180.6 230.874 180.516C230.888 180.432 230.943 180.306 231.013 180.348L248.304 179.747C248.327 179.745 248.349 179.747 248.37 179.755C248.391 179.763 248.41 179.775 248.425 179.792C248.44 179.808 248.45 179.828 248.456 179.849C248.462 179.871 248.463 179.893 248.458 179.915C248.466 179.943 248.465 179.973 248.457 180C248.449 180.028 248.433 180.053 248.411 180.072C248.389 180.091 248.362 180.104 248.333 180.108C248.304 180.112 248.275 180.108 248.248 180.097H248.332Z" stroke="#12006C" stroke-width="1.04836" stroke-miterlimit="10" stroke-linecap="round"/>
<path d="M216.086 159.842L218.518 167.558" stroke="#0C0A0B" stroke-width="0.698906" stroke-miterlimit="10"/>
<path d="M298.178 120.983L278.413 144.62" stroke="#0C0A0B" stroke-width="0.698906" stroke-miterlimit="10"/>
<path d="M272.348 122.046L271.761 153.524" stroke="#0C0A0B" stroke-width="0.698906" stroke-miterlimit="10"/>
<path d="M246.377 94.6903C258.206 96.4562 270.264 93.6579 280.106 86.8626" stroke="#0C0A0B" stroke-width="0.698906" stroke-miterlimit="10"/>
</g>
<defs>
<linearGradient id="paint0_linear_168_924" x1="248.29" y1="220.234" x2="248.29" y2="110.62" gradientUnits="userSpaceOnUse">
<stop stop-color="#CFDFFE"/>
<stop offset="1" stop-color="#D6E4FF" stop-opacity="0"/>
</linearGradient>
<linearGradient id="paint1_linear_168_924" x1="111.29" y1="220.234" x2="111.29" y2="110.62" gradientUnits="userSpaceOnUse">
<stop stop-color="#CFDFFE"/>
<stop offset="1" stop-color="#D6E4FF" stop-opacity="0"/>
</linearGradient>
<clipPath id="clip0_168_924">
<rect width="309.21" height="218.967" fill="white" transform="translate(24.67 17)"/>
</clipPath>
</defs>
</svg>
