<svg width="17" height="14" viewBox="0 0 17 14" fill="none" xmlns="http://www.w3.org/2000/svg">
<g clip-path="url(#clip0_3_1607)">
<path fill-rule="evenodd" clip-rule="evenodd" d="M12.9699 12.5256H6.27318C5.67981 12.5256 5.20017 12.1382 5.20017 11.659L5.19995 5.59235C6.56268 5.59235 7.3462 4.70055 7.3462 3.59901V1.51901L8.3162 1.38815C9.49333 1.23041 10.5652 1.96275 10.5652 2.92735V5.15901H14.0118C15.0118 5.15901 15.7704 5.88875 15.5966 6.68521L14.5558 11.4518C14.4196 12.0732 13.7521 12.5256 12.9699 12.5256Z" stroke="#B5ADBE" stroke-width="0.866667"/>
<path fill-rule="evenodd" clip-rule="evenodd" d="M4.127 12.5256H1.98097C1.3876 12.5256 0.907959 12.1382 0.907959 11.6589V6.0256C0.907959 5.54634 1.3876 5.15894 1.98097 5.15894H4.127C4.72038 5.15894 5.20002 5.54634 5.20002 6.0256V11.6589C5.20002 12.1382 4.72038 12.5256 4.127 12.5256Z" stroke="#B5ADBE" stroke-width="0.866667"/>
</g>
<defs>
<clipPath id="clip0_3_1607">
<rect width="16.4667" height="13" fill="white" transform="translate(0 0.5)"/>
</clipPath>
</defs>
</svg>
