<svg width="40" height="40" viewBox="0 0 40 40" fill="none" xmlns="http://www.w3.org/2000/svg">
<g clip-path="url(#clip0_46_1056)">
<path d="M32 0H8C3.58172 0 0 3.58172 0 8V32C0 36.4183 3.58172 40 8 40H32C36.4183 40 40 36.4183 40 32V8C40 3.58172 36.4183 0 32 0Z" fill="#FFA200"/>
<path d="M28 23.72C28.0008 23.4572 27.8004 23.2393 27.5453 23.2188L23.6634 22.9487C23.5185 22.938 23.3762 22.991 23.2736 23.0936L22.0635 24.3036C21.9159 24.4512 21.692 24.4916 21.502 24.4047C18.8877 23.209 16.791 21.1123 15.5953 18.498C15.5097 18.3109 15.5475 18.0904 15.6905 17.9425L16.8563 16.7366C16.959 16.6338 17.012 16.4914 17.0008 16.3383L16.7812 12.465C16.7628 12.2026 16.5443 11.9994 16.28 12H13.5C12.6716 12 12 12.6716 12 13.5C12 21.5081 18.4919 28 26.5 28C27.3284 28 28 27.3284 28 26.5V23.72Z" fill="white"/>
</g>
<defs>
<clipPath id="clip0_46_1056">
<rect width="40" height="40" fill="white"/>
</clipPath>
</defs>
</svg>
