<svg width="288" height="442" viewBox="0 0 288 442" fill="none" xmlns="http://www.w3.org/2000/svg">
<mask id="mask0_34_1403" style="mask-type:luminance" maskUnits="userSpaceOnUse" x="0" y="0" width="288" height="442">
<path d="M0 0H288V442H16C7.16345 442 0 434.837 0 426V0Z" fill="white"/>
</mask>
<g mask="url(#mask0_34_1403)">
<path d="M-11.0076 372.313C-9.41681 367.418 -0.0338135 344.852 11.5062 314.594L81.3122 320.646L103.96 321.426L44.8824 520.478C23.3663 515.045 9.86827 492.143 24.0776 453.368L33.338 394.643L3.24156 453.368C0.518341 451.727 -30.5965 425.423 -37.2832 416.762" fill="#FB804A"/>
<path d="M99.2702 140.716L97.0593 343.726L6.5459 331.165L60.9294 124.793L99.2702 140.716Z" fill="white"/>
<path d="M124.292 43.348C124.292 43.348 156.943 63.628 136.155 88.99C115.367 114.353 114.396 46.387 114.396 46.387" fill="#543732"/>
<path d="M203.051 223.806C203.051 223.806 216.38 199.132 216.672 193.619C216.963 188.106 213.255 172.744 212.616 169.519C211.883 165.838 210.762 161.042 210.447 155.949C210.327 154.13 212.657 153.392 213.819 154.872C216.283 157.993 219.139 163.466 220.734 166.426C223.24 171.005 224.222 173.035 224.222 173.035L233.805 154.945C233.805 154.945 243.147 132.75 247.696 133.054C252.258 133.341 243.086 159.231 243.086 159.231C243.086 159.231 254.47 133.227 258.173 134.155C261.856 135.068 261.355 141.521 254.621 154.766C251.409 161.066 249.878 162.873 249.878 162.873C249.878 162.873 264.488 142.897 267.601 143.407C270.713 143.917 268.946 149.223 266.123 153.375C263.299 157.526 254.168 170.938 254.168 170.938C254.168 170.938 264.938 154.099 269.325 156.833C272.498 158.815 261.783 172.979 257.683 179.103C253.002 186.079 243.002 203.251 240.278 207.89C237.555 212.529 222.777 243.132 222.777 243.132L203.051 223.806Z" fill="#FFCBB6"/>
<path d="M224.191 173.039C224.191 173.039 232.198 180.808 231.74 193.219C231.74 193.219 237.438 177.629 228.147 165.709L224.191 173.039Z" fill="#FFBB9F"/>
<path d="M237.157 162.164C237.157 162.164 249.588 162.407 253.819 174.432L237.157 162.164Z" fill="#FFBB9F"/>
<path d="M130.658 181.38C139.448 201.31 165.979 259.055 165.979 259.055L206.052 191.735L248.95 215.564C248.95 215.564 194.613 320.458 158.51 315.967C122.407 311.475 124.402 246.898 124.402 246.898L140.661 362.631L93.6113 356.499L99.2735 140.713C99.2735 140.713 119.846 156.905 130.658 181.38Z" fill="#5A66FF"/>
<path d="M122.054 36.68C122.054 36.68 156.054 114.49 117.281 119.466C71.7957 125.302 53.7578 59.058 53.7578 59.058" fill="#FFCBB6"/>
<path d="M109.464 107.308L99.2724 140.712C99.2724 140.712 87.4089 149.426 78.8617 147.329C70.3146 145.231 60.9316 124.763 60.9316 124.763L73.9815 78.395L109.464 107.308Z" fill="#FFCBB6"/>
<path d="M106.236 117.906L103.405 126.647C103.405 126.647 82.1587 123.392 75.6338 99.401C75.6338 99.401 89.5195 117.045 106.236 117.906Z" fill="#DDA692"/>
<path d="M89.5954 47.978C89.9998 48.596 93.2084 67.074 85.2005 75.492C85.2005 75.492 86.6025 117.369 64.7628 113.254C42.9232 109.139 46.5361 57.23 48.5314 52.927C50.5266 48.623 93.8015 22.561 109.818 26.865C125.833 31.168 138.856 52.308 131.037 57.849C120.441 65.353 89.5954 47.978 89.5954 47.978Z" fill="#724D44"/>
<path d="M46.8831 22.829C46.7753 18.203 49.4176 13.953 53.5429 12.097L76.3532 1.85001C76.9464 1.58101 77.5665 1.393 78.1867 1.258C79.9393 7.821 84.5499 26.11 86.9495 35.712L47.5572 53.759L46.8831 22.829Z" fill="#BFB2AF"/>
<path d="M79.7773 1.01599L95.1999 0.0209838C98.8938 -0.221016 102.399 1.60799 104.367 4.80899C108.466 11.479 115.072 22.237 115.233 22.748L86.9493 35.712C84.5497 26.11 79.966 7.82099 78.1865 1.25899C78.7257 1.15099 79.238 1.04299 79.7773 1.01599Z" fill="#FB804A"/>
<path d="M120.215 31.76L153.783 20.598C161.36 18.07 161.414 7.09599 153.864 4.51399C151.842 3.81499 149.604 3.94898 147.69 4.89098L48.2246 53.357L120.215 31.76Z" fill="#BFB2AF"/>
<path d="M115.267 71.457C117.316 73.098 119.662 74.254 121.819 75.734C123.518 76.89 125.189 78.423 125.567 80.467C125.998 82.888 124.407 85.255 122.547 86.842C120.471 88.644 117.936 89.881 115.267 90.446C116.642 88.966 118.044 87.406 118.718 85.47C119.473 83.238 119.096 80.602 117.694 78.719C115.941 76.325 113.191 74.55 111.546 72.076C110.872 71.081 108.958 67.853 110.98 67.315C112.005 67.046 112.247 68.203 112.76 68.902C113.488 69.843 114.323 70.704 115.267 71.457Z" fill="#EDB3A2"/>
<path d="M104.612 58.923C105.043 59.273 106.365 60.994 104.1 61.075C101.835 61.156 95.4178 62.581 95.1213 60.591C94.8516 58.574 102.401 57.041 104.612 58.923Z" fill="#4C3F3B"/>
<path d="M123.408 67.291C123.408 65.381 122.222 63.794 120.55 63.176C120.982 63.041 121.44 62.934 121.952 62.934C124.433 62.934 126.428 64.978 126.428 67.533C126.428 70.088 124.433 72.132 121.952 72.132C121.198 72.132 120.523 71.917 119.903 71.594C121.899 71.218 123.408 69.442 123.408 67.291Z" fill="white"/>
<path d="M117.473 67.531C117.473 65.487 118.768 63.793 120.574 63.201C122.219 63.793 123.432 65.407 123.432 67.316C123.432 69.468 121.922 71.243 119.927 71.62C118.471 70.813 117.473 69.307 117.473 67.531Z" fill="#4C3F3B"/>
<path d="M103.878 67.291C103.878 65.381 102.691 63.794 101.02 63.176C101.451 63.041 101.909 62.934 102.422 62.934C104.902 62.934 106.897 64.978 106.897 67.533C106.897 70.088 104.902 72.132 102.422 72.132C101.667 72.132 100.993 71.917 100.372 71.594C102.368 71.218 103.878 69.442 103.878 67.291Z" fill="white"/>
<path d="M97.9551 67.531C97.9551 65.487 99.2493 63.793 101.056 63.201C102.701 63.793 103.914 65.407 103.914 67.316C103.914 69.468 102.404 71.243 100.409 71.62C98.9528 70.813 97.9551 69.307 97.9551 67.531Z" fill="#4C3F3B"/>
<path d="M114.76 94.721C115.515 94.963 116.27 95.259 116.89 95.77C117.51 96.281 117.995 97.007 118.049 97.814C118.157 99.267 116.971 100.477 115.704 101.123C113.87 102.064 111.74 102.279 109.664 102.145C106.833 101.929 104.056 101.069 101.602 99.616C100.038 98.675 98.5554 97.438 97.8544 95.743C97.1533 94.049 97.423 91.79 98.9059 90.714C99.9575 89.907 101.44 89.853 102.681 90.257C104.568 90.848 106.132 92.247 108.019 92.946C110.203 93.753 112.549 94.022 114.76 94.721Z" fill="white"/>
<path d="M117.985 98.702L98.0062 91.736C98.0062 91.736 97.7905 92.167 97.7366 92.328C97.6827 92.489 97.5479 93.054 97.5479 93.054L117.284 99.94C117.284 99.94 117.662 99.509 117.743 99.348C117.824 99.186 117.985 98.702 117.985 98.702Z" fill="#EAE3E1"/>
<path d="M109.416 93.377L108.688 95.636L107.502 95.152L108.014 92.919L109.416 93.377Z" fill="#EAE3E1"/>
<path d="M111.136 97.758L109.384 102.116L107.901 101.954L109.653 97.301L111.136 97.758Z" fill="#EAE3E1"/>
<path d="M105.528 95.692C105.474 95.826 103.776 100.802 103.776 100.802L102.185 99.995L104.099 95.181L105.528 95.692Z" fill="#EAE3E1"/>
<path d="M165.987 259.055L151.401 277.962L158.95 243.132L165.987 259.055Z" fill="#4455D3"/>
<path d="M99.2702 140.713L74.6533 340.818L93.9316 343.481L99.2702 140.713Z" fill="#E4E7F4"/>
<path d="M28.4137 402.624C28.4137 402.624 25.0973 400.527 20.5137 397.46C23.129 399.155 25.7983 400.822 28.5215 402.463L28.4137 402.624Z" fill="#FB804A"/>
<path d="M-61.8537 215.537C-43.654 186.033 -21.5447 152.628 -8.95315 142.354C15.1244 122.72 60.9339 124.791 60.9339 124.791C64.2502 168.12 22.3797 290.403 0.000762939 349.143L-23.6134 340.786L-40.6072 354.992C-66.3025 326.16 -77.8425 292.298 -89.2207 260.911C-88.4927 259.647 -86.2009 256.285 -85.3111 254.752L-61.8537 215.537Z" fill="#5A66FF"/>
<path d="M-20.5234 253.164L23.9919 179.846L-0.247515 269.651L-20.5234 253.164Z" fill="#4455D3"/>
</g>
</svg>
