<svg width="25" height="25" viewBox="0 0 25 25" fill="none" xmlns="http://www.w3.org/2000/svg">
<path fill-rule="evenodd" clip-rule="evenodd" d="M9.36621 7.88791C9.53213 7.74124 9.71454 7.60191 9.91254 7.46991C10.3343 7.19015 10.8062 6.99466 11.3022 6.89424C11.5894 6.83621 11.8819 6.80795 12.1749 6.80991C12.6002 6.80991 12.988 6.86858 13.3372 6.98591C13.6865 7.10324 13.9862 7.27008 14.2355 7.48824C14.4849 7.70549 14.6783 7.96858 14.8149 8.27658C14.9524 8.58458 15.0202 8.92924 15.0202 9.31058C15.0202 9.68183 14.9661 10.0036 14.8589 10.2749C14.7608 10.5297 14.6248 10.7683 14.4555 10.9826C14.2942 11.1833 14.1164 11.3566 13.9239 11.5032L13.3775 11.9176C13.2061 12.0468 13.0585 12.1742 12.9339 12.2989C12.8155 12.4115 12.737 12.5595 12.7102 12.7206L12.5415 13.7912H11.3022L11.1775 12.5959C11.1444 12.3888 11.1791 12.1766 11.2765 11.9909C11.3719 11.8167 11.4993 11.6582 11.6579 11.5142C11.8254 11.363 12.0031 11.2234 12.1895 11.0962C12.3848 10.9615 12.5681 10.8148 12.7395 10.6562C12.911 10.4977 13.054 10.3189 13.1685 10.1209C13.2831 9.92291 13.3409 9.68733 13.3409 9.41324C13.3409 9.23724 13.3079 9.07958 13.2419 8.94024C13.1769 8.80223 13.0831 8.67971 12.9669 8.58091C12.8428 8.47698 12.6996 8.39849 12.5452 8.34991C12.3734 8.2949 12.1939 8.26767 12.0135 8.26924C11.7349 8.26924 11.4993 8.29949 11.3059 8.36091C11.1134 8.42233 10.9484 8.49016 10.8145 8.56624C10.6986 8.63091 10.5849 8.69939 10.4735 8.77158C10.401 8.82555 10.3144 8.85739 10.2242 8.86324C10.1461 8.86782 10.0684 8.84942 10.0006 8.81032C9.93285 8.77123 9.87801 8.71314 9.84288 8.64324L9.36621 7.88791ZM10.7522 16.5339C10.7515 16.2413 10.8646 15.96 11.0675 15.7492C11.1716 15.6457 11.2952 15.5639 11.4312 15.5085C11.5672 15.4531 11.7127 15.4253 11.8595 15.4266C12.0154 15.4266 12.162 15.4559 12.2959 15.5146C12.4306 15.5732 12.548 15.6521 12.6479 15.7492C12.7487 15.8473 12.8275 15.9647 12.8862 16.1012C12.9449 16.2387 12.9742 16.3827 12.9742 16.5339C12.9758 16.68 12.9476 16.8248 12.8916 16.9597C12.8355 17.0946 12.7526 17.2167 12.6479 17.3186C12.437 17.5237 12.1537 17.637 11.8595 17.6339C11.7037 17.6339 11.557 17.6064 11.4195 17.5496C11.288 17.4969 11.1683 17.4183 11.0675 17.3186C10.9684 17.2188 10.8899 17.1004 10.8365 16.9702C10.7796 16.8319 10.7509 16.6835 10.7522 16.5339Z" fill="black" fill-opacity="0.34"/>
<rect x="0.71875" y="0.53125" width="23" height="23" rx="11.5" stroke="black" stroke-opacity="0.34"/>
</svg>
